<svg xmlns="http://www.w3.org/2000/svg" viewBox="-950.166 -237.005 67.425 67.475"><defs><style>.a{fill:#5883a0;}</style></defs><path class="a" d="M670.1,572.8v0Zm0-1.2v-1.1a15.054,15.054,0,0,0,1.7-1,.447.447,0,1,1,.4.8,23.906,23.906,0,0,1-2.1,1.3Zm0-1.2q1.5-.9,3.3-1.8a.447.447,0,0,0-.4-.8c-1,.5-1.9,1.1-2.8,1.5v1.1Zm0-1.3V568c1.2-.7,2.5-1.4,3.9-2.2a.447.447,0,0,1,.4.8c-1.4.9-2.9,1.7-4.3,2.5Zm0-1.7c1.7-.9,3.5-2,5.4-3a.447.447,0,0,0-.4-.8c-1.7,1-3.4,1.9-4.9,2.8v1Zm0-1.2c1.9-1.1,4-2.3,6.1-3.6a.447.447,0,1,0-.4-.8c-1.9,1.1-3.8,2.3-5.6,3.3v1.1Zm0-1.2v-1.1c2.1-1.3,4.2-2.5,6.1-3.7a.447.447,0,0,1,.4.8c-2,1.2-4.2,2.6-6.5,4Zm0-1.5v-1.1c2.3-1.4,4.5-2.8,6.6-4.1a.447.447,0,1,1,.4.8c-2.1,1.4-4.6,2.9-7,4.4Zm0-1.9c2.6-1.7,5.2-3.3,7.6-4.8a.43.43,0,0,0-.5-.7c-2.2,1.4-4.6,2.9-7.1,4.5v1Zm0-1.5c2.9-1.9,5.7-3.7,7.8-5a.43.43,0,0,0-.5-.7c-2.5,1.6-4.9,3.1-7.3,4.7v1Zm0-1.9c2.6-1.6,5.4-3.3,7.9-4.8a.447.447,0,0,0-.4-.8c-2.4,1.4-5,3-7.5,4.5v1.1Zm0-1.6v-1.1c2.5-1.6,5.2-3.1,7.5-4.5a.447.447,0,0,1,.4.8c-2.4,1.4-5.2,3.1-7.9,4.8Zm0-1.2v-1.1l.7-.4c2.4-1.5,4.7-3,6.8-4.2a.447.447,0,0,1,.4.8c-2.1,1.3-4.4,2.7-6.8,4.2a4.128,4.128,0,0,1-1.1.7Zm0-1.5v-1.1c2.6-1.5,5.2-3,7.4-4.3a.447.447,0,1,1,.4.8c-2.3,1.4-5,3-7.8,4.6Zm0-1.2v-1.1c2.7-1.6,5.3-3.1,7.3-4.3a.447.447,0,0,1,.4.8c-2,1.3-4.8,2.9-7.7,4.6Zm0-1.4c1.1-.6,2.1-1.3,3.1-1.9,1.8-1.1,3.5-2.1,4.5-2.7a.447.447,0,1,0-.4-.8c-1.6,1-3,1.8-4.5,2.7-.9.5-1.7,1-2.6,1.6v1.1Zm0-1.5.7-.5c2.5-1.6,4.9-3.1,6.7-4.1a.447.447,0,0,0-.4-.8c-1.8,1.1-4.1,2.5-6.7,4.2l-.2.1v1.1Zm0-1.4.6-.4c2.6-1.6,4.9-3,6.6-4.1a.447.447,0,1,0-.4-.8c-1.8,1-4.1,2.5-6.6,4.1h-.1v1.2Zm0-1.2v-1.1c2.4-1.6,4.6-3.1,6.3-4.2.2-.1.5-.1.6.1s.1.5-.1.6a79.152,79.152,0,0,1-6.8,4.6Zm0-1.5v-1.1c2.3-1.5,4.3-2.9,5.9-4,.2-.1.5-.1.6.1s.1.5-.1.6c-1.8,1.2-4,2.7-6.4,4.4Zm0-1.5V543c2-1.4,3.9-2.6,5.5-3.7.2-.1.5-.1.6.1s.1.5-.1.6c-1.6,1.2-3.7,2.6-6,4.2Zm0-1.7c2.1-1.4,4-2.7,5.5-3.7a.43.43,0,0,0-.5-.7c-1.4,1-3.1,2.1-4.9,3.3v1.1Zm0-1.7c1.6-1,3.3-1.9,5-2.9a.447.447,0,0,0-.4-.8c-1.6.9-3.1,1.8-4.6,2.6v1.1Zm0-1.7V538c1.3-.8,2.6-1.5,4-2.3a.447.447,0,0,1,.4.8c-1.5.9-3,1.8-4.4,2.6Zm0-1.8v-1.1c1.3-.8,2.3-1.5,3.1-2,.2-.1.5-.1.6.1s.1.5-.1.6c-.8.6-2.1,1.4-3.6,2.4Zm0-1.8c1.2-.7,2.1-1.3,2.9-1.8a.377.377,0,0,0,.1-.6c-.2-.2-.4-.3-.6-.1q-.9.6-2.4,1.5v1Zm0-1.3c.8-.5,1.6-.9,2.3-1.3a.447.447,0,1,0-.4-.8c-.5.3-1.2.7-1.8,1v1.1Zm0-1.7v-1.1c.3-.2.7-.4,1-.6a.4.4,0,0,1,.6.2.481.481,0,0,1-.2.6c-.4.3-.9.6-1.4.9Zm0-1.4a4.354,4.354,0,0,1,.7-.4.447.447,0,0,0-.4-.8l-.2.1v1.1Zm0-1.1v-.9a.215.215,0,0,1,.2.2c.2.2.1.5-.2.7Zm-.7,42.6a.4.4,0,0,1,.6.2v.4c0,.1-.1.2-.2.3-1.5.9-2.9,1.7-4.3,2.5v-1.1c1.3-.8,2.6-1.5,3.9-2.3Zm.7-43.5v.9c-1.3.7-2.8,1.6-4.5,2.6v-1.1c1.6-.9,3-1.7,4.1-2.4Zm0,.9c-1.3.8-2.8,1.7-4.5,2.8v1.1c1.7-1,3.2-2,4.5-2.8V530Zm0,1.4c-1.3.8-2.9,1.7-4.5,2.7v1.1c1.6-1,3.2-1.9,4.5-2.7v-1.1Zm0,1.7v1.1q-2.1,1.2-4.5,2.7v-1.1c1.6-1,3.2-1.9,4.5-2.7Zm0,1.3v1.1c-1.3.8-2.8,1.8-4.5,2.9v-1.1c1.7-1.1,3.2-2,4.5-2.9Zm0,1.8c-1.3.8-2.8,1.9-4.5,3v1.1q2.55-1.65,4.5-3v-1.1Zm0,1.8c-1.5.9-3.1,1.8-4.5,2.7v1.1l.4-.3c1.3-.8,2.7-1.6,4.1-2.5v-1Zm0,1.7v1.1c-1.1.6-2.1,1.3-3.1,1.9-.5.3-.9.6-1.4.9v-1.1l.9-.6c1.2-.8,2.4-1.5,3.6-2.2Zm0,1.6v1.1l-1.1.7c-1.1.7-2.3,1.5-3.4,2.3v-1.1c1-.7,2-1.3,2.9-1.9.6-.4,1.1-.7,1.6-1.1Zm0,1.7-1,.6-3.6,2.4v1.1c1.4-.9,2.8-1.8,4.1-2.7l.4-.3V543Zm0,1.5c-.5.4-1,.7-1.6,1.1-1,.7-2,1.3-2.9,2v1.1c1.2-.8,2.3-1.6,3.5-2.3l1.1-.7v-1.2Zm0,1.6v1.1h0c-1.4.9-2.9,1.9-4.5,2.9V549c1.3-.9,2.7-1.7,4-2.6l.5-.3Zm0,1.2v1.1c-1.5.9-3,1.9-4.5,2.9v-1.1c1.6-1,3.1-2,4.5-2.9Zm0,1.4c-1.5.9-3,1.9-4.5,2.9v1.1c1.6-1,3.1-2,4.5-2.9v-1.1Zm0,1.6-4.5,2.7v1.1l4.5-2.7v-1.1Zm0,1.4v1.1l-.3.2c-1.4.8-2.8,1.7-4.2,2.5v-1.1c1.2-.7,2.5-1.5,3.7-2.2l.8-.5Zm0,1.2V554l-.7.4c-1.3.8-2.6,1.5-3.8,2.3v-1.1c1.1-.7,2.2-1.3,3.3-2a7.454,7.454,0,0,1,1.2-.7Zm0,1.4c-1.5,1-3.1,1.9-4.5,2.9v2.2c1.2-.8,2.6-1.6,4-2.5l.6-.3v-1.1a8.8,8.8,0,0,0-1,.6l-.5.3c.5-.3,1-.7,1.6-1v-1.1Zm0,2.8v1.1l-.7.5c-1.3.8-2.6,1.6-3.8,2.4V560q1.5-1.05,3.3-2.1c.4-.3.8-.5,1.2-.8Zm0,1.9v1.1l-2.9,1.9-1.6,1v-1.1l1.1-.7,3.4-2.2Zm0,1.5-.7.4-3.9,2.4v1.1c1.4-.9,2.9-1.8,4.4-2.8l.2-.1v-1Zm0,1.9c-1.5.9-3,1.9-4.5,2.8v1.1c1.5-.9,3-1.9,4.5-2.8v-1.1Zm0,1.5V565c-1.5.9-2.9,1.8-4.4,2.6l1.5-.9c.9-.5,1.8-1.1,2.8-1.6v1.1c-.8.5-1.6.9-2.3,1.4-.8.5-1.5.9-2.2,1.3v-2.2c1.6-1,3.1-1.9,4.6-2.8Zm0,2.5-1.2.7c-1.2.7-2.4,1.3-3.3,1.9v1.1c1.1-.6,2.3-1.3,3.8-2.1l.8-.4v-1.2Zm0,1.6q-1.8,1.05-3.3,1.8c-.4.2-.9.5-1.3.7v1.1c.5-.3,1.1-.6,1.7-.9.9-.5,1.8-1,2.8-1.6V568Zm0,1.3c-1.2.6-2.2,1.2-3.2,1.7-.5.3-.9.5-1.3.7v1a15.051,15.051,0,0,1,1.8-.9,25.17,25.17,0,0,0,2.7-1.5v-1Zm0,1.2q-2.4,1.35-4.5,2.7v1.1c1.4-.8,3-1.7,4.5-2.7v-1.1ZM665.6,531c1.3-.9,2.5-1.7,3.5-2.3a.43.43,0,0,0-.5-.7c-.8.6-1.8,1.2-2.9,2v1Zm0-1.9c.9-.6,1.7-1.1,2.3-1.6a.43.43,0,0,0-.5-.7,14.035,14.035,0,0,1-1.8,1.2v1.1Zm0-1.5v-1.1l.9-.6c.2-.1.5-.1.6.1s.1.5-.1.6a12.128,12.128,0,0,1-1.4,1Zm0-1.7.3-.2a.377.377,0,0,0,.1-.6.52.52,0,0,0-.4-.2v1Zm0,50-2.1,1.2V576l2.1-1.2v1.1Zm0-51.1v1c-.7.5-1.4.9-2.1,1.4v-1.1l1.8-1.2c.1,0,.2-.1.3-.1Zm0,1.7c-.7.5-1.4.9-2.1,1.4V529c.7-.4,1.4-.9,2.1-1.4v-1.1Zm0,1.5v1.1c-.6.4-1.3.9-2.1,1.4v-1.1c.8-.5,1.5-1,2.1-1.4Zm0,1.8c-.7.4-1.4.9-2.1,1.4v1.1a23.924,23.924,0,0,1,2.1-1.3v-1.2Zm0,1.7v1.1l-2.1,1.2v-1.1l2.1-1.2Zm0,1.3c-.7.4-1.4.9-2.1,1.3v1.1a23.924,23.924,0,0,1,2.1-1.3v-1.1Zm0,1.3v1.1a23.92,23.92,0,0,0-2.1,1.3v-1.1a23.953,23.953,0,0,1,2.1-1.3Zm0,1.7a23.92,23.92,0,0,0-2.1,1.3v1.1c.7-.4,1.4-.9,2.1-1.3v-1.1Zm0,1.5v1.1l-.3.2-1.8,1.2v-1.1l1.3-.8.8-.6Zm0,1.8-2.1,1.4v1.1l.2-.1,1.9-1.2v-1.2Zm0,1.7v1.1c-.7.4-1.4.9-2.1,1.3v-1.1a23.938,23.938,0,0,1,2.1-1.3Zm0,1.6c-.7.4-1.4.9-2.1,1.3v1.1c.7-.4,1.4-.9,2.1-1.3v-1.1Zm0,1.9v1.1c-.7.5-1.4.9-2.1,1.4v-1.1c.7-.4,1.4-.9,2.1-1.4Zm0,1.7c-.7.5-1.4.9-2.1,1.4v1.1c.7-.5,1.4-.9,2.1-1.4V546Zm0,1.6v1.1c-.7.5-1.4.9-2.1,1.4V549c.7-.5,1.4-1,2.1-1.4Zm0,1.5a23.924,23.924,0,0,1-2.1,1.3v1.1c.7-.4,1.4-.9,2.1-1.3v-1.1Zm0,1.1v1.1c-.7.4-1.4.9-2.1,1.3v-1.1a23.92,23.92,0,0,0,2.1-1.3Zm0,1.4c-.7.5-1.4.9-2.1,1.4v1.1c.7-.5,1.4-.9,2.1-1.4v-1.1Zm0,1.4v1.1a23.92,23.92,0,0,0-2.1,1.3v-1.1a23.938,23.938,0,0,1,2.1-1.3Zm0,1.4a23.92,23.92,0,0,0-2.1,1.3v1.1a23.92,23.92,0,0,0,2.1-1.3v-1.1Zm0,1.2v1.1c-.7.4-1.4.9-2.1,1.3v-1.1a23.953,23.953,0,0,1,2.1-1.3Zm0,1.6a23.924,23.924,0,0,1-2.1,1.3v2.2a19.272,19.272,0,0,1,2.1-1.3v-2.2Zm0,2.8v1.1a23.924,23.924,0,0,1-2.1,1.3v-1.1c.7-.4,1.4-.9,2.1-1.3Zm0,1.9-2.1,1.3v1.1l2.1-1.3v-1.1Zm0,1.5v1.1a23.924,23.924,0,0,1-2.1,1.3v-1.1a23.924,23.924,0,0,1,2.1-1.3Zm0,1.8-2.1,1.3v1.1l2.1-1.3v-1.1Zm0,1.4v2.2c-.8.5-1.6.9-2.1,1.2v-2.1l2.1-1.3Zm0,2.3q-1.2.75-2.1,1.2v1.1q.75-.45,2.1-1.2v-1.1Zm0,1.6v1.1c-.9.5-1.6.8-2.1,1.1v-1q.9-.45,2.1-1.2Zm0,1.2a17.8,17.8,0,0,1-2.1,1v1c.1,0,.1,0,.1-.1.4-.2,1.1-.5,1.9-.9v-1Zm0,1.5-2.1,1.2v1.1l2.1-1.2v-1.1Zm-2.1,5.6c.5-.3.9-.5,1.5-.8a.447.447,0,0,0-.4-.8l-1,.6v1Zm0-53c.5-.3,1-.6,1.4-.9a.43.43,0,0,0-.5-.7l-.9.6v1Zm0-1.3v-1.1c.2-.1.4,0,.6.2a.4.4,0,0,1-.2.6Zm0,52.7c-.6.4-1.2.7-1.8,1.1v-1.1a17.4,17.4,0,0,0,1.8-1.1v1.1Zm0-53.8v1.1a17.4,17.4,0,0,0-1.8,1.1v-1.1c.6-.4,1.2-.7,1.8-1.1Zm0,1.3a18.762,18.762,0,0,0-1.8,1.2V527l1.8-1.2v-1.1Zm0,1.4v1.1a17.387,17.387,0,0,1-1.8,1.1v-1.1a17.376,17.376,0,0,0,1.8-1.1Zm0,1.8-1.8,1.2v1.1l1.8-1.2v-1.1Zm0,1.5v1.1l-1.8,1.2v-1.1l1.8-1.2Zm0,1.8-1.8,1.2v1.1l1.8-1.2v-1.1Zm0,1.6v1.1c-.6.4-1.2.7-1.8,1.1v-1.1a17.4,17.4,0,0,1,1.8-1.1Zm0,1.3a17.387,17.387,0,0,1-1.8,1.1v1.1a17.387,17.387,0,0,1,1.8-1.1v-1.1Zm0,1.3v1.1c-.6.4-1.2.7-1.8,1.1v-1.1a17.387,17.387,0,0,1,1.8-1.1Zm0,1.7c-.6.4-1.2.7-1.8,1.1v1.1l.3-.2,1.5-.9v-1.1Zm0,1.6v1.1l-1.8,1.2v-1.1l1.8-1.2Zm0,1.8-.3.2-1.5,1v1.1l1.8-1.2v-1.1Zm0,1.6v1.1l-1.8,1.2v-1.1a9.394,9.394,0,0,1,1.8-1.2Zm0,1.6-1.8,1.2V546l1.8-1.2v-1.1Zm0,2v1.1l-1.8,1.2v-1.1l1.8-1.2Zm0,1.7-1.8,1.2v1.1l1.8-1.2v-1.1Zm0,1.6v1.1c-.5.3-1,.7-1.5,1a.367.367,0,0,1-.3.1v-1l1.8-1.2Zm0,1.4c-.6.4-1.1.7-1.7,1.1l-.1.1v.6c.1.2.4.2.6.1a8.344,8.344,0,0,0,1.2-.8v-1.1Zm0,1.2v1.1l-1,.6c-.2.1-.5.1-.6-.1s-.1-.5.1-.6a13.04,13.04,0,0,1,1.5-1Zm0,1.4c-.5.3-.9.6-1.4.9a.43.43,0,1,0,.5.7l.9-.6v-1Zm0,1.2v1.1l-.8.5a.447.447,0,0,1-.4-.8c.3-.2.8-.5,1.2-.8Zm0,1.4c-.4.3-.9.5-1.3.8a.447.447,0,1,0,.4.8l.8-.5v-1.1Zm0,1.2v1.1a9.211,9.211,0,0,1-.8.5c-.2.1-.5.1-.6-.1s-.1-.5.1-.6c.4-.3.9-.6,1.3-.9Zm0,1.7a14.61,14.61,0,0,0-1.3.9.377.377,0,0,0-.1.6c.1.2.3.2.5.2l-.4.2a.43.43,0,1,0,.5.7,3.507,3.507,0,0,1,.8-.5v-2.1Zm0,2.8v1.1a9.211,9.211,0,0,1-.8.5c-.2.1-.5.1-.6-.1s-.1-.5.1-.6a14.623,14.623,0,0,1,1.3-.9Zm0,1.9v1.1l-.8.5c-.2.1-.5.1-.6-.1s-.1-.5.1-.6l1.3-.9Zm0,1.5-1.3.9a.43.43,0,1,0,.5.7l.8-.5v-1.1Zm0,1.8v1.1l-1.8,1.1v-1.1l1.8-1.1Zm0,1.4-1.8,1.1v2.1c.6-.4,1-.6,1.3-.8a2.185,2.185,0,0,1,.5-.3v-2.1Zm0,2.2v1.1a.31.31,0,0,1-.2.1c-.3.2-.9.5-1.6,1v-1.1c.5-.3.8-.5,1.1-.7a5.72,5.72,0,0,0,.7-.4Zm0,1.5a5.9,5.9,0,0,1-.8.4l-1,.5v1.1a7.5,7.5,0,0,1,1.4-.8c.1-.1.3-.1.4-.2v-1Zm0,1.1v1c-.4.2-1,.6-1.8,1.1v-1.1a16.5,16.5,0,0,1,1.6-.9c.1,0,.1,0,.2-.1Zm0,1.7c-.6.4-1.2.7-1.8,1.1v1.1a17.4,17.4,0,0,0,1.8-1.1v-1.1Zm0,3.4a16.173,16.173,0,0,1-1.8,1v1.1c.5-.3,1.1-.6,1.8-1v-1.1Zm-1.8-54a3.038,3.038,0,0,1,.7-.5.43.43,0,0,0-.5-.7l-.2.1Zm0,54.5c-.2.1-.5.3-.7.4l-.9.6v-1.1l.5-.3c.4-.2.8-.5,1.2-.7v1.1Zm0-55.7v1.1a15.252,15.252,0,0,1-1.6,1.1v-1.1a9.058,9.058,0,0,0,1.6-1.1Zm0,1.9a14,14,0,0,0-1.6,1v1.1a8.635,8.635,0,0,0,1.6-1v-1.1Zm0,1.4V527c-.5.3-1,.7-1.6,1v-1.1c.6-.4,1.1-.7,1.6-1Zm0,1.4c-.5.3-1.1.7-1.6,1v1.1c.5-.3,1.1-.7,1.6-1v-1.1Zm0,1.7v1.1a14,14,0,0,1-1.6,1V530a14,14,0,0,0,1.6-1Zm0,1.6c-.5.3-1.1.7-1.6,1v1.1a14,14,0,0,1,1.6-1v-1.1Zm0,1.8v1.1c-.5.3-1.1.7-1.6,1v-1.1c.6-.4,1.1-.7,1.6-1Zm0,1.4a14,14,0,0,0-1.6,1v1.1a14,14,0,0,0,1.6-1v-1.1Zm0,1.4v1.1c-.5.3-1.1.7-1.6,1v-1.1a8.638,8.638,0,0,0,1.6-1Zm0,1.3c-.5.3-1.1.7-1.6,1v1.1c.5-.3,1.1-.7,1.6-1v-1.1Zm0,1.7v1.1c-.5.3-1.1.7-1.6,1v-1.1c.5-.3,1-.6,1.4-.9l.2-.1Zm0,1.6-1.6,1v1.1l1.6-1v-1.1Zm0,1.9v1.1l-1.6,1.1v-1.1l1.6-1.1Zm0,1.5c-.5.3-1.1.7-1.6,1v1.1c.5-.3,1.1-.7,1.6-1v-1.1Zm0,1.7V546a14,14,0,0,1-1.6,1v-1.1c.5-.3,1.1-.7,1.6-1Zm0,2a13.024,13.024,0,0,0-1.5,1c-.1,0-.1.1-.1.2v.5h0a.377.377,0,0,0,.6.1l1-.6v-1.2Zm0,1.7v1.1l-.2.1c-.2.1-.5.1-.6-.1s-.1-.5.1-.6l.7-.5Zm0,1.6v1c-.1,0-.3-.1-.3-.2-.1-.2-.1-.5.1-.6l.2-.2Zm0,1.4v.6h0q-.15-.45,0-.6Zm0,16v1.1l-1.6,1v-1.1l1.6-1Zm0,1.4-1.6,1v2.1c.6-.4,1.2-.7,1.6-1V569Zm0,2.2v1.1c-.5.3-1,.6-1.6,1v-1.1c.6-.4,1.2-.7,1.6-1Zm0,1.3c-.4.3-1,.6-1.6,1v1.1c.6-.4,1.2-.7,1.6-1v-1.1Zm0,1.2v1.1c-.5.3-1,.7-1.6,1.1v-1.1c.6-.4,1.2-.8,1.6-1.1Zm0,1.8c-.2.1-.5.3-.7.4l-.9.6v1.1c.4-.3.9-.6,1.4-.9l.2-.1v-1.1Zm0,3.3a4.051,4.051,0,0,1-.9.5c-.2.1-.5.3-.7.4v1.1a10.9,10.9,0,0,1,1.1-.6l.5-.3v-1.1Zm-1.6-10.9h0a.527.527,0,0,0,.2-.7c0-.1-.1-.1-.2-.2v.9Zm0-44.7c.3-.2.7-.5,1-.7a.43.43,0,0,0-.5-.7c-.2.1-.3.2-.5.3v1.1Zm0-1.2v-.9a.215.215,0,0,1,.2.2c.2.3.1.5-.2.7Zm0,57.3a14.035,14.035,0,0,0-1.8,1.2v-1.1a14.016,14.016,0,0,0,1.8-1.2v1.1Zm0-58.2v.9a17.387,17.387,0,0,1-1.8,1.1V522c.5-.3.9-.6,1.4-.9Zm0,1c-.6.4-1.2.9-1.8,1.3v1.1a20.283,20.283,0,0,0,1.8-1.3v-1.1Zm0,1.7v1.1a20.283,20.283,0,0,0-1.8,1.3V525l1.8-1.2Zm0,1.7c-.6.4-1.2.7-1.8,1.1v1.1c.6-.4,1.2-.7,1.8-1.1v-1.1Zm0,1.4V528l-1.8,1.2v-1.1l1.8-1.2Zm0,1.4-.6.4c-.4.3-.8.5-1.2.8v1.1c.5-.3,1.1-.7,1.7-1.1l.1-.1v-1.1Zm0,1.8v1.1c-.6.4-1.1.7-1.7,1.1l-.2.1v-1.1c.7-.5,1.3-.8,1.9-1.2Zm0,1.5-1.8,1.2v1.1l1.8-1.2v-1.1Zm0,1.8v1.1l-1.8,1.2v-1.1l1.8-1.2Zm0,1.4c-.6.4-1.2.7-1.8,1.1V537c.6-.4,1.2-.7,1.8-1.1v-1.1Zm0,1.5v1.1l-1.8,1.2v-1.1l1.8-1.2Zm0,1.2a17.387,17.387,0,0,1-1.8,1.1v1.1l1.8-1.2v-1Zm0,1.7v1.1l-1.8,1.2v-1.1a9.393,9.393,0,0,1,1.8-1.2Zm0,1.6-1.8,1.2v1.1l1.8-1.2v-1.1Zm0,1.9v1.1l-1.8,1.2v-1.1l1.8-1.2Zm0,1.5-1.8,1.2v1.1h.1c.6-.4,1.2-.8,1.7-1.1v-1.2Zm0,1.7V547l-.5.3c-.2.1-.5.1-.6-.1s-.1-.5.1-.6a6.069,6.069,0,0,0,1-.7Zm0,2.1v.5a.454.454,0,0,1,0-.5Zm0,19.1v.8c-.6.4-1.3.8-1.8,1.2V568c.4-.3.9-.6,1.4-.9a.3.3,0,0,1,.4,0Zm0,1.5-.8.5-1.1.7v1.1l1.6-1,.3-.2v-1.1Zm0,1.4v2.1a9.391,9.391,0,0,0-1.8,1.2v-2.2l1.8-1.1Zm0,2.2-1.8,1.2v1.1a14.035,14.035,0,0,0,1.8-1.2v-1.1Zm0,1.3v1.1l-1.8,1.2v-1.1c.6-.4,1.3-.8,1.8-1.2Zm0,1.2-1.8,1.2V577c.7-.4,1.3-.9,1.8-1.2v-1.1Zm0,1.8c-.7.4-1.3.8-1.8,1.1v1.1q.75-.45,1.8-1.2v-1Zm0,3.2c-.5.3-.9.5-1.1.6-.1.1-.4.2-.7.4h-.1v1.1c.2-.1.4-.3.6-.4a5.915,5.915,0,0,0,.6-.4,3.217,3.217,0,0,1,.7-.4v-.9Zm-1.8-58.2.4-.2a.447.447,0,1,0-.4-.8v1Zm0,58.9a4.235,4.235,0,0,0-.7.5v-1.1a3.038,3.038,0,0,0,.7-.5v1.1Zm0-60v1.1l-.7.4v-1.1l.7-.4Zm0,1.6v1.1l-.7.4v-1.1l.7-.4Zm0,1.3c-.2.2-.5.3-.7.5v1.1c.2-.2.5-.3.7-.5v-1.1Zm0,1.7v1.1c-.2.2-.5.3-.7.5v-1.1c.2-.1.4-.3.7-.5Zm0,1.6-.7.4v1.1l.7-.4v-1.1Zm0,1.5v1.1l-.7.5v-1.1l.7-.5Zm0,1.3c-.2.2-.5.3-.7.5V531a3.038,3.038,0,0,0,.7-.5v-1.1Zm0,1.8v1.1l-.7.4v-1.1l.4-.2.3-.2Zm0,1.6v1.1l-.7.5v-1.1l.7-.5Zm0,1.7v1.1l-.7.5V535l.7-.5Zm0,1.4-.7.4v1.1l.7-.4v-1.1Zm0,1.5v1.1l-.7.5v-1.1l.7-.5Zm0,1.2-.7.5v1.1l.7-.5v-1.1Zm0,1.7v1.1l-.7.5v-1.1l.7-.5Zm0,1.7v1.1l-.7.5v-1.1l.7-.5Zm0,1.9V545l-.7.5v-1.1l.7-.5Zm0,1.6-.4.3a.377.377,0,0,0-.1.6c.1.2.4.3.5.2v-1.1Zm0,22.5v1.1l-.7.5v-1.1l.7-.5Zm0,1.7v1.1l-.7.4v-1.1l.7-.4Zm0,1.4-.7.4v2.2l.7-.5v-2.1Zm0,2.3v1.1l-.7.5v-1.1l.7-.5Zm0,1.3c-.2.2-.5.3-.7.5v1.1c.2-.2.5-.3.7-.5v-1.1Zm0,1.3v1.1l-.6.4-.2.1v-1.1a3.507,3.507,0,0,1,.8-.5Zm0,1.6v1.1a4.235,4.235,0,0,0-.7.5v-1.1a4.238,4.238,0,0,1,.7-.5Zm0,3.1a3.038,3.038,0,0,0-.7.5v1.1c.1,0,.1,0,.2-.1a2.185,2.185,0,0,0,.5-.3v-1.2Zm-.7-12.6.3-.2a.377.377,0,0,0,.1-.6c-.1-.2-.3-.2-.5-.2v1Zm0,12.8a3.808,3.808,0,0,0-.6.5l-.1.1v-1.2a9.211,9.211,0,0,0,.8-.5v1.1Zm0-60.1v1.1l-.8.5v-1.1l.8-.5Zm0,1.7v1.1l-.8.5V523l.8-.5Zm0,1.3c-.3.2-.5.3-.8.5v1.1c.3-.2.5-.3.8-.5v-1.1Zm0,1.7v1.1c-.3.2-.5.3-.8.5V526c.3-.2.5-.3.8-.5Zm0,1.5-.6.3-.2.1v1.1l.6-.4.1-.1v-1Zm0,1.6v1.1l-.8.5V529l.8-.4Zm0,1.3c-.3.2-.5.3-.8.5v1.1a5.583,5.583,0,0,1,.8-.5v-1.1Zm0,1.8v1.1c-.3.2-.5.3-.8.5v-1.1a2.177,2.177,0,0,1,.8-.5Zm0,1.6v1.1l-.8.5v-1.1l.8-.5Zm0,1.7v1.1l-.8.5v-1.1l.8-.5Zm0,1.4-.7.4h0v1.1l.5-.3.2-.1v-1.1Zm0,1.5V539l-.8.5v-1.1l.8-.5Zm0,1.2-.7.4h-.1v1.1l.6-.3.2-.1v-1.1Zm0,1.7v1.1l-.8.5v-1.1l.8-.5Zm0,1.7v1.1l-.8.5V543l.8-.5Zm0,1.9v1.1l-.6.4c-.1,0-.1.1-.2.1v-1.1l.8-.5Zm0,22.7v1.1l-.8.5v-1.1l.6-.4c0-.1.1-.1.2-.1Zm0,1.4-.8.5v1.1l.8-.5v-1.1Zm0,1.7v1.1l-.8.5v-1.1l.8-.5Zm0,1.3-.8.5v1.1l.3-.2-.3.2v1.1l.8-.5v-2.2Zm0,2.3v1.1l-.8.5v-1.1l.8-.5Zm0,1.4a5.583,5.583,0,0,1-.8.5v1.1c.3-.2.5-.3.8-.5v-1.1Zm0,1.3v1.1a5.583,5.583,0,0,1-.8.5V577l.4-.3.4-.2Zm0,1.6c-.3.2-.5.3-.8.5v1.1a9.211,9.211,0,0,0,.8-.5v-1.1Zm0,3.1-.3.2a.377.377,0,0,0-.1.6c.1.2.3.2.5.2v-1Zm-.8-60.4v-1c.2,0,.4,0,.5.2a.4.4,0,0,1-.2.6Zm0,60.7a11.479,11.479,0,0,1-1,.8c-.5.4-1,.8-1.6,1.2v-1.1c.4-.3.8-.6,1.1-.8.5-.3.8-.6,1.1-.8.1-.1.3-.2.5-.4v1.1Zm0-61.8v1c-.9.5-1.8,1.1-2.6,1.6v-1.1c.8-.5,1.6-1,2.5-1.5,0,.1,0,0,.1,0Zm0,1.6-1,.6c-.6.3-1.1.7-1.6,1V524c.7-.4,1.4-.9,2.1-1.3l.5-.3v-1.1Zm0,1.6V524c-.9.6-1.8,1.1-2.6,1.6v-1.1c.8-.5,1.7-1,2.6-1.6Zm0,1.4c-.9.6-1.8,1.2-2.6,1.7v1.1c.9-.6,1.8-1.1,2.6-1.7v-1.1Zm0,1.7v1.1c-.9.6-1.8,1.2-2.6,1.7v-1.1c.8-.5,1.7-1.1,2.6-1.7Zm0,1.4a22.606,22.606,0,0,0-2.6,1.6v1.1a22.606,22.606,0,0,0,2.6-1.6v-1.1Zm0,1.6v1.1c-.9.6-1.7,1.1-2.6,1.7v-1.1c.9-.5,1.7-1.1,2.6-1.7Zm0,1.4c-1,.7-1.9,1.3-2.6,1.8v1.2c.7-.6,1.6-1.2,2.6-1.9v-1.1Zm0,1.7v1.1c-1.1.7-2,1.3-2.6,1.7v-1.1c.7-.4,1.6-1,2.6-1.7Zm0,1.7c-.9.6-1.8,1.1-2.6,1.7v1.1c.9-.6,1.8-1.1,2.6-1.7v-1.1Zm0,1.7v1.1c-.9.6-1.8,1.1-2.6,1.7v-1.1a23.26,23.26,0,0,1,2.6-1.7Zm0,1.3c-.9.5-1.8,1.1-2.6,1.6v1.1c.9-.5,1.8-1.1,2.6-1.6v-1.1Zm0,1.6v1.1c-.9.6-1.8,1.2-2.6,1.7v-1.1c.8-.5,1.7-1.1,2.6-1.7Zm0,1.1c-.9.6-1.8,1.1-2.6,1.7v1.1c.8-.5,1.7-1.1,2.6-1.7v-1.1Zm0,1.7v1.1c-.9.6-1.8,1.2-2.6,1.7v-1.1c.8-.5,1.7-1.1,2.6-1.7Zm0,1.8-2.6,1.7h0v.7a.446.446,0,0,0,.5,0l2.1-1.4v-1Zm0,1.9V546c-.2,0-.4,0-.5-.2s-.1-.5.1-.6l.4-.3Zm0,22.6v1.1c-.9.6-1.7,1.1-2.3,1.5l-.3.2v-1.1c.7-.5,1.6-1.1,2.6-1.7Zm0,1.5a14.509,14.509,0,0,1-1.9,1.2c-.3.2-.5.3-.8.5v1.1c.4-.2.8-.5,1.3-.8.4-.3.9-.6,1.4-.9V569Zm0,1.6v1.1c-1.1.7-2,1.2-2.6,1.6v-1.1c.6-.3,1.5-.9,2.6-1.6Zm0,1.4-2.6,1.6h-.1v1.1l.5-.3,2.1-1.3V572Zm0,1.1c-.8.5-1.7,1.1-2.6,1.7v1.1c.9-.6,1.8-1.1,2.6-1.7v-1.1Zm0,1.2v1.1c-.8.5-1.7,1.1-2.6,1.7V576c.9-.6,1.8-1.1,2.6-1.7Zm0,1.4v1.1l-.4.2c-.7.5-1.5,1-2.3,1.5v-1.1l1.8-1.2a4.053,4.053,0,0,0,.9-.5Zm0,1.3c-.8.6-1.7,1.2-2.6,1.8v1.1c.9-.6,1.8-1.3,2.6-1.8V577Zm0,1.6a9.679,9.679,0,0,0-.9.7c-.4.3-.9.7-1.7,1.3v1.2l.1-.1a19.3,19.3,0,0,0,2.2-1.7l.3-.3v-1.1Zm-2.6-9.8c.5-.3.9-.6,1.4-.9a.43.43,0,0,0-.5-.7l-.9.6v1Zm0-1.7V566l.1-.1c.2-.1.5-.1.6.1s.1.5-.1.6l-.6.5Zm0-1.5v-1.1l.1-.1c.2-.1.5-.1.6.1s.1.5-.1.6l-.6.5Zm0-1.1a2.093,2.093,0,0,1,.6-.4.43.43,0,0,0-.5-.7l-.1.1v1Zm0-1.8v-1.1l.1-.1c.2-.1.5-.1.6.1s.1.5-.1.6c-.2.2-.5.3-.6.5Zm0-1.4v-2.1l.1-.1c.2-.1.5-.1.6.1s.1.5-.1.6l-.2.1c.1,0,.2.1.3.2.1.2.1.5-.1.6a3.393,3.393,0,0,1-.6.6Zm0-2.5v-1.1l.1-.1c.2-.1.5-.1.6.1s.1.5-.1.6l-.6.5Zm0-1.4v-1.1l.1-.1a.447.447,0,0,1,.4.8c-.1.1-.3.2-.5.4Zm0-1.2a2.09,2.09,0,0,0,.6-.4.43.43,0,0,0-.5-.7l-.1.1v1Zm0-1.5v-1.1c.2-.1.4,0,.6.2.1.2.1.5-.1.6l-.5.3Zm0-1.8v-.6h0q.15.45,0,.6Zm0-32.1a9.135,9.135,0,0,1,1.3-.8.43.43,0,0,0-.5-.7l-.8.5v1Zm0-1.2v-.8c.1,0,.1.1.2.2s0,.4-.2.6Zm0,63.8-.1.1c-.2.1-.5.1-.6-.1s-.1-.5.1-.6c.2-.2.4-.3.6-.5v1.1Zm0-64.6v.8c-.8.5-1.6,1-2.4,1.6V520a12.738,12.738,0,0,0,1.9-1.3,1.088,1.088,0,0,1,.5.1Zm0,.9-2.4,1.5v1.1l2.4-1.5v-1.1Zm0,1.6v1.1l-2.4,1.5v-1.1a25.157,25.157,0,0,1,2.4-1.5Zm0,1.6-2.4,1.5v1.1c.7-.5,1.5-.9,2.4-1.5v-1.1Zm0,1.7v1.1c-.2.2-.5.3-.7.5-.6.4-1.1.7-1.6,1v-1.1a10.536,10.536,0,0,0,1.1-.7,3.6,3.6,0,0,1,1.2-.8Zm0,1.5-2.4,1.5v1.1l2.4-1.5v-1.1Zm0,1.6v1.1l-2.4,1.5v-1.1a15.766,15.766,0,0,0,2.4-1.5Zm0,1.3c-.8.5-1.6,1-2.4,1.4v1.1c.8-.5,1.6-.9,2.4-1.4V529Zm0,1.7v1.1l-2.4,1.5v-1.1c.8-.4,1.6-1,2.4-1.5Zm0,1.5c-.3.3-.6.5-.9.8a9.515,9.515,0,0,1-1.5,1.1v1.1c1.1-.7,1.8-1.3,2.1-1.5.1-.1.2-.2.3-.2v-1.3Zm0,1.6v1.1c-.1.1-.2.2-.3.2-.3.2-1,.7-2.1,1.4v-1.1c.8-.5,1.3-.9,1.5-1a6.793,6.793,0,0,0,.9-.6Zm0,1.7-2.4,1.5v1.1l2.4-1.5v-1.1Zm0,1.6v1.1l-2.4,1.5v-1.1l2.4-1.5Zm0,1.3-2.4,1.5V541l2.4-1.5v-1.1Zm0,1.7v1.1h-.1l-1.1.8a8.344,8.344,0,0,0,1.2-.8v1.1c-.8.5-1.6,1.1-2.4,1.5v-1.1a4.354,4.354,0,0,1,.7-.4l-.7.4v-1.1l1.8-1.2.6-.3Zm0,2.8c-.8.5-1.6,1.1-2.4,1.5v1.1c.7-.5,1.5-1,2.4-1.6v-1Zm0,1.8v.7l-.1-.1a.377.377,0,0,1,.1-.6Zm0,7.7v.6l-.1.1a14.509,14.509,0,0,1-1.9,1.2l-.3.2v-1.1c.5-.3,1.1-.7,1.8-1.1,0-.2.3-.1.5.1Zm0,1.2h0a23.618,23.618,0,0,0-2,1.3h0l-.3.2v1.1c.3-.2.5-.3.8-.5h0a13.024,13.024,0,0,0,1.5-1v-1.1Zm0,1.5v1.1c-.6.4-1.1.7-1.6,1a3,3,0,0,1-.8.4v-1.1c.1-.1.2-.1.3-.2.5-.3,1.3-.7,2.1-1.2Zm0,1.2c-.8.5-1.5.9-2,1.2-.1.1-.2.1-.4.2v1.1a5.946,5.946,0,0,1,.8-.4c.5-.3,1-.6,1.6-.9v-1.2Zm0,1.4v1.1l-2,1.3-.4.3v-1.1l2.4-1.6Zm0,1.5-1.9,1.2-.5.3v1.1l.6-.4h0a2.182,2.182,0,0,1-.5.4v1.1q.75-.6,1.2-.9a6.823,6.823,0,0,1,.7-.5h0a1.755,1.755,0,0,0,.5-.4v-1.9Zm0,2.3v1.1l-.2.2c-.2.2-.4.3-.5.4-.3.3-.9.7-1.6,1.3v-1.1a4.871,4.871,0,0,0,1-.8,3.808,3.808,0,0,1,.6-.5,1.44,1.44,0,0,1,.7-.6Zm0,1.9c-.7.5-1.5,1-2.4,1.6v2.1q1.35-.9,2.4-1.5v-1.1l-.4.2c.1-.1.3-.2.4-.3v-1Zm0,2.6v1.1a25.157,25.157,0,0,1-2.4,1.5v-1.1l2.4-1.5Zm0,1.7a25.157,25.157,0,0,1-2.4,1.5v1.1l2.4-1.5v-1.1Zm0,1.5v1.1c-.7.5-1.3.8-1.5,1l-.8.5v-1.1l.4-.2c.3-.2.9-.6,1.8-1.1l.1-.2Zm0,1.5c-.7.5-1.3.9-1.6,1.1a9.211,9.211,0,0,0-.8.5v1.1a12.613,12.613,0,0,0,1.3-.9,9.818,9.818,0,0,0,1-.7v-1.1Zm0,1.6v1.1a9.211,9.211,0,0,1-.8.5c-.4.2-.9.6-1.6,1v-1.1c.5-.3.8-.5,1.1-.7a10.546,10.546,0,0,1,1.3-.8Zm0,1.3-1.1.7c-.3.2-.8.5-1.3.8v1.1c.8-.5,1.4-.8,1.8-1.1l.6-.4v-1.1Zm0,1.1-2.4,1.5v1.1h0l2.4-1.5v-1.1Zm0,1.3v1.1h0c-.8.5-1.5,1-2.3,1.5v-1.1l1.8-1.2.5-.3Zm0,1.5c-.8.5-1.6,1.1-2.4,1.6v1.1c.8-.6,1.6-1.1,2.4-1.6v-1.1Zm0,1.3v1.1c-.8.5-1.6,1.1-2.4,1.7v-1.1c.8-.6,1.6-1.2,2.4-1.7Zm0,1.8a2.185,2.185,0,0,1-.5.3c-.6.4-1.2.9-1.9,1.4v1.1c.9-.6,1.7-1.2,2.4-1.7v-1.1Zm-2.4-28,1.1-.8a.43.43,0,0,0-.5-.7l-.6.4v1.1Zm0-33.1.6-.4a.43.43,0,0,0-.5-.7h-.1Zm0-1.2v1.1c-.7.4-1.4.9-2.1,1.4v-1.1c.7-.4,1.4-.9,2.1-1.4Zm0,1.7c-.7.5-1.4.9-2.1,1.4v1.1c.7-.5,1.4-.9,2.1-1.4V520Zm0,1.2v1.1c-.7.4-1.4.9-2.1,1.3v-1.1c.7-.4,1.4-.9,2.1-1.3Zm0,1.6c-.4.3-.9.5-1.3.8l-.9.5v1.1a6.377,6.377,0,0,1,1.4-.8l.8-.5v-1.1Zm0,1.6v1.1c-.8.5-1.5.9-2.1,1.3v-1.1c.6-.4,1.3-.8,2.1-1.3Zm0,1.7a19.112,19.112,0,0,0-2.1,1.4v1.1c.6-.4,1.3-.9,2.1-1.4v-1.1Zm0,1.5v1.1c-.7.4-1.4.9-2.1,1.3v-1.1c.7-.4,1.4-.9,2.1-1.3Zm0,1.7c-.7.4-1.4.9-2.1,1.3v1.1c.7-.4,1.4-.9,2.1-1.3v-1.1Zm0,1.1v1.1c-.7.4-1.5.9-2.1,1.3v-1.1c.6-.4,1.3-.8,2.1-1.3Zm0,1.9c-.7.5-1.4.9-2.1,1.4v1.1c.7-.5,1.4-.9,2.1-1.4v-1.1Zm0,1.8v1.1c-.6.4-1.3.9-2.1,1.4v-1.1c.8-.6,1.5-1,2.1-1.4Zm0,1.4c-.6.4-1.3.8-2.1,1.4V538c.8-.5,1.5-1,2.1-1.4v-1.1Zm0,1.5v1.1c-.7.5-1.4.9-2.1,1.4v-1.1c.7-.5,1.4-1,2.1-1.4Zm0,1.6-2.1,1.3V541c.7-.4,1.4-.9,2.1-1.3v-1.1Zm0,1.3V541c-.7.5-1.5.9-2.1,1.3v-1.1a19.272,19.272,0,0,1,2.1-1.3Zm0,1.8c-.7.5-1.5.9-2.1,1.4v1.1c.7-.4,1.4-.9,2.1-1.4v-1.1Zm0,1.1v1.1c-.8.5-1.5,1-2.1,1.4v-1.1c.6-.4,1.3-.9,2.1-1.4Zm0,1.7c-.2.1-.4.3-.6.4a.43.43,0,1,0,.5.7h.1v-1.1Zm0,7v1.1c-.7.4-1.3.9-1.9,1.3l-.2.2V553a13.662,13.662,0,0,1,2.1-1.5Zm0,1.9-.2.1c-.5.3-1,.6-1.3.8-.1.1-.4.2-.7.4v1.1c.5-.3.9-.5,1.2-.7l.9-.6v-1.1Zm0,1.7v1.1c-.2.1-.3.2-.5.3-.4.2-.9.6-1.7,1v-1.1a8.763,8.763,0,0,1,1.2-.7,4.375,4.375,0,0,1,1-.6Zm0,1.4a9.247,9.247,0,0,1-1,.5,6.574,6.574,0,0,0-1.2.6v1.1a12.009,12.009,0,0,1,1.5-.8l.6-.3v-1.1Zm0,1.1v1.1a2.185,2.185,0,0,0-.5.3,11.436,11.436,0,0,0-1.6.8v-1.1a12.882,12.882,0,0,1,1.2-.6,4.381,4.381,0,0,0,.9-.5Zm0,1.7h0l-2.1,1.4v1.1c.7-.4,1.4-.9,2.1-1.4v-1.1Zm0,1.4v1.1c-.8.5-1.5,1-2.1,1.4v-1.1l2.1-1.4Zm0,1.2c-.4.3-.8.6-1.4,1-.2.2-.5.3-.7.5v1.1c.5-.3.9-.6,1.2-.8l.9-.6v-1.2Zm0,1.5v1.1c-.2.1-.4.3-.6.4-.5.3-1,.7-1.6,1v-1.1a8.647,8.647,0,0,0,1-.7c.5-.3.9-.5,1.2-.7Zm0,1.6c-.7.4-1.4.9-2.1,1.3v2.1c.8-.5,1.5-.9,2.1-1.3V565Zm0,2.6v1.1c-.7.4-1.4.9-2.1,1.4V569c.7-.5,1.4-1,2.1-1.4Zm0,1.6c-.7.4-1.4.9-2.1,1.4v1.1c.7-.5,1.4-.9,2.1-1.4v-1.1Zm0,1.5v1.1c-.5.3-1.3.8-2.1,1.3V572a15.282,15.282,0,0,1,2.1-1.3Zm0,1.6c-.5.4-1.3.8-2.1,1.4v1.1c.8-.5,1.5-1,2.1-1.4v-1.1Zm0,1.4v1.1c-.6.4-1.3.8-2.1,1.3V575c.8-.5,1.5-.9,2.1-1.3Zm0,1.4c-.6.4-1.3.8-2.1,1.3v1.1c.8-.5,1.5-.9,2.1-1.3v-1.1Zm0,1.1v1.1c-.7.4-1.4.9-2.1,1.4v-1.1c.6-.4,1.1-.7,1.7-1.1l.4-.3Zm0,1.4c-.7.5-1.4.9-2.1,1.4v1.1c.7-.5,1.4-.9,2.1-1.4v-1.1Zm0,1.5v1.1l-2.1,1.5v-1.1c.7-.6,1.4-1,2.1-1.5Zm0,1.4-2.1,1.5v1.1l2.1-1.5v-1.1Zm0,1.8v1.1l-1.2.9c-.2.1-.5.1-.6-.1s-.1-.5.1-.6a10.916,10.916,0,0,1,1.7-1.3Zm-2.1-30c.5-.3,1-.7,1.5-1a.377.377,0,0,0,.1-.6c-.2-.2-.4-.3-.6-.1l-1,.7v1Zm0-32.9,1-.6a.43.43,0,0,0-.5-.7l-.5.3Zm0-1.2v1.1c-.7.5-1.4.9-2.1,1.4v-1.1c.7-.4,1.4-.9,2.1-1.4Zm0,1.5c-.7.4-1.4.9-2.1,1.3v1.1a23.924,23.924,0,0,1,2.1-1.3v-1.1Zm0,1.7v1.1l-.6.4.6-.4v1.1c-.7.4-1.4.9-2.1,1.3v-2.2a23.923,23.923,0,0,0,2.1-1.3Zm0,2.7a23.924,23.924,0,0,1-2.1,1.3v1.1c.6-.4,1.3-.8,2.1-1.3v-1.1Zm0,1.6v1.1a14.435,14.435,0,0,1-2,1.1h-.1v-1q.75-.45,2.1-1.2Zm0,1.7a14.61,14.61,0,0,0-1.3.9c-.2.1-.4.3-.8.5v1.1a12.613,12.613,0,0,0,1.3-.9,5.583,5.583,0,0,1,.8-.5v-1.1Zm0,1.5V530c-.7.4-1.4.9-2.1,1.3v-1.1c.7-.4,1.3-.9,2.1-1.3Zm0,1.7c-.7.4-1.4.9-2.1,1.3V533a23.92,23.92,0,0,0,2.1-1.3v-1.1Zm0,1.1v1.1c-.8.5-1.5.9-2.1,1.3V533c.6-.4,1.3-.8,2.1-1.3Zm0,1.9-1.8,1.2-.2.2v1.1l.7-.5,1.3-.9v-1.1Zm0,1.9v1.1c-.6.4-1.3.9-2.1,1.4v-1.1a12.774,12.774,0,0,1,2.1-1.4Zm0,1.3a19.272,19.272,0,0,1-2.1,1.3v1.1c.7-.5,1.5-.9,2.1-1.3v-1.1Zm0,1.5v1.1a23.924,23.924,0,0,1-2.1,1.3v-1.1c.6-.4,1.3-.8,2.1-1.3Zm0,1.6-2.1,1.3h0v1.1l.5-.3,1.6-1v-1.1Zm0,1.3v1.1c-.8.5-1.5.9-2.1,1.3v-1.1c.6-.4,1.3-.8,2.1-1.3Zm0,1.8c-.8.5-1.5.9-2.1,1.3v1.1c.6-.4,1.3-.8,2.1-1.3V543Zm0,1.2v1.1c-.8.5-1.3.9-1.7,1.2a1.38,1.38,0,0,1-.4.3v-1.2a24.543,24.543,0,0,1,2.1-1.4Zm0,7v1.1l-.5.4c-.5.4-1.1.7-1.5,1v-1.1a8.647,8.647,0,0,0,1-.7,8.647,8.647,0,0,1,1-.7Zm0,1.7-.3.2-1.8,1.2v1.1c.7-.5,1.4-.9,2.1-1.4v-1.1Zm0,1.8v1.1l-.3.2c-.4.2-1,.6-1.8,1v-1.1c.4-.2.8-.5,1.3-.8.3-.1.5-.3.8-.4Zm0,1.7-.5.3c-.5.3-1,.6-1.6.9v1.1q1.2-.75,2.1-1.2h0v-1.1Zm0,1.2v1.1h0c-.6.3-1.2.7-2.1,1.2v-1.1c.6-.3,1.1-.6,1.6-.9h0a2.187,2.187,0,0,1,.5-.3Zm0,1.1a2.185,2.185,0,0,1-.5.3c-.5.3-1,.6-1.6.9V561q1.2-.75,2.1-1.2h0v-1.1Zm0,2v1.1c-.8.5-1.5,1-2.1,1.4V562c.6-.4,1.3-.8,2.1-1.3Zm0,1.4c-.8.5-1.5,1-2.1,1.4v1.1c.6-.4,1.3-.8,2.1-1.4v-1.1Zm0,1.3v1.1a19.272,19.272,0,0,1-2.1,1.3v-1.1c.7-.4,1.4-.9,2.1-1.3Zm0,1.4c-.6.4-1.3.9-2.1,1.4v1.1a19.112,19.112,0,0,0,2.1-1.4v-1.1Zm0,1.5v2.1l-2.1,1.3v-2.1c.7-.4,1.4-.9,2.1-1.3Zm0,2.6c-.7.4-1.4.9-2.1,1.3v1.1a23.924,23.924,0,0,1,2.1-1.3v-1.1Zm0,1.7v1.1c-.7.4-1.4.9-2.1,1.3v-1.1c.7-.4,1.4-.9,2.1-1.3Zm0,1.3a19.612,19.612,0,0,1-2.1,1.2v1.1q1.2-.75,2.1-1.2v-1.1Zm0,1.8v1.1c-.6.4-1.3.8-2.1,1.3V575a23.906,23.906,0,0,1,2.1-1.3Zm0,1.3-2.1,1.3v1.1c.7-.4,1.4-.9,2.1-1.3V575Zm0,1.4v1.1l-2.1,1.3h0v-1.1l2.1-1.3Zm0,1.2c-.7.4-1.4.9-2.1,1.3V580c.7-.4,1.4-.9,2.1-1.3v-1.1Zm0,1.4v1.1c-.7.5-1.4.9-2.1,1.4v-1.1c.7-.5,1.4-1,2.1-1.4Zm0,1.5c-.7.5-1.4.9-2.1,1.4V583c.7-.5,1.4-1,2.1-1.4v-1.1Zm0,1.5v1.1l-2.1,1.5v-1.1a13.656,13.656,0,0,1,2.1-1.5Zm-2.1-62.8,1.2-.8a.43.43,0,0,0-.5-.7l-.7.5Zm0-1.1v1.1c-1,.7-2.1,1.4-3.2,2.1v-1.1c1.1-.7,2.1-1.4,3.2-2.1Zm0,1.5c-1,.7-2.1,1.4-3.2,2.1v1.1c1-.7,2.1-1.4,3.2-2.1v-1.1Zm0,1.5c-1,.7-2.1,1.3-3.2,2v1.1c1.1-.7,2.1-1.3,3.2-2v-1.1Zm0,1.7V525c-1.1.7-2.1,1.4-3.2,2v-2.2c1.1-.7,2.1-1.4,3.2-2Zm0,2.6q-1.35.9-2.4,1.5a9.211,9.211,0,0,0-.8.5v1.1a7.6,7.6,0,0,1,1.3-.8c.5-.3,1.2-.7,1.9-1.2v-1.1Zm0,1.5c-.1.1-.2.1-.4.2a25.664,25.664,0,0,0-2.8,1.8V530a24.315,24.315,0,0,1,3.2-2v-1.1Zm0,1.9v1.1c-.8.5-1.9,1.3-3.2,2.1v-1c1.3-.9,2.4-1.7,3.2-2.2Zm0,1.4c-1.1.6-2.1,1.3-3.2,1.9v1.1c1-.6,2.1-1.3,3.2-1.9v-1.1Zm0,1.7c-1.1.6-2.1,1.3-3.2,1.9v1.1c1-.6,2.1-1.3,3.2-1.9v-1.1Zm0,1.1v1.1c-1.4.9-2.4,1.6-2.9,2l-.2.2v-1.2c.6-.5,1.7-1.2,3.1-2.1Zm0,1.9c-1.1.7-2.1,1.4-3.2,2V538c1-.6,2.1-1.3,3.2-2v-1.1Zm0,1.9v1.1c-1,.6-2,1.3-3.2,2v-1.1c1.1-.7,2.2-1.3,3.2-2Zm0,1.4c-1,.6-2,1.3-3.2,2v1.1c1.1-.7,2.2-1.4,3.2-2v-1.1Zm0,1.5c-1.1.7-2.2,1.4-3.2,2v1.1c1-.6,2-1.3,3.2-2v-1.1Zm0,1.5v1.1c-1.1.7-2.2,1.4-3.2,2v-1.1c1-.6,2.1-1.3,3.2-2Zm0,1.3v1.1c-1.6,1-2.7,1.7-3,1.9h-.1v-1.1c.5-.3,1.6-1,3.1-1.9Zm0,1.9a7.461,7.461,0,0,1-1.2.7.43.43,0,1,0,.5.7,4.354,4.354,0,0,1,.7-.4v-1Zm0,1.3v1.2h0a2.649,2.649,0,0,0-.6.5c-.2.1-.5.1-.6-.1s-.1-.5.1-.6a5.915,5.915,0,0,0,.6-.4,1.381,1.381,0,0,0,.4-.3c-.1-.2,0-.3.1-.3Zm0,6.9v1.1l-.5.3c-.2.1-.5.1-.6-.1s-.1-.5.1-.6a3.593,3.593,0,0,1,1-.7Zm0,1.7v1.1a4.354,4.354,0,0,1-.7.4c-.2.1-.5.1-.6-.1s-.1-.5.1-.6c.4-.3.8-.5,1.2-.8Zm0,1.6-1.2.7a.447.447,0,1,0,.4.8l.7-.4v-1.1Zm0,1.7v1.1l-.7.4a.447.447,0,1,1-.4-.8l1.1-.7Zm0,1.2a7.461,7.461,0,0,0-1.2.7.447.447,0,1,0,.4.8c.2-.1.5-.3.7-.4v-1.1Zm0,1.2v1.1a4.354,4.354,0,0,1-.7.4.447.447,0,1,1-.4-.8,4.13,4.13,0,0,1,1.1-.7Zm0,2v1.1a2.507,2.507,0,0,1-.7.4c-.2.1-.5.1-.6-.1s-.1-.5.1-.6c.3-.2.7-.5,1.2-.8Zm0,1.5c-.5.3-.9.6-1.2.8a.43.43,0,1,0,.5.7,4.354,4.354,0,0,1,.7-.4v-1.1Zm0,1.3v1.1a4.354,4.354,0,0,1-.7.4c-.2.1-.5.1-.6-.1s-.1-.5.1-.6a8.342,8.342,0,0,1,1.2-.8Zm0,1.4c-.4.2-.8.5-1.2.7a.1.1,0,0,0-.1.1c-.1,0-.1,0-.2.1-.5.3-1.1.7-1.7,1.1v1.1c.8-.5,1.5-.9,2.2-1.4a.1.1,0,0,0,.1-.1c.1,0,.1,0,.2-.1.2-.1.5-.3.7-.4v-1.1Zm0,1.4v2.1l-3.2,1.9v-2.2c1.1-.6,2.2-1.2,3.2-1.8Zm0,2.7c-1,.7-2.1,1.3-3.2,2v1.1c1.1-.7,2.1-1.3,3.2-2v-1.1Zm0,1.6V573c-1,.7-2.1,1.3-3.2,2v-1.1c1.1-.6,2.1-1.3,3.2-2Zm0,1.3v1.1c-1,.6-2,1.2-3.2,1.9v-1.1c1.1-.7,2.2-1.4,3.2-1.9Zm0,1.8c-.6.4-1.2.7-1.8,1.1-.5.3-.9.6-1.4.9v1.1c.6-.4,1.3-.8,1.9-1.2.4-.3.9-.5,1.3-.8V575Zm0,1.3v1.1l-2.4,1.5-.7.4v-1.1l.2-.1c1-.7,2-1.2,2.9-1.8Zm0,1.4v1.1c-1,.6-2,1.3-3.2,2v-1.1l2.7-1.7.5-.3Zm0,1.2c-1,.7-2.1,1.3-3.2,2V582a34.458,34.458,0,0,1,3.2-2v-1.1Zm0,1.4c-1.1.7-2.1,1.4-3.2,2.1v1.1c1-.7,2.1-1.4,3.2-2.1v-1.1Zm0,1.7v1.1c-.8.6-1.7,1.1-2.5,1.7-.2.1-.5.1-.6-.1h0v-.5a.1.1,0,0,1,.1-.1,22.761,22.761,0,0,1,3-2.1Zm0,1.4v1.1l-.2.2c-.2.1-.5.1-.6-.1s-.1-.5.1-.6l.7-.6Zm-3.2-15.6v-.5h0a.446.446,0,0,1,0,.5Zm0-47.8c.9-.6,1.8-1.2,2.6-1.8a.43.43,0,0,0-.5-.7l-2.1,1.4V520Zm0-1.2.8-.6a.43.43,0,0,0-.5-.7l-.3.2v1.1Zm2.5,30.2c-.2.1-.5.1-.6-.1s-.1-.5.1-.6h0c.2-.1.5-.1.6.1a.377.377,0,0,1-.1.6Zm-2.5-31.4v1.1c-.8.5-1.5,1-2.3,1.5v-1.1a15.018,15.018,0,0,0,2.3-1.5Zm0,1.3c-.8.5-1.5,1-2.3,1.5v1.1c.7-.5,1.5-1,2.3-1.5v-1.1Zm0,1.3c-.8.5-1.5,1-2.3,1.5v1.1c.7-.5,1.5-1,2.3-1.5v-1.1Zm0,1.5v1.1c-.8.5-1.5,1-2.3,1.5v-1.1c.8-.5,1.5-1,2.3-1.5Zm0,1.4c-.8.5-1.5,1-2.3,1.5v1.1c.8-.5,1.5-1,2.3-1.4v-1.2Zm0,1.7V527c-.8.5-1.6,1-2.3,1.5v-1.1a15.261,15.261,0,0,0,1.6-1.1c-.5.3-1.1.7-1.6,1v-1.1c.8-.5,1.5-.9,2.3-1.4Zm0,2.6c-.6.4-1.3.9-2.3,1.5V530c.9-.6,1.7-1.1,2.3-1.5v-1.1Zm0,1.4v1.1c-.4.2-.7.5-1.2.8a7.63,7.63,0,0,0-1.1.8v-1.1l.6-.4c.6-.5,1.2-.8,1.7-1.2Zm0,2.2c-.7.4-1.4.9-2.1,1.4l-.1.1v2l1.1-.7,1.2-.7V532l-.1.1.1-.1v-1Zm0,2.8v1.1l-.7.4-1.6,1v-1.1l1.1-.7,1.2-.7Zm0,1.3a1.381,1.381,0,0,0-.4.3,18.65,18.65,0,0,1-1.9,1.4v1.1c1-.7,1.8-1.3,2.3-1.7v-1.1Zm0,1.9v1.1c-.8.5-1.6,1-2.3,1.4v-1.1c.8-.5,1.5-.9,2.3-1.4Zm0,1.8c-.7.5-1.5.9-2.3,1.4v1.1c.8-.5,1.5-1,2.3-1.4v-1.1Zm0,1.4v1.1l-2.3,1.5v-1.1l2.3-1.5Zm0,1.5-.9.6-1.4.9v1.1l1.9-1.2.4-.3v-1.1Zm0,1.5v1.1c-.8.5-1.5.9-2.1,1.3-.1,0-.1.1-.2.1v-1.1c.8-.4,1.5-.9,2.3-1.4Zm0,1.3a1.381,1.381,0,0,0-.4.3h-.1a.43.43,0,1,0,.5.7h0v-1Zm0,22.8v.5c0,.1-.1.1-.2.1-.7.4-1.4.9-2.1,1.3v-1.1c.6-.3,1.1-.7,1.6-1a.574.574,0,0,1,.7.2Zm0,.9c-.7.5-1.5.9-2.3,1.4v1.1c.8-.5,1.5-1,2.3-1.4v-1.1Zm0,1.3v2.2l-2.3,1.4V572l2-1.2c-.6.4-1.3.8-2,1.2v-1.1c.8-.5,1.6-1,2.3-1.4Zm0,2.7c-.8.5-1.5,1-2.3,1.4v1.1l.2-.1c.7-.4,1.4-.9,2.1-1.3v-1.1Zm0,1.7V575l-.6.4-.9.6,1.5-.9v1.1l-1.8,1.1-.5.3v-2.2c.4-.2.8-.5,1.2-.7l1.1-.8Zm0,3.1c-.7.5-1.5.9-2.3,1.4v1.1c.8-.5,1.5-.9,2.3-1.4V577Zm0,1.2v1.1c-.7.4-1.5.9-2.3,1.4v-1.1l2.3-1.4Zm0,1.5c-.8.5-1.5.9-2.3,1.4v1.1c.8-.5,1.5-1,2.3-1.4v-1.1Zm0,1.3v1.1c-.8.5-1.5,1-2.3,1.5v-1.1a15.022,15.022,0,0,1,2.3-1.5Zm0,1.4c-.8.5-1.5,1-2.3,1.5v.8a.446.446,0,0,0,.5,0l1.8-1.2v-1.1Zm0,1.8v.5a.446.446,0,0,1,0-.5Zm-2.3-16.3a.481.481,0,0,0,.2-.6c0-.1-.1-.1-.2-.2v.8Zm0-49.1.8-.5a.43.43,0,0,0-.5-.7l-.3.2Zm0-1.1v1.1c-.7.5-1.3.9-2,1.4V519c.7-.4,1.3-.9,2-1.3Zm0,1.5c-.7.4-1.3.9-2,1.3v1.1c.7-.4,1.3-.9,2-1.3v-1.1Zm0,1.2v1.1c-.7.5-1.4.9-2,1.3v-1.1a22.627,22.627,0,0,0,2-1.3Zm0,1.4a22.622,22.622,0,0,1-2,1.3v1.1c.6-.4,1.3-.9,2-1.3v-1.1Zm0,1.4v1.1c-.7.4-1.3.9-2,1.3v-1.1a22.631,22.631,0,0,1,2-1.3Zm0,1.3a22.636,22.636,0,0,0-2,1.3v1.1a22.636,22.636,0,0,0,2-1.3v-1.1Zm0,1.7v1.1a22.636,22.636,0,0,0-2,1.3v-1.1a13.735,13.735,0,0,0,2-1.3Zm0,1.2c-.2.2-.5.3-.7.5a5.671,5.671,0,0,1-1.3.8v1.1c.6-.4,1.1-.8,1.8-1.2l.2-.1v-1.1Zm0,1.5V530l-.4.3c-.5.3-1,.7-1.6,1v-1.1l1.1-.7.9-.6Zm0,1.4c-.6.4-1.3.9-2,1.3v1.1c.7-.5,1.4-.9,2-1.3v-1.1Zm0,2.2v2c-.7.4-1.3.8-2,1.2v-1.9c.7-.4,1.4-.9,2-1.3Zm0,2.6c-.7.4-1.3.8-2,1.2v1.1c.7-.4,1.3-.8,2-1.2v-1.1Zm0,1.8V538c-.5.4-1.2.8-1.8,1.3l-.2.1v-1.1c.8-.6,1.5-1,2-1.4Zm0,1.5c-.7.4-1.4.9-2,1.3v1.1c.6-.4,1.3-.8,2-1.3v-1.1Zm0,1.9v1.1c-.6.4-1.3.8-2,1.3v-1.1c.7-.5,1.4-.9,2-1.3Zm0,1.3-.8.5-1.1.7v1.1l1.6-1,.3-.2v-1.1Zm0,1.5v1.1a23.618,23.618,0,0,0-2,1.3v-1.1a22.613,22.613,0,0,0,2-1.3Zm0,1.5-.3.2a.377.377,0,0,0-.1.6c.1.2.3.2.5.2v-1Zm0,22.5v.8h0l-2,1.2V568l1.5-.9a.446.446,0,0,1,.5,0Zm0,1c-.7.4-1.3.8-2,1.2v1.1c.7-.4,1.3-.8,2-1.2v-1.1Zm0,1.5v1.1c-.7.4-1.3.8-2,1.2v-1.1c.7-.4,1.4-.8,2-1.2Zm0,1.3c-.7.4-1.3.8-2,1.2v1.1c.7-.4,1.3-.8,2-1.2v-1.1Zm0,1.1v1.1l-.8.5-1.2.7v-1.1l.7-.4,1.3-.8Zm0,1.7-.3.2c-.6.3-1.1.7-1.7,1V576c.7-.4,1.3-.8,2-1.2v-1.1Zm0,1.6v2.2l-2,1.2v-2.1a13.735,13.735,0,0,0,2-1.3Zm0,3.1c-.7.4-1.3.8-2,1.2v1.1c.7-.4,1.3-.8,2-1.2v-1.1Zm0,1.2v1.1l-2,1.2v-1.1l2-1.2Zm0,1.5c-.7.4-1.3.8-2,1.2v1.1c.7-.4,1.3-.8,2-1.2v-1.1Zm0,1.3v1.1c-.5.3-1,.7-1.5,1a.446.446,0,0,1-.5,0v-.8a13.735,13.735,0,0,0,2-1.3Zm0,1.5h0a.618.618,0,0,0-.2.7c0,.1.1.1.2.1v-.8Zm-2-65c.2-.2.5-.3.7-.5a.43.43,0,0,0-.5-.7l-.2.1Zm0-1.1v1.1l-.9.6v-1.1l.9-.6Zm0,1.2-.9.6v1.1l.9-.6V519Zm0,1.5v1.1l-.9.6v-1.1l.9-.6Zm0,1.2-.9.6v1.1l.9-.6v-1.1Zm0,1.4v1.1l-.9.6v-1.1l.9-.6Zm0,1.4-.9.6v1.1l.1-.1c.2-.2.5-.3.7-.5v-1.1Zm0,1.3v1.1l-.9.6v-1.1l.9-.6Zm0,1.7v1.1l-.9.6V528l.9-.5Zm0,1.2-.9.6v1.1l.9-.6v-1.1Zm0,1.5v1.1l-.9.6v-1.1l.9-.6Zm0,1.5-.9.6v1.1l.9-.6v-1.1Zm0,2.1v1.9a4.051,4.051,0,0,1-.9.5v-1.9l.9-.5Zm0,2.5v1.1a4.051,4.051,0,0,1-.9.5v-1.1a4.051,4.051,0,0,0,.9-.5Zm0,1.9v1.1l-.9.6v-1.1l.5-.4.4-.2Zm0,1.5-.9.6v1.1l.9-.6v-1.1Zm0,1.8v1.1l-.9.6v-1.1l.9-.6Zm0,1.4-.9.6v1.1l.9-.6v-1.1Zm0,1.5v1.1l-.2.1c-.2.1-.5.1-.6-.1h0V545c0-.1.1-.1.2-.2l.6-.4Zm0,23.6v1.1l-.9.5v-1.1l.9-.5Zm0,1.3-.9.5v1.1a4.051,4.051,0,0,1,.9-.5v-1.1Zm0,1.5v1.1l-.9.5v-1.1l.9-.5Zm0,1.2-.9.5v1.1l.9-.5V572Zm0,1.2v1.1l-.9.5v-1.1l.9-.5Zm0,1.7V576l-.9.5v-1.1l.9-.5Zm0,1.7v2.1l-.9.5v-2.1l.9-.5Zm0,3v1.1l-.9.5v-1.1l.9-.5Zm0,1.2-.9.5v1.1l.9-.5v-1.1Zm0,1.5v1.1l-.9.6v-1.1l.9-.6Zm0,1.4h0a.527.527,0,0,0-.2.7c0,.1.1.1.2.2v-.9Zm-.9-15.6.3-.2a.481.481,0,0,0,.2-.6.365.365,0,0,0-.5-.2v1Zm0-2.1v-.4c.1.2.1.3,0,.4Zm0-1.2v-.4a.3.3,0,0,1,0,.4Zm0-1.4V563a.3.3,0,0,1,0,.4Zm0-1.7v-.4a.3.3,0,0,1,0,.4Zm0-1.2V560a.446.446,0,0,1,0,.5Zm0-1.7v-.5h0a.446.446,0,0,1,0,.5Zm0-2.1v-.5h0a.454.454,0,0,1,0,.5Zm0-1.5v-.5h0a.446.446,0,0,1,0,.5Zm0-1.4v-.5h0a.446.446,0,0,1,0,.5Zm0-1.5v-.5h0c.2.1.1.3,0,.5Zm0-1.8V550h0a.446.446,0,0,1,0,.5Zm0-1.6v-.5a.446.446,0,0,1,0,.5Zm0-1.4V547a.446.446,0,0,1,0,.5Zm0-1.5a.3.3,0,0,0,0-.4Zm0-27.6v1.1l-.6.4v-1.1l.6-.4Zm0,1.2-.6.4v1.1l.6-.4v-1.1Zm0,1.5v1.1l-.6.4v-1.1l.6-.4Zm0,1.2-.6.4v1.1l.6-.4v-1.1Zm0,1.4v1.1l-.6.4v-1.1l.6-.4Zm0,1.3-.4.2-.2.1v1.1l.6-.4v-1Zm0,1.4v1.1l-.6.4v-1.1l.6-.4Zm0,1.6v1.1l-.6.4v-1.1l.6-.4Zm0,1.2c-.2.1-.4.3-.6.4v1.1c.2-.1.4-.3.6-.4v-1.1Zm0,1.6v1.1l-.6.4v-1.1l.6-.4Zm0,1.5-.6.4v1.1l.6-.4v-1.1Zm0,2.1v1.9l-.6.3v-1.8l.6-.4Zm0,2.5V538l-.6.3v-1.1l.6-.3Zm0,2V540l-.6.4v-1.1l.6-.4Zm0,1.3-.6.4v1.1l.6-.4v-1.1Zm0,1.9v1.1l-.6.4v-1.1l.6-.4Zm0,1.4-.6.4V545l.6-.4v-1.1Zm0,1.5v0Zm0,.6h0a.481.481,0,0,0-.6-.2v1.1l.4-.3c.1,0,.1-.1.2-.2v-.4Zm0,1.4v.5a.1.1,0,0,1-.1.1c-.1.1-.2.1-.3.2l-.1.1v-1.1c.2,0,.4,0,.5.2Zm0,1.4v.5a.1.1,0,0,1-.1.1l-.4.3v-1.1a.365.365,0,0,1,.5.2Zm0,1.6v.5a.1.1,0,0,1-.1.1l-.4.3v-1.1a.365.365,0,0,1,.5.2Zm0,1.8v.5a.1.1,0,0,1-.1.1l-.4.3v-1.1a.365.365,0,0,1,.5.2Zm0,1.5v.5a.1.1,0,0,1-.1.1l-.4.3v-1.1c.2,0,.4,0,.5.2Zm0,1.4v.5c0,.1-.1.1-.2.1l-.4.2v-1.1c.3.1.5.1.6.3Zm0,1.5v.5c0,.1-.1.1-.2.2l-.4.2V556a.445.445,0,0,1,.6.2Zm0,2.2v.5c0,.1-.1.1-.2.2l-.4.2v-1.1a.445.445,0,0,1,.6.2Zm0,1.6v.5c0,.1-.1.1-.2.2l-.4.2v-1.1a.445.445,0,0,1,.6.2Zm0,1.3v.4c0,.1-.1.1-.2.2l-.4.2V561a.6.6,0,0,1,.6.3Zm0,1.7v.4c0,.1-.1.1-.2.2l-.4.2v-1.1c.3,0,.5,0,.6.3Zm0,1.4v.4c0,.1-.1.1-.2.2l-.4.2v-1.1a.6.6,0,0,1,.6.3Zm0,1.2v.4a.215.215,0,0,1-.2.2l-.4.2v-1.1a.6.6,0,0,1,.6.3Zm0,1.5v1l-.6.3v-1.1l.4-.3.2.1Zm0,1.4v1.1l-.6.3v-1.1l.6-.3Zm0,1.4-.6.3v1.1l.6-.3v-1.1Zm0,1.5v1.1l-.6.3v-1.1l.6-.3Zm0,1.2-.6.3V574l.6-.3v-1.1Zm0,1.2v1.1l-.6.4v-1.1l.6-.4Zm0,1.6v1.1l-.6.4v-1.1l.6-.4Zm0,1.7v2.1l-.6.3v-2.1l.6-.3Zm0,3v1.1l-.6.3v-1.1l.6-.3Zm0,1.2-.6.3v1.1l.6-.3v-1.1Zm0,1.6V584l-.5.3h-.1v-1.1Zm-.5-64.1v1.1c-.6.4-1.1.7-1.7,1.1v-1.1a9.908,9.908,0,0,1,1.7-1.1Zm0,1.2a16.275,16.275,0,0,1-1.7,1.1v1.1l.3-.2c.4-.3.9-.6,1.3-.9V520Zm0,1.5v1.1c-.6.4-1.1.7-1.7,1.1v-1.1a16.285,16.285,0,0,1,1.7-1.1Zm0,1.2c-.5.3-.9.6-1.4.9l-.3.2v1.1l.8-.5.9-.6v-1.1Zm0,1.4v1.1l-.3.2c-.5.3-.9.6-1.4.9v-1.1a5.553,5.553,0,0,0,.8-.6,4.055,4.055,0,0,1,.9-.5Zm0,1.3a15.044,15.044,0,0,1-1.7,1v1.1c.5-.3,1.1-.7,1.7-1v-1.1Zm0,1.3v1.1l-1.7,1v-1.1l1.7-1Zm0,1.7-1.7,1v1.1l1.7-1v-1.1Zm0,1.2v1.1c-.6.4-1.2.8-1.7,1.1v-1.1c.5-.3,1.1-.7,1.7-1.1Zm0,1.6-1.7,1.1v1.1a16.275,16.275,0,0,1,1.7-1.1v-1.1Zm0,1.5v1.1l-1.7,1.1v-1.1a16.285,16.285,0,0,1,1.7-1.1Zm0,2.1-1.7,1.1v1.7c.5-.3,1.1-.7,1.7-1v-1.8Zm0,2.4v1.1c-.6.3-1.1.7-1.7,1v-1.1a15.063,15.063,0,0,0,1.7-1Zm0,2c-.5.4-1.1.7-1.7,1.1v1.1a16.275,16.275,0,0,1,1.7-1.1v-1.1Zm0,1.4v1.1c-.6.4-1.2.7-1.7,1v-1.1c.5-.3,1.1-.6,1.7-1Zm0,1.9-1.7,1v1.1l1.7-1v-1.1Zm0,1.3v1.1L637,546v-1.1l1.7-1.1Zm0,1.5h0c-.3.2-.5.3-.8.5h0a2.185,2.185,0,0,0-.5.3h0l-.4.3v1.1a7.009,7.009,0,0,1,.9-.6h0a2.185,2.185,0,0,1,.5-.3h0l.3-.2v-1.1Zm0,1.5v1.1l-.1.1c-.3.2-.7.5-1.3.9l-.2.2V548a5.338,5.338,0,0,0,1-.7c.1,0,.1-.1.2-.2s.2-.1.4-.3Zm0,1.4h0l-1.7,1v1.1l1.7-1.1v-1Zm0,1.6v1.1l-1.6,1h0v-1.1l1.6-1Zm0,1.8h0a15.044,15.044,0,0,1-1.7,1v1.1a15.044,15.044,0,0,1,1.7-1v-1.1Zm0,1.5v1.1a15.044,15.044,0,0,1-1.7,1v-1.1a15.054,15.054,0,0,0,1.7-1c-.1.1,0,.1,0,0Zm0,1.5h0c-.5.3-1.1.6-1.7,1v1.1l.1-.1a9.876,9.876,0,0,0,1.5-.9v-1.1Zm0,1.4v1.1c-.5.3-1,.6-1.6.9H637v-1.1c.6-.3,1.1-.6,1.7-.9Zm0,2.2v1.1c-.4.2-1,.6-1.6.9H637v-1.1a13.122,13.122,0,0,1,1.7-.9Zm0,1.6h0a14.678,14.678,0,0,1-1.7.9v1.1h.1a14.562,14.562,0,0,1,1.6-.9v-1.1Zm0,1.3v1.1a19.425,19.425,0,0,0-1.7,1V562a14.678,14.678,0,0,1,1.7-.9Zm0,1.6h0l-1.7,1v1.1l1.7-1v-1.1Zm0,1.5v1.1c-.7.4-1.2.7-1.7,1v-1.1c.7-.4,1.2-.7,1.7-1Zm0,1.2h0a15.044,15.044,0,0,1-1.7,1v1.1c.6-.3,1.1-.7,1.7-1v-1.1Zm0,2v1.1l-1.7,1v-1.1l1.7-1Zm0,1.5-1.7,1V571l1.7-1v-1.1Zm0,1.3v1.1c-.5.3-1.1.7-1.7,1v-1.1c.6-.3,1.1-.7,1.7-1Zm0,1.5c-.6.3-1.1.7-1.7,1v1.1l.3-.2c.4-.3.9-.5,1.3-.8v-1.1Zm0,1.2V574a15.054,15.054,0,0,0-1.7,1v-1.1a15.044,15.044,0,0,1,1.7-1Zm0,1.2-1.7,1v1.1l1.7-1v-1.1Zm0,1.7v1.1c-.6.3-1.1.7-1.7,1v-1.1c.6-.3,1.1-.7,1.7-1Zm0,1.7c-.6.3-1.1.7-1.7,1v2.1l1.7-1v-2.1Zm0,3v1.1c-.6.3-1.1.7-1.7,1v-1.1a15.044,15.044,0,0,1,1.7-1Zm0,1.2-1.7,1v1.1l1.7-1v-1.1Zm0,1.5v1.1a.365.365,0,0,1-.5-.2.4.4,0,0,1,.2-.6l.3-.3ZM637,519.1h0a.467.467,0,0,0,.1-.7.1.1,0,0,0-.1-.1Zm0-.8v.8l-4.2,2.7v-1.1c1.2-.8,2.4-1.6,3.7-2.4a.446.446,0,0,1,.5,0Zm0,1.5c-.5.3-1,.6-1.4.9-1.2.7-2.1,1.3-2.6,1.5a.1.1,0,0,0-.1.1v1.1a2.185,2.185,0,0,0,.5-.3,25.552,25.552,0,0,0,2.7-1.6l.9-.6v-1.1Zm0,1.3-.2.1c-1.6,1-2.8,1.8-3.4,2.1a1.628,1.628,0,0,1-.6.3v1.1a6.415,6.415,0,0,1,1-.6c.6-.3,1.7-1,3.2-2v-1Zm0,1.5v1.1q-2.25,1.5-4.2,2.7v-1.1l4.2-2.7Zm0,1.2v1.1c-1.7,1.1-3.1,2-3.8,2.4-.1.1-.2.1-.4.3v-1.1c.8-.5,2.3-1.5,4.2-2.7Zm0,1.3c-1.7,1.1-3.1,2-4.2,2.6v1.1c1-.6,2.5-1.5,4.2-2.6v-1.1Zm0,1.3c-1.7,1.1-3.2,2-4.2,2.5V530c.9-.5,2.4-1.4,4.2-2.5v-1.1Zm0,1.4v1.1c-1.2.8-2.4,1.5-3.5,2.2l-.7.4v-1.1l.2-.1c1.3-.8,2.6-1.6,4-2.5Zm0,1.7v1.1c-1.1.7-2.1,1.3-3,1.9l-1.1.7v-1.1l.6-.4c1.1-.7,2.3-1.5,3.5-2.2Zm0,1.3c-1,.7-1.8,1.3-2.2,1.6-.2.2-.5.4-1,.8-.3.2-.6.4-1,.7V535c.6-.4,1.1-.8,1.5-1.1a8.834,8.834,0,0,1,1.1-.8,9.19,9.19,0,0,1,1.6-1.2v-1.1Zm0,1.5c-1.2.8-2.6,1.7-3.9,2.6a.43.43,0,1,0,.5.7c1.2-.8,2.3-1.6,3.4-2.3v-1Zm0,1.5v1.1c-.8.5-1.6,1.1-2.4,1.7-.2.1-.5.1-.6-.1s-.1-.5.1-.6c1-.8,2-1.5,2.9-2.1Zm0,2.1c-.7.5-1.5,1-2.2,1.5a.377.377,0,0,0-.1.6h0a.3.3,0,0,0,0,.4.377.377,0,0,0,.6.1c.5-.3,1.1-.7,1.6-1v-1.6Zm0,2.3v1.1c-.7.4-1.3.8-1.9,1.2-.2.1-.5.1-.6-.1s-.1-.5.1-.6c.8-.6,1.6-1.1,2.4-1.6Zm0,2.2c-1.3.9-2.7,1.8-4.2,2.8v2.2a10.139,10.139,0,0,1,1.6-1,8.763,8.763,0,0,1,1.2-.7c.3-.1.8-.5,1.5-.9v-1.1c-.9.6-1.6,1-1.9,1.2h-.1a22.622,22.622,0,0,1,2-1.3v-1.2Zm0,3.1v1.1l-2.1,1.3-.1.1c-.2.1-.5.1-.6-.1s-.1-.5.1-.6l.1-.1,2.6-1.7Zm0,1.4V546c-.9.6-1.7,1.1-2.2,1.4-.2.1-.5.1-.6-.1s-.1-.5.1-.6l2.7-1.8Zm0,1.5-.8.5c-.9.6-1.5,1-1.9,1.2a.43.43,0,1,0,.5.7l1.9-1.2.3-.2v-1Zm0,1.6v1.1c-.6.4-1.3.9-2.2,1.5-.2.1-.5.1-.6-.1s-.1-.5.1-.6l2.4-1.6.3-.3Zm0,1.2-.5.3c-1.1.7-1.9,1.2-2.2,1.4a.43.43,0,1,0,.5.7c1.2-.7,1.9-1.2,2.2-1.4h0v-1Zm0,1.6v1.1l-2.2,1.4a.447.447,0,1,1-.4-.8l2.3-1.4.3-.3Zm0,1.8-.5.3c-.6.4-1.3.8-2.2,1.4a.43.43,0,1,0,.5.7c.6-.4,1.4-.9,2.2-1.4h0v-1Zm0,1.6v1.1h0c-.6.3-1.3.8-2.2,1.3a.447.447,0,1,1-.4-.8c.6-.4,1.3-.8,2.2-1.3l.4-.3Zm0,1.3-.4.2-2.3,1.4a.447.447,0,1,0,.4.8l2.2-1.3v-1.1Zm0,1.4V558c-.7.4-1.4.8-2.2,1.3a.4.4,0,0,1-.6-.2c-.1-.3-.1-.5.2-.6.8-.5,1.6-.9,2.3-1.3l.3-.3Zm0,2.2-.4.2c-.3.2-1.1.6-2.3,1.3a.447.447,0,1,0,.4.8c.4-.2,1.1-.6,2.2-1.3v-1Zm0,1.7v1.1c-1.2.7-1.9,1.1-2.2,1.3a.447.447,0,1,1-.4-.8c1.2-.7,2-1.2,2.3-1.3l.3-.3Zm0,1.2-.5.3c-.7.4-1.4.8-2.2,1.3a.447.447,0,1,0,.4.8c.7-.4,1.4-.8,2.2-1.3h.1V562Zm0,1.7v1.1h-.1a23.92,23.92,0,0,0-2.1,1.3.447.447,0,1,1-.4-.8,23.92,23.92,0,0,0,2.1-1.3l.5-.3Zm0,1.5-.6.3c-.7.4-1.4.9-2.1,1.3-.1.1-.2.1-.2.2a.367.367,0,0,0-.3.1l-1,.6v1.1l1.5-.9c.1-.1.2-.1.2-.2a.367.367,0,0,0,.3-.1c.7-.4,1.4-.9,2.1-1.3h.1v-1.1Zm0,1.2v1.1c-1.4.9-2.8,1.7-4.2,2.6V569c1.4-.9,2.8-1.8,4.2-2.6Zm0,1.9v1.1q-1.95,1.2-4.2,2.4v-1.1c1.4-.8,2.9-1.6,4.2-2.4Zm0,1.6c-1.3.7-2.6,1.5-3.8,2.3l-.3.2v1.1l.8-.5c1.2-.7,2.3-1.3,3.4-2v-1.1Zm0,1.3c-.7.4-1.4.8-2,1.2a23.92,23.92,0,0,0-2.1,1.3v1.1c.9-.5,1.7-1,2.6-1.5.5-.3,1-.6,1.6-.9v-1.2Zm0,1.5v1.1c-.7.4-1.4.9-2.2,1.3.7-.4,1.4-.8,2.2-1.3v1.1c-1.4.8-2.8,1.7-4.2,2.4v-2.1c1.3-.8,2.7-1.6,4-2.4l.2-.1Zm0,2.4c-1.4.9-2.8,1.8-4.2,2.6v1.1c1.3-.8,2.7-1.7,4.2-2.6v-1.1Zm0,1.7c-1.5.9-2.9,1.7-4.2,2.5v1.1c1.3-.8,2.7-1.6,4.2-2.5v-1.1Zm0,1.7v2.1c-1.3.8-2.5,1.5-3.7,2.2a.446.446,0,0,1-.5,0V581c1.4-.8,2.8-1.6,4.2-2.5Zm0,3c-.7.4-1.4.8-2,1.2a.447.447,0,1,0,.4.8c.5-.3,1-.6,1.6-.9v-1.1Zm0,1.2-.6.4a.447.447,0,0,0,.4.8l.2-.1Zm-4.2-62v1.1l-1.1.7v-1.1l1.1-.7Zm0,1.6a6.4,6.4,0,0,0-1.1.6V524a4.073,4.073,0,0,1,1.1-.6v-1.1Zm0,1.4v1.1a10.9,10.9,0,0,1-1.1.6v-1.1a3.581,3.581,0,0,0,1.1-.6Zm0,1.6c-.4.2-.7.5-1.1.7v1.1l.3-.2.8-.5v-1.1Zm0,1.2v1.1c-.3.2-.6.4-1.1.7v-1.1c.5-.3.8-.5,1.1-.7Zm0,1.3a10.916,10.916,0,0,0-1.1.6v1h0a9.247,9.247,0,0,0,1-.5v-1.1Zm0,1.2v1.1a1.329,1.329,0,0,1-.7.3c-.1,0-.2.1-.4.2v-1a10.93,10.93,0,0,1,1.1-.6Zm0,1.4-1.1.7v1.1l1.1-.7v-1.1Zm0,1.7v1.1l-1.1.7v-1.1l1.1-.7Zm0,1.8V535l-.3.2c-.2.1-.5.1-.6-.1s-.1-.5.1-.6a5.557,5.557,0,0,0,.8-.6Zm0,9.3v2.2l-.4.2c-.2.1-.5.1-.6-.1a.1.1,0,0,0-.1-.1v-.3c0-.1,0-.1.1-.1l-.1.1V544l1.1-.8Zm0,24.5v1.1l-1.1.7v-1.1l1.1-.7Zm0,1.3-1.1.7v1.1l1.1-.7V569Zm0,1.7v1.1l-1.1.6v-1.1l1.1-.6Zm0,1.6-1.1.6V574l1.1-.6v-1.1Zm0,1.4v1.1l-1.1.6v-1.1a10.91,10.91,0,0,0,1.1-.6Zm0,1.6c-.4.2-.7.4-1.1.6V578l.9-.5.1-.1v-2.1Zm0,2.4v1.1l-1.1.7v-1.1l1.1-.7Zm0,1.6c-.4.2-.7.4-1.1.6V581a10.9,10.9,0,0,1,1.1-.6v-1.1Zm0,1.7v1.7l-.1-.1a.446.446,0,0,1,0-.5l-.4.2a.471.471,0,0,1-.6-.1v-.7a.1.1,0,0,0,.1-.1,1.777,1.777,0,0,0,1-.4Zm-1-13.1c.2-.1.2-.4.1-.6a.1.1,0,0,0-.1-.1v.7Zm0-25.3v0Zm0-21.9v0Zm0-.3v.2c0,.1-.1.2-.2.3-.8.5-1.6,1.1-2.4,1.6v-1.1c.6-.4,1.2-.8,1.9-1.2.2-.1.5-.1.6.1a.1.1,0,0,0,.1.1Zm0,1c-.9.6-1.8,1.2-2.6,1.7v1.1c.8-.5,1.7-1.1,2.6-1.7v-1.1Zm0,1.5V524c-.7.4-1.6,1-2.6,1.6v-1.1c1-.6,1.9-1.2,2.6-1.6Zm0,1.4c-.7.4-1.6,1-2.6,1.6V527c1-.6,1.9-1.2,2.6-1.6v-1.1Zm0,1.7v1.1c-.9.6-1.8,1.2-2.6,1.7v-1.1a25.157,25.157,0,0,1,2.4-1.5l.2-.2Zm0,1.1c-.7.4-1.6,1-2.6,1.7v2a16.808,16.808,0,0,1,2.6-1.5v-1c-.1.1-.2.1-.3.2-.1,0-.1.1-.2.1l.5-.3v-1.2Zm0,2.4v1c-.6.3-1.5.9-2.6,1.6V531c1.2-.7,2.1-1.3,2.6-1.5Zm0,1.6c-1,.6-1.9,1.2-2.6,1.6v1.1c.7-.5,1.6-1,2.6-1.6v-1.1Zm0,1.7v1.1c-.9.6-1.8,1.1-2.6,1.7v-1.1a23.615,23.615,0,0,1,2.6-1.7Zm0,9.4v.4c0,.1-.1.1-.2.2h-.1c-.9.6-1.6,1.1-2.4,1.6v-1.1l1.8-1.2h.1a.521.521,0,0,1,.8.1Zm0,1.7a13.024,13.024,0,0,0-1.5,1,.43.43,0,1,0,.5.7l.9-.6v-1.1Zm0,1.2v.3c-.1-.1,0-.2,0-.3Zm0,22.1v.7a.1.1,0,0,0-.1.1c-.9.5-1.7,1-2.5,1.5v-1.1l2.1-1.2c.1-.2.3-.2.5,0Zm0,1.2c-.9.6-1.8,1.1-2.6,1.6v1.1c.9-.5,1.8-1.1,2.6-1.6v-1.1Zm0,1.3v1.1c-.9.6-1.8,1.1-2.6,1.6v-1.1c.8-.5,1.7-1.1,2.6-1.6Zm0,1.7-1.8,1-.8.5V574l1.3-.7,1.3-.8v-1.1Zm0,1.5V574c-.9.5-1.8,1-2.6,1.5v-1.1a24.341,24.341,0,0,0,2.6-1.5Zm0,1.4c-.9.5-1.8,1-2.6,1.5v1.1c.8-.5,1.7-1,2.6-1.5v-1.1Zm0,1.6V578c-1,.6-1.9,1.1-2.6,1.5v-2.1c.8-.5,1.7-1,2.6-1.5Zm0,2.5c-.9.6-1.8,1.1-2.6,1.6v1.1a.1.1,0,0,0,.1-.1c.8-.5,1.6-1,2.5-1.5v-1.1Zm0,1.6v1.1c-.4.2-.7.4-1.1.6a.447.447,0,0,1-.4-.8,9.877,9.877,0,0,1,1.5-.9Zm0,1.7c-.2.1-.2.4-.1.6a.1.1,0,0,0,.1.1v-.7Zm-2.6-38.9.3-.2a.377.377,0,0,0,.1-.6.758.758,0,0,0-.4-.2v1Zm0-21.4v1.1l-.7.5v-1.1l.7-.5Zm0,1.7v1.1l-.7.5v-1.1l.7-.5Zm0,1.4a3.038,3.038,0,0,0-.7.5v1.1a4.235,4.235,0,0,0,.7-.5v-1.1Zm0,1.5v1.1c-.2.2-.5.3-.7.5v-1.1a1.794,1.794,0,0,1,.7-.5Zm0,1.6v1.1a4.235,4.235,0,0,0-.7.5v-1.1c.2-.1.4-.3.7-.5Zm0,1.2-.7.5v2a4.235,4.235,0,0,0,.7-.5v-2Zm0,2.2v1.1c-.2.2-.5.3-.7.5v-1.1a4.235,4.235,0,0,1,.7-.5Zm0,1.7v1.1l-.7.5v-1.1l.7-.5Zm0,1.7v1.1h0c-.2.1-.5.1-.6-.1,0-.1-.1-.1-.1-.2V535c0-.1.1-.2.2-.3l.5-.3Zm0,7.3v1.1l-.7.5v-1.6h.1c.1-.3.4-.2.6,0Zm0,1.6v1.1l-.7.5v-1.1l.7-.5Zm0,25.1v1.1c-.2.1-.5.3-.7.4v-1.1a4.345,4.345,0,0,1,.7-.4Zm0,1.6v1.1l-.7.5v-1.1l.7-.5Zm0,1.3-.7.5v1.1l.7-.5v-1.1Zm0,1.6V574l-.7.4v-1.1l.7-.4Zm0,1.6v1.1l-.7.4v-1.1l.7-.4Zm0,1.3-.7.4v1.1l.7-.4v-1.1Zm0,1.6v2.1l-.7.4v-2.1l.7-.4Zm0,2.6v1.1c-.2,0-.4,0-.5-.2a.4.4,0,0,1,.2-.6l.3-.3Zm-.8-11.8v-1.1h0a.447.447,0,0,1,.4.8l-.4.3Zm0-32.4v0Zm0-13.9V523l-1.2.8v-1.1l1.2-.8Zm0,1.6-.8.5-.4.2v1.1a4.051,4.051,0,0,1,.9-.5l.3-.2v-1.1Zm0,1.5v1.1a4.051,4.051,0,0,1-.9.5l-.3.2v-1.1c.4-.2.8-.5,1.2-.7Zm0,1.4a8.344,8.344,0,0,0-1.2.8v1.1h.1a10.536,10.536,0,0,0,1.1-.7v-1.2Zm0,1.7v1.1a7.461,7.461,0,0,1-1.2.7v-1.1a7.459,7.459,0,0,0,1.2-.7Zm0,1.2c-.4.3-.8.5-1.2.8v2c.4-.3.8-.5,1.2-.8v-2Zm0,2.2v1.1c-.4.3-.8.5-1.2.8v-1.1c.5-.3.9-.6,1.2-.8Zm0,1.7a6.224,6.224,0,0,0-1.2.8v1.1c.3-.2.7-.5,1.2-.8v-1.1Zm0,1.9v0Zm0,.5c0-.1,0-.1-.1-.2a.377.377,0,0,0-.6-.1,2.185,2.185,0,0,0-.5.3v1.1c.1-.1.2-.1.4-.2s.4-.3.6-.4c.1-.1.2-.2.2-.3v-.2Zm0,6v1.6l-.5.3-.7.5v-1.6l1.2-.8Zm0,2.2-.6.4-.6.4v1.1l1.1-.8.1-.1v-1Zm0,23.3v1.1c-.4.2-.8.5-1.2.7v-1.1a7.459,7.459,0,0,0,1.2-.7Zm0,1.7c-.4.2-.8.5-1.2.7v1.1c.4-.2.8-.5,1.2-.7v-1.1Zm0,1.7v1.1l-1.2.7v-1.1l1.2-.7Zm0,1.3-1.2.7v1.1l.3-.2.9-.5v-1.1Zm0,1.5v1.1l-1.2.7V574l1.2-.7Zm0,1.6-1.2.7v1.1c.4-.2.8-.5,1.2-.7v-1.1Zm0,1.4v1.1c-.4.2-.8.5-1.2.7V577a7.458,7.458,0,0,1,1.2-.7Zm0,1.6c-.4.2-.8.5-1.2.7v1.1h.1a.446.446,0,0,0,0,.5.481.481,0,0,0,.6.2l.5-.3v-2.2Zm-1.2-10.5.6-.3a.447.447,0,1,0-.4-.8l-.1.1v1Zm0-1.6v-1.1l.1-.1a.447.447,0,0,1,.4.8l-.5.4Zm0-2v-1.1l.1-.1a.447.447,0,0,1,.4.8l-.5.4Zm0-1.4v-1.1l.1-.1a.447.447,0,0,1,.4.8l-.5.4Zm0-1.3.6-.4a.447.447,0,1,0-.4-.8l-.1.1v1.1Zm0-1.3v-1.1l.1-.1a.447.447,0,0,1,.4.8l-.5.4Zm0-1.9v-1.1l.1-.1a.447.447,0,0,1,.4.8l-.5.4Zm0-1.4v-2.1l.1-.1c.2-.1.5-.1.6.1s.1.5-.1.6l-.2.1c.1,0,.3.1.3.2.1.2.1.5-.1.6l-.6.6Zm0-2.6v-1.1l.1-.1c.2-.1.5-.1.6.1s.1.5-.1.6l-.6.5Zm0-1.6v-1.1l.1-.1c.2-.1.5-.1.6.1s.1.5-.1.6l-.6.5Zm0-1.5v-1.1l.1-.1c.2-.1.5-.1.6.1s.1.5-.1.6l-.6.5Zm0-1.6v-1.1l.1-.1c.2-.1.5-.1.6.1s.1.5-.1.6l-.6.5Zm0-1.2.6-.4a.43.43,0,0,0-.5-.7l-.1.1v1Zm0-6.5v-1.1c.2-.1.4,0,.6.2.1.2.1.5-.1.6l-.5.3Zm0-1.5v-.5h0A.446.446,0,0,1,627.2,540Zm0-17.4v1.1l-.7.4c-1.3.8-2.1,1.4-2.5,1.6a5.73,5.73,0,0,0-.7.4c-.3.2-.6.4-1,.7-.2.1-.5.1-.6-.1s-.1-.5.1-.6c.4-.3.7-.5,1-.7s.5-.4.7-.5c.4-.2,1.2-.8,2.4-1.5a5.669,5.669,0,0,0,1.3-.8Zm0,1.7c-1.9,1.2-3.2,2-3.6,2.2-.3.2-1,.6-1.9,1.1-.6.4-1.3.8-2.1,1.4v1.1c1-.7,1.9-1.2,2.6-1.7.9-.6,1.5-.9,1.8-1.1.4-.2,1.6-.9,3.2-1.9v-1.1Zm0,1.4-.2.1c-2.2,1.4-4.7,3-7.4,4.8v1.1c2.7-1.8,5.4-3.5,7.6-4.9v-1.1Zm0,1.5v1.1c-2.3,1.5-4.9,3.2-7.6,5v-1.1c2.6-1.7,5-3.3,7.1-4.7l.5-.3Zm0,1.7V530c-1.2.7-2.1,1.2-2.5,1.4a57.4,57.4,0,0,0-5.1,3.3v-1.1a47.912,47.912,0,0,1,4.7-3.1c.5-.2,1.5-.8,2.9-1.6Zm0,1.2v2a13.024,13.024,0,0,0-1.5,1c-1.8,1.2-3.9,2.7-6.1,4.2v-2.1c1.5-1,3-2,4.4-3a29.634,29.634,0,0,0,3.2-2.1Zm0,2.2c-1,.7-2.1,1.4-3.3,2.3-1.3.9-2.8,2-4.3,3v1.1c1.7-1.2,3.3-2.4,4.8-3.4,1-.7,1.9-1.3,2.8-1.9v-1.1Zm0,1.6a7.027,7.027,0,0,0-1,.7c-.8.5-3.3,2.3-6.5,4.6v1.1l.1-.1c3.4-2.4,6.1-4.4,7-5a2.185,2.185,0,0,1,.5-.3v-1Zm0,1.7-.2.1a1.381,1.381,0,0,0-.4.3h0c-.9.6-3.6,2.6-7,5v1.1l.1-.1c3.6-2.6,6.6-4.7,7.4-5.3h0v-1.1Zm0,3.8v.5l-.1.1c-2.8,1.9-5.3,3.6-7.4,5v-1c2.5-1.7,4.8-3.3,6.9-4.7.2-.1.5-.1.6.1Zm0,1v1.1c-2.5,1.7-5.1,3.4-7.6,5.1v-1.1c2.4-1.6,5-3.3,7.6-5.1Zm0,2c-2.6,1.7-5.2,3.4-7.6,5v1.8c2.7-1.9,5.4-3.7,7.6-5.1v-1.7Zm0,2.2c-2.1,1.4-4.8,3.2-7.6,5.1v1.1c2.7-1.8,5.4-3.6,7.6-5.1v-1.1Zm0,2.3V548c-2.6,1.7-5.2,3.4-7.6,4.9v-1.1c2.5-1.6,5.1-3.3,7.6-4.9Zm0,1.2v1.1l-.2.1c-2.3,1.6-4.9,3.4-7.4,5v-1.1c2.3-1.6,4.7-3.2,6.8-4.7l.8-.4Zm0,1.6v1.1c-2.7,1.7-5.2,3.3-7.6,4.8v-1.1c2.4-1.5,5-3.1,7.6-4.8Zm0,1.5c-2.6,1.7-5.2,3.4-7.6,4.9v1.1c2.2-1.5,4.8-3.2,7.6-4.9v-1.1Zm0,1.5c-2.5,1.6-5.1,3.3-7.6,4.9v1.1l.3-.2c2.3-1.5,4.9-3.1,7.3-4.7v-1.1Zm0,1.7c-2.2,1.5-4.6,3-6.7,4.4l-.8.5v1.8c2.3-1.4,4.9-3,7.6-4.7v-2Zm0,2.4v1.1c-2.3,1.4-4.8,3-7.1,4.4l-.5.3v-1.1c2.1-1.2,4.8-2.9,7.6-4.7Zm0,1.9v1.1c-2.5,1.5-5,3-7.1,4.2l-.5.3v-1.1h0c2.3-1.3,4.9-2.9,7.6-4.5Zm0,1.4v1.1c-2.4,1.4-4.7,2.7-6.7,3.9-.3.2-.6.3-.9.5v-1.1l.4-.2c2.2-1.3,4.7-2.7,7.2-4.2Zm0,1.2c-2,1.2-4.1,2.5-6.1,3.6l-1.5.9v1.1c.6-.4,1.3-.8,1.9-1.2,1.7-1,3.7-2.2,5.6-3.4v-1Zm0,1.4c-2,1.2-4.1,2.5-5.9,3.6-.6.4-1.1.7-1.6,1v1.1c.7-.4,1.4-.9,2.1-1.3,1.7-1.1,3.6-2.2,5.4-3.3v-1.1Zm0,2c-2,1.1-3.9,2.2-5.2,3-.8.5-1.6.9-2.3,1.3v1.1c.9-.5,1.8-1,2.8-1.6,1.8-1,3.3-1.9,4.8-2.7v-1.1Zm0,1.7v1.1c-1.3.7-2.6,1.5-4.3,2.4-1.2.7-2.3,1.3-3.3,1.9v-1.1c.9-.5,1.9-1.1,2.8-1.6,1.3-.7,3-1.7,4.8-2.7Zm0,1.4v1.1c-1.3.8-2.5,1.5-3.6,2.2-1.5,1-2.8,1.8-3.8,2.5a.367.367,0,0,1-.3.1v-1c.9-.6,2.1-1.4,3.5-2.3,1.4-.8,2.8-1.7,4.2-2.6Zm0,1.7v1.1c-.6.4-1.2.7-1.7,1.1-1.9,1.1-3.4,2.2-4.6,3-.2.1-.5.1-.6-.1s-.1-.5.1-.6c1.2-.8,2.8-1.8,4.7-3a15.939,15.939,0,0,1,2.1-1.5Zm0,1.7-1.1.7c-2.1,1.3-3.9,2.4-4.7,2.9a.447.447,0,1,0,.4.8c1.5-.9,3-1.9,4.8-2.9l.6-.4v-1.1Zm0,1.3-.2.1c-1.6,1-3,1.9-4.8,3a.43.43,0,1,0,.5.7c.7-.4,2.5-1.5,4.5-2.8v-1Zm0,1.5q-2.25,1.2-4.2,2.4a.447.447,0,1,0,.4.8c1.1-.6,2.4-1.3,3.7-2.1V574Zm0,1.6v1.1c-.9.5-1.7,1-2.5,1.4a.447.447,0,1,1-.4-.8c.9-.5,1.9-1.1,2.9-1.7Zm0,1.3V578a10.932,10.932,0,0,1-1.5.8.447.447,0,1,1-.4-.8,18.586,18.586,0,0,0,1.9-1.1Zm0,1.7-.6.3a.447.447,0,1,0,.4.8l.1-.1v-1Zm-7.5-34.8v-1.1c2.3-1.5,4.7-3.1,6.8-4.5.2-.1.5-.1.6.1s.1.5-.1.6C624.7,540.5,622.1,542.2,619.7,543.8Zm0-14.7v1.1l-.9.6c-.2.1-.5.1-.6-.1s-.1-.5.1-.6a7.1,7.1,0,0,1,1.4-1Zm0,1.5c-1.2.8-2.3,1.5-3.5,2.3a.43.43,0,1,0,.5.7c1-.7,2-1.3,3-2v-1Zm0,1.6v1.1l-4.5,3c-.2.1-.5.1-.6-.1s-.1-.5.1-.6c1.6-1.2,3.3-2.3,5-3.4Zm0,1.4v1.1c-1.4,1-3,2.1-4.7,3.3l-.8.6c-.2.1-.5.1-.6-.1s-.1-.5.1-.6l.8-.6c1.8-1.4,3.6-2.6,5.2-3.7Zm0,1.6c-2.3,1.5-4.6,3.1-6.8,4.6a.43.43,0,1,0,.5.7c.4-.2.7-.5,1.1-.7l-2.1,1.5a.43.43,0,1,0,.5.7c2.2-1.6,4.5-3.2,6.8-4.8v-2Zm0,2.4c-2.6,1.9-5.3,3.8-7.8,5.7-.2.2-.3.4-.1.6s.4.3.6.1c2.3-1.7,4.9-3.5,7.3-5.3v-1.1Zm0,1.7v1.1c-2.2,1.6-4.9,3.5-7.7,5.5-.2.1-.5.1-.6-.1s-.1-.5.1-.6c2.4-1.7,5.2-3.7,7.7-5.5l.5-.4Zm0,1.7v1.1c-2.4,1.7-5.1,3.7-7.9,5.7-.2.1-.5.1-.6-.1s-.1-.5.1-.6c2.5-1.8,5.3-3.8,8-5.7l.4-.4Zm0,1.7v1.1c-2.2,1.4-4.4,2.9-6.3,4.2l-1.7,1.1c-.2.1-.5.1-.6-.1s-.1-.5.1-.6l1.7-1.1c2.1-1.5,4.4-3,6.8-4.6Zm0,1.3v1.1l-1.2.8c-2.4,1.6-4.8,3.3-7,4.8-.2.1-.5.1-.6-.1s-.1-.5.1-.6c1.8-1.3,4.3-2.9,7-4.8l1.7-1.2Zm0,1.5a8.344,8.344,0,0,1-1.2.8c-2.8,1.8-5.3,3.5-7.4,4.9a.43.43,0,1,0,.5.7c2.1-1.3,4.6-3,7.4-4.9l.7-.5v-1Zm0,1.9c-.4.3-.9.6-1.3.9-2.7,1.8-5.2,3.4-7.3,4.6a.377.377,0,0,0-.1.6.52.52,0,0,0,.4.2l-.2.1a.43.43,0,1,0,.5.7c2.4-1.6,5.2-3.6,8-5.4v-1.7Zm0,2.4c-2.9,1.9-5.8,3.9-8.3,5.7a.43.43,0,1,0,.5.7c2.3-1.6,5.1-3.5,7.8-5.3v-1.1Zm0,2v1.1l-.5.3c-2.7,1.7-5.1,3.3-7.1,4.5-.2.1-.5.1-.6-.1s-.1-.5.1-.6c1.9-1.2,4.4-2.8,7.1-4.5l1-.7Zm0,1.5v1.1c-1.1.7-2.1,1.5-3.2,2.1.7-.4,1.4-.9,2.1-1.4.4-.2.7-.5,1.1-.7v1.1l-.6.4c-2.6,1.7-4.8,3.1-6.4,4.2-.2.1-.5.1-.6-.1s-.1-.5.1-.6a10.542,10.542,0,0,1,1.1-.7,3.507,3.507,0,0,1-.8.5c-.2.1-.5.1-.6-.1s-.1-.5.1-.6c2.1-1.5,4.9-3.3,7.7-5.2Zm0,2.8v1.1l-.3.2c-2.5,1.7-4.7,3.1-6.2,4.2-.2.1-.5.1-.6-.1s-.1-.5.1-.6c1.5-1.1,3.7-2.5,6.3-4.2l.7-.6Zm0,1.6-.2.1c-2.4,1.5-4.7,3-6.5,4.2a.43.43,0,1,0,.5.7c1.4-.9,3.6-2.3,6.2-4v-1Zm0,1.6c-2.7,1.7-4.8,3.1-6.2,4a.377.377,0,0,0-.1.6l.1.1a.367.367,0,0,0,.1.3.481.481,0,0,0,.6.2c1.3-.8,3.2-1.9,5.3-3.2l.2-.1v-1.9Zm0,2.2h0c-2.2,1.3-4.1,2.5-5.4,3.4a.43.43,0,1,0,.5.7c1.2-.7,2.9-1.8,5-3.1v-1Zm0,1.7v1.1c-1.8,1.1-3.4,1.9-4.5,2.5a.447.447,0,1,1-.4-.8c1.2-.7,2.9-1.6,4.9-2.8Zm0,1.3v1.1c-1.6.9-3,1.7-4,2.2a.447.447,0,1,1-.4-.8c1.1-.7,2.6-1.5,4.4-2.5Zm0,1.3v1.1c-1.2.7-2.3,1.4-3.2,2-.2.1-.5.1-.6-.1s-.1-.5.1-.6c1-.7,2.3-1.5,3.7-2.4Zm0,1.6c-1.1.7-2.1,1.4-3,1.9a.43.43,0,1,0,.5.7c.7-.5,1.6-1,2.5-1.6v-1Zm0,1.7c-.8.5-1.5.9-2.2,1.3a.447.447,0,0,0,.4.8,14.509,14.509,0,0,1,1.8-1v-1.1Zm0,1.6v1.1a4.051,4.051,0,0,1-.9.5.447.447,0,1,1-.4-.8,7.377,7.377,0,0,1,1.3-.8Zm0,2v1a.758.758,0,0,1-.4-.2c-.1-.2-.1-.5.1-.6C619.5,572.8,619.6,572.7,619.7,572.7Z" transform="translate(-1561 -754.396)"/></svg>