<svg xmlns="http://www.w3.org/2000/svg" xmlns:xlink="http://www.w3.org/1999/xlink" viewBox="8782.6 -459.596 99.4 68.7"><defs><style>.a{fill:#363636;opacity:0.44;}.b{fill:#fff;}.c{fill:#cb2228;}.d{opacity:0.49;}.d,.e{fill:url(#a);}.e{opacity:0.5;}.f{fill:#979797;}</style><radialGradient id="a" cx="4.98" cy="4.988" r="5.047" gradientUnits="userSpaceOnUse"><stop offset="0"/><stop offset="0.385" stop-color="#020000" stop-opacity="0.616"/><stop offset="0.523" stop-color="#090000" stop-opacity="0.478"/><stop offset="0.622" stop-color="#140000" stop-opacity="0.376"/><stop offset="0.702" stop-color="#250000" stop-opacity="0.298"/><stop offset="0.77" stop-color="#3b0000" stop-opacity="0.231"/><stop offset="0.831" stop-color="#570000" stop-opacity="0.169"/><stop offset="0.886" stop-color="#770100" stop-opacity="0.114"/><stop offset="0.936" stop-color="#9d0100" stop-opacity="0.063"/><stop offset="0.981" stop-color="#c60100" stop-opacity="0.02"/><stop offset="1" stop-color="#da0100" stop-opacity="0"/></radialGradient></defs><g transform="translate(3063 -1343.396)"><path class="a" d="M5812.4,952.5h-84.6a6.594,6.594,0,0,1-6.6-6.6V900.5a6.594,6.594,0,0,1,6.6-6.6h84.6a6.594,6.594,0,0,1,6.6,6.6v45.4A6.531,6.531,0,0,1,5812.4,952.5Z"/><path class="b" d="M5817.3,909.5v32.4c0,3.6-5,6.6-11.1,6.6h-75.5c-6.1,0-11.1-2.9-11.1-6.6V909.6"/><path class="c" d="M5719.6,909.6V896.5c0-3.6,5-6.6,11.1-6.6h75.5c6.1,0,11.1,2.9,11.1,6.6v12.9"/><circle class="d" cx="5" cy="5" r="5" transform="translate(5799.6 892.7)"/><circle class="e" cx="5" cy="5" r="5" transform="translate(5728.6 892.7)"/><path class="f" d="M5804.6,899.8h0a3.329,3.329,0,0,1-3.3-3.3v-9.4a3.329,3.329,0,0,1,3.3-3.3h0a3.329,3.329,0,0,1,3.3,3.3v9.4A3.329,3.329,0,0,1,5804.6,899.8Z"/><path class="f" d="M5733.6,899.8h0a3.329,3.329,0,0,1-3.3-3.3v-9.4a3.329,3.329,0,0,1,3.3-3.3h0a3.329,3.329,0,0,1,3.3,3.3v9.4A3.329,3.329,0,0,1,5733.6,899.8Z"/></g></svg>