<svg width="68" height="68" xmlns="http://www.w3.org/2000/svg" viewBox="-864.409 -237.041 67.469 67.544" class="youtube">
    <path class="a" d="M755.3,572.6a.447.447,0,0,1,.4.8,4.129,4.129,0,0,0-1.1.7V573l.7-.4Zm-.7-.2v-1.1l3-1.8a.447.447,0,0,1,.4.8c-1.1.8-2.3,1.4-3.4,2.1Zm0-1.4c1.4-.7,2.9-1.6,4.6-2.5a.447.447,0,1,0-.4-.8c-1.5.8-2.9,1.6-4.2,2.2V571Zm0-1.2c1.7-.9,3.6-2,5.7-3.2a.447.447,0,0,0-.4-.8c-1.8,1.1-3.6,2.1-5.2,3v1Zm0-1.6v-1.1l.9-.5c1.7-1,3.7-2,5.4-3a.447.447,0,1,1,.4.8c-2.1,1.2-3.8,2.1-5.4,3l-1.3.8Zm0-1.3v-1.1c2.1-1.2,4.5-2.6,6.9-4.1a.447.447,0,1,1,.4.8c-2.5,1.6-5.1,3.2-7.3,4.4Zm0-1.1v-1.1l1.5-.9c2.4-1.5,4.5-2.7,6-3.6a.447.447,0,1,1,.4.8q-3.6,2.1-6,3.6l-1.9,1.2Zm0-1.5c.8-.5,1.6-1,2.3-1.4,1.8-1.1,3.9-2.4,6.2-3.8a.447.447,0,0,0-.4-.8c-1.6,1-3.8,2.3-6.2,3.8l-1.8,1.1v1.1Zm0-1.8c.8-.5,1.7-1,2.4-1.5,2.2-1.4,4.4-2.8,6.5-4.1a.43.43,0,0,0-.5-.7c-2,1.3-4.2,2.7-6.5,4.1l-1.9,1.2v1Zm0-1.5c3.4-2.2,6.8-4.3,9.1-5.9a.43.43,0,0,0-.5-.7c-3,1.9-5.9,3.8-8.6,5.5V561Zm0-1.9V558c.5-.3,1.1-.7,1.7-1,2.3-1.4,4.8-2.9,7.1-4.3a.447.447,0,1,1,.4.8c-2.3,1.4-4.8,2.9-7.1,4.3-.7.4-1.4.9-2.1,1.3Zm0-1.7v-2.2c1-.6,1.9-1.2,2.9-1.8,2-1.3,4.1-2.6,5.9-3.7a.4.4,0,0,1,.6.2c.1.3.1.5-.2.6-1.9,1.1-3.9,2.4-5.9,3.7-.9.6-1.9,1.2-2.8,1.8.4-.2.8-.5,1.2-.7,2.3-1.4,4.7-2.9,7.1-4.3a.447.447,0,1,1,.4.8c-2.2,1.3-4.6,2.8-7.1,4.3a19.276,19.276,0,0,1-2.1,1.3Zm0-2.6v-1.1l1.5-.9c2.5-1.5,5-2.9,7.2-4.2a.447.447,0,0,1,.4.8c-2.3,1.3-4.8,2.7-7.2,4.2a15.718,15.718,0,0,1-1.9,1.2Zm0-1.2c.8-.4,1.5-.9,2.2-1.3,2.5-1.5,4.9-2.9,6.9-4a.447.447,0,0,0-.4-.8c-2,1.2-4.4,2.6-6.9,4.1-.6.3-1.2.7-1.8,1v1Zm0-1.4c1.8-1.1,3.5-2.1,5.2-3.1,1.4-.8,2.7-1.6,3.8-2.3a.447.447,0,1,0-.4-.8c-1.1.7-2.4,1.5-3.8,2.3-1.5.9-3.1,1.8-4.7,2.8v1.1Zm0-1.5c1-.6,1.9-1.2,2.8-1.8,2.2-1.4,4.2-2.7,5.9-3.7a.447.447,0,0,0-.4-.8c-1.6,1-3.7,2.3-5.9,3.7-.8.5-1.6,1-2.3,1.5v1.1Zm0-1.4c.9-.6,1.7-1.1,2.6-1.6,2.3-1.4,4.3-2.7,5.9-3.7a.447.447,0,0,0-.4-.8c-1.7,1-3.7,2.3-5.9,3.7-.7.4-1.4.9-2.1,1.3v1.1Zm0-1.1V547c.5-.3.9-.6,1.4-.9,2.3-1.5,4.5-3,6.3-4.2.2-.1.5-.1.6.1s.1.5-.1.6l-6.3,4.2c-.6.5-1.2.9-1.9,1.4Zm0-1.6v-1.1l.3-.2c2.7-1.9,5.2-3.5,7-4.8.2-.1.5-.1.6.1s.1.5-.1.6c-2.1,1.4-4.5,3.1-7,4.8l-.8.6Zm0-1.5V544l.4-.3c2.4-1.6,4.6-3.1,6.4-4.3.2-.1.5-.1.6.1s.1.5-.1.6c-1.8,1.2-4,2.7-6.4,4.3l-.9.7Zm0-1.7v-1.1c2.3-1.6,4.5-3,6.3-4.2.2-.1.5-.1.6.1s.1.5-.1.6c-1.9,1.3-4.3,2.9-6.8,4.6Zm0-1.8c2-1.2,4.2-2.5,6.4-3.7a.447.447,0,1,0-.4-.8c-2.1,1.2-4,2.3-5.9,3.5v1Zm0-1.7c1.9-1.1,3.8-2.3,5.7-3.4a.447.447,0,0,0-.4-.8c-1.8,1-3.6,2.1-5.3,3.1v1.1Zm0-1.7c2.1-1.3,3.8-2.5,4.9-3.2a.43.43,0,0,0-.5-.7c-1.1.7-2.7,1.7-4.4,2.9v1Zm0-1.8v-1.1c1.5-.9,2.7-1.7,3.7-2.4.2-.1.5-.1.6.1s.1.5-.1.6a37.907,37.907,0,0,1-4.2,2.8Zm0-1.4v-1.1c1.1-.7,2.2-1.3,3.1-1.8a.447.447,0,1,1,.4.8c-1,.6-2.2,1.3-3.5,2.1Zm0-1.7c1-.6,1.9-1.1,2.8-1.6a.447.447,0,0,0-.4-.8c-.7.4-1.5.9-2.3,1.3v1.1Zm0-1.4v-1.1c.5-.3,1.1-.6,1.5-.9a.447.447,0,0,1,.4.8,15.733,15.733,0,0,1-1.9,1.2Zm0-1.2a10,10,0,0,1,1.4-.8.447.447,0,1,0-.4-.8c-.3.2-.6.3-.9.5v1.1Zm0-1.8v-1.1a.52.52,0,0,1,.4.2c.1.2.1.5-.1.6Zm0,45.2c-2.6,1.5-5,3-7,4.2v-1.1c2-1.2,4.4-2.6,7-4.2v1.1Zm0-46.2V529c-1.5,1-3.4,2.2-5.5,3.6l-1.5.9v-1.1a8.782,8.782,0,0,1,1-.6c2.2-1.4,4.2-2.7,5.8-3.8.1-.1.1-.1.2-.1Zm0,1.8c-1.5.9-3.3,1.9-5.1,3-.6.4-1.2.7-1.8,1.1v1.1c.8-.5,1.5-.9,2.3-1.4,1.7-1,3.3-1.9,4.7-2.8v-1Zm0,1.1c-1.6,1-3.4,2.1-5.4,3.4-.5.3-1,.7-1.6,1v1.1a23.924,23.924,0,0,1,2.1-1.3c1.7-1.1,3.4-2.1,4.9-3.1v-1.1Zm0,1.4c-1.6.9-3.3,2-5.1,3.1-.6.4-1.3.8-1.9,1.2v1.1l2.4-1.5c1.6-1,3.1-1.9,4.6-2.8v-1.1Zm0,1.7V535c-1.3.8-2.7,1.6-4.1,2.5-.9.6-1.9,1.2-2.8,1.7v-1.1c.8-.5,1.6-1,2.3-1.4,1.6-1,3.2-1.9,4.6-2.8Zm0,1.4v1.1c-1,.6-2,1.3-3.1,2-1.2.8-2.5,1.6-3.9,2.5v-1.1c1.2-.7,2.3-1.5,3.4-2.2,1.3-.8,2.5-1.6,3.6-2.3Zm0,1.8v1.1c-1.3.9-2.8,1.8-4.3,2.8l-2.6,1.7v-1.1l2.1-1.4c1.7-1.1,3.3-2.1,4.8-3.1Zm0,1.7c-1.7,1-3.4,2.1-5,3.1-.7.4-1.3.9-2,1.3v1.1c.8-.5,1.6-1.1,2.5-1.6,1.5-.9,2.9-1.8,4.5-2.8v-1.1Zm0,1.7c-1.1.7-2.3,1.4-3.3,2.1-1.2.8-2.4,1.5-3.6,2.3V546c1.3-.9,2.7-1.7,4.1-2.6.9-.6,1.9-1.2,2.8-1.8v-1.1Zm0,1.8-.6.4c-2,1.4-4.2,2.8-6.3,4.2V548c2.2-1.5,4.6-3,6.8-4.5l.1-.1v-1.1Zm0,1.7v1.1c-2.2,1.5-4.6,3-6.9,4.5h-.1v-1.1c2.3-1.4,4.7-3,7-4.5Zm0,1.5v1.1c-1.9,1.3-3.9,2.6-5.8,3.9-.2.1-.5.1-.6-.1s-.1-.5.1-.6c2.1-1.4,4.2-2.9,6.3-4.3Zm0,1.5v1.1c-1.6,1.1-3.3,2.2-5,3.2-.2.1-.5.1-.6-.1s-.1-.5.1-.6c1.8-1.1,3.6-2.3,5.5-3.6Zm0,1.2q-2.4,1.5-5.1,3.3a.43.43,0,1,0,.5.7c1.5-1,3-2,4.6-2.9v-1.1Zm0,1.4c-1.6,1-3.1,2-4.7,3a.43.43,0,1,0,.5.7c1.4-.9,2.8-1.9,4.2-2.7v-1Zm0,1.5c-1.5.9-3,1.8-4.6,2.8a.447.447,0,1,0,.4.8c1.3-.8,2.7-1.6,4.1-2.5v-1.1Zm0,1.4v1.1c-1.3.8-2.7,1.6-4,2.4a.447.447,0,1,1-.4-.8c1.4-.9,2.9-1.8,4.4-2.7Zm0,1.2v1.1q-2.1,1.2-3.9,2.4a.447.447,0,0,1-.4-.8c1.3-.9,2.8-1.8,4.3-2.7Zm0,1.5c-1.5.9-3,1.9-4.4,2.8a.377.377,0,0,0-.1.6c.1.2.3.2.5.2l-.3.2a.43.43,0,1,0,.5.7c1.1-.7,2.4-1.6,3.8-2.4v-2.1Zm0,2.8v1.1c-1.4.9-2.7,1.7-3.8,2.4-.2.1-.5.1-.6-.1s-.1-.5.1-.6c1.3-.9,2.7-1.8,4.3-2.8Zm0,1.9V561l-1,.6-2.9,1.8c-.2.1-.5.1-.6-.1s-.1-.5.1-.6l2.9-1.8,1.5-1Zm0,1.5c-1.6,1-3.1,1.9-4.3,2.8a.43.43,0,1,0,.5.7c1.3-.8,2.6-1.7,3.8-2.4v-1.1Zm0,1.8c-1.7,1.1-3.2,2-4.4,2.7a.43.43,0,1,0,.5.7q2.1-1.35,3.9-2.4v-1Zm0,1.5v1.1l-2.3,1.4,1.6-.9.8-.4V567l-.3.2c-1.5.9-2.8,1.6-3.8,2.2a.447.447,0,1,1-.4-.8l.4-.2a.764.764,0,0,1-.5-.2.4.4,0,0,1,.2-.6,39.393,39.393,0,0,1,4.3-2.9Zm0,2.4c-2,1.1-3.6,2-4.6,2.6a.447.447,0,1,0,.4.8q1.5-.9,4.2-2.4v-1Zm0,1.7c-.4.2-.9.5-1.3.7-1.8,1-3.2,1.7-3.9,2.1a.447.447,0,1,0,.4.8c.8-.4,2.2-1.1,4-2.1a3.507,3.507,0,0,0,.8-.5v-1Zm0,1.2c-.5.3-1,.5-1.4.7l-3.4,1.7a16.516,16.516,0,0,0-2.2,1.3v1.1a25.758,25.758,0,0,1,2.5-1.5l3.4-1.7a9.288,9.288,0,0,1,1-.5V570Zm0,1.3c-2.6,1.5-5,2.9-7,4.1v1.1l.2-.1c1.9-1.2,4.3-2.6,6.8-4.1v-1Zm-6.9,8.5c.8-.4,1.9-1,3.2-1.8a.447.447,0,1,0-.4-.8q-1.5.9-2.7,1.5v1.1Zm0-13v0Zm0-3.3v0Zm0-1.7v0Zm0-1.2v0Zm0-28.9a5.553,5.553,0,0,0,.8-.6c2-1.3,3.9-2.5,5.3-3.6a.43.43,0,0,0-.5-.7c-1.4,1-3.2,2.2-5.3,3.5l-.3.2v1.2Zm0-1.6c1.7-1,3.4-2.2,5.2-3.4a.43.43,0,0,0-.5-.7c-1.6,1.1-3.2,2.1-4.7,3.1v1Zm0-1.7c1.3-.8,2.7-1.7,4.1-2.6a.43.43,0,0,0-.5-.7c-1.2.8-2.4,1.6-3.6,2.3v1Zm0-1.4v-1.1c1-.6,1.8-1.2,2.6-1.7.2-.1.5-.1.6.1s.1.5-.1.6c-1,.7-2,1.3-3.1,2.1Zm0-1.5v-1.1c.6-.4,1.1-.7,1.6-1a.447.447,0,1,1,.4.8,13.734,13.734,0,0,1-2,1.3Zm0-1.7c.2-.2.5-.3.7-.5a.43.43,0,0,0-.5-.7l-.2.1Zm0,54.4-.3.2c-1,.6-1.9,1.2-2.5,1.6v-1.1c.6-.4,1.3-.8,2.1-1.3.3-.2.5-.3.8-.5v1.1Zm0-55.5v1.1c-1,.7-1.9,1.3-2.8,1.9v-1.1c.9-.6,1.8-1.3,2.8-1.9Zm0,1.8c-.9.5-1.8,1.1-2.8,1.7v1.1c1-.6,1.9-1.1,2.8-1.7v-1.1Zm0,1.4V527c-.5.3-1.1.7-1.6,1l-1.2.8v-1.1l.7-.5a23.906,23.906,0,0,1,2.1-1.3Zm0,1.4c-.6.3-1.1.7-1.6,1-.4.3-.8.5-1.2.8v1.1c.5-.3,1.1-.7,1.7-1.1a10.536,10.536,0,0,0,1.1-.7v-1.1Zm0,1.7v1.1c-.9.6-1.8,1.2-2.7,1.7l-.2.1v-1.1c.9-.6,1.9-1.2,2.9-1.8Zm0,1.6c-.9.6-1.9,1.2-2.8,1.8v1.1c1-.6,1.9-1.2,2.8-1.8v-1.1Zm0,1.7v1.1c-.9.6-1.9,1.2-2.8,1.8v-1.1c.9-.6,1.8-1.2,2.8-1.8Zm0,1.5c-.9.6-1.9,1.1-2.8,1.7v1.1c1-.6,1.9-1.2,2.8-1.7v-1.1Zm0,1.4c-.9.6-1.9,1.2-2.8,1.8v1.1c.9-.6,1.9-1.2,2.8-1.8v-1.1Zm0,1.2v1.1c-1,.6-1.9,1.2-2.8,1.8v-1.1c.9-.6,1.8-1.2,2.8-1.8Zm0,1.7v1.1c-1,.6-1.9,1.2-2.8,1.8v-1.1c.9-.6,1.8-1.2,2.8-1.8Zm0,1.7c-.9.6-1.9,1.2-2.8,1.8v1.1c1-.6,1.9-1.2,2.8-1.8v-1.1Zm0,1.9v1.1c-.9.6-1.9,1.2-2.8,1.9v-1.1a27.493,27.493,0,0,1,2.8-1.9Zm0,1.5a27.493,27.493,0,0,0-2.8,1.9v1.1c.9-.6,1.9-1.2,2.8-1.9v-1.1Zm0,1.7V546a27.493,27.493,0,0,0-2.8,1.9v-1.1a27.483,27.483,0,0,1,2.8-1.9Zm0,2c-.7.4-1.3.9-2,1.3a.43.43,0,1,0,.5.7,13.024,13.024,0,0,0,1.5-1v-1Zm0,1.7v1.1c-.2.1-.4,0-.6-.2-.1-.2-.1-.5.1-.6l.5-.3Zm0,11.8v.3c0,.1-.1.2-.2.3-.9.6-1.8,1.1-2.5,1.6l-.2.1v-1.1c.6-.4,1.4-.9,2.1-1.4.2-.1.5-.1.6.1.1,0,.2,0,.2.1Zm0,1.1a.1.1,0,0,0-.1-.1.377.377,0,0,0-.6-.1l-.9.6c-.3.2-.5.3-.6.5-.1.1-.4.3-.6.5V564c.2-.1.3-.2.5-.3a5.553,5.553,0,0,0,.8-.6c.2-.1.3-.3.6-.4a7.009,7.009,0,0,1,.9-.6l.2-.2v-.4Zm0,1.7v.3a.215.215,0,0,1-.2.2c-.2.1-.4.3-.6.4h0c-.1.1-.3.2-.4.3h0a.5.5,0,1,1-.6-.8h0c.1-.1.3-.2.4-.3h0a5.925,5.925,0,0,1,.6-.4c.2-.1.5-.1.6.1l.2.2Zm0,3.3v.3c0,.1-.1.2-.2.3-.8.5-1.7,1.1-2.6,1.7v-1.1c.6-.4,1.3-.9,2.1-1.4.2-.1.5-.1.6.1l.1.1Zm0,7.2v1.1c-.8.5-1.8,1.2-2.8,1.9v-1.1a27.941,27.941,0,0,1,2.8-1.9Zm0,1.8-.3.2c-.9.6-1.8,1.1-2.5,1.6v1.1c.8-.5,1.7-1.1,2.8-1.8v-1.1Zm0,3.2-.5.3a6.944,6.944,0,0,0-1.5.9,4.451,4.451,0,0,0-.8.5v1.1c.1-.1.3-.2.4-.3h0c.4-.2.6-.4.8-.5s.8-.4,1.6-.9h.1v-1.1Zm-2.9-3.3h0a.618.618,0,0,0,.2-.7c0-.1-.1-.1-.2-.2v.9Zm0-5,2.4-1.5a.43.43,0,0,0-.5-.7l-1.9,1.2v1Zm0-3.2a.1.1,0,0,0,.1-.1l1.7-1.1a.43.43,0,0,0-.5-.7l-1.3.9v1Zm0-6.3c.1,0,.1,0,.1-.1.3-.2.7-.5,1-.7s.7-.5,1.2-.8a.43.43,0,0,0-.5-.7,8.344,8.344,0,0,0-1.2.8,1.612,1.612,0,0,1-.7.4v1.1Zm0-1.4v-1.1l.2-.1c.3-.2.6-.4,1.1-.7a.447.447,0,1,1,.4.8c-.3.2-.7.4-1.1.7-.1.2-.4.3-.6.4Zm0-1.3a5.583,5.583,0,0,0,.8-.5.43.43,0,0,0-.5-.7l-.4.2v1Zm0-34.2c.7-.5,1.5-1,2.2-1.5a.43.43,0,0,0-.5-.7c-.6.4-1.1.8-1.7,1.2v1Zm0-1.3c.4-.2.8-.5,1.2-.7a.447.447,0,0,0-.4-.8l-.7.4v1.1Zm0,57.3c-.7.4-1.1.7-1.4.9-.1.1-.3.2-.5.4v-1.2q.6-.45,1.8-1.2V580Zm0-58.4v1.1a17.387,17.387,0,0,1-1.8,1.1v-1.1a17.376,17.376,0,0,0,1.8-1.1Zm0,1.3-1.8,1.2v1.1l1.8-1.2v-1.1Zm0,1.7v1.1l-1.8,1.2v-1.1l1.8-1.2Zm0,1.5-1.3.8-.5.3v1.1l1-.6.8-.5v-1.1Zm0,1.6v1.1L743,530v-1.1l1.8-1.2Zm0,1.3a14.035,14.035,0,0,0-1.8,1.2v1.1l1.8-1.2V529Zm0,1.8v1.1a14.035,14.035,0,0,0-1.8,1.2V532l1.5-.9.3-.3Zm0,1.6-1.8,1.2v1.1l1.8-1.2v-1.1Zm0,1.7v1.1l-1.8,1.2v-1.1l1.8-1.2Zm0,1.4c-.6.4-1.2.7-1.8,1.1v1.1c.6-.4,1.2-.7,1.8-1.1v-1.1Zm0,1.5v1.1l-1.8,1.2v-1.1l1.8-1.2Zm0,1.2-1.8,1.2v1.1l1.8-1.2v-1.1Zm0,1.7V541l-1.8,1.2v-1.1l1.8-1.2Zm0,1.7-1.8,1.2v1.1l1.8-1.2v-1.1Zm0,1.9v1.1l-1.8,1.2v-1.1l1.8-1.2Zm0,1.5-1.8,1.2v1.1l1.8-1.2V545Zm0,1.7v1.1c-.5.3-.9.6-1.4.9a.454.454,0,0,1-.5,0V548a12.735,12.735,0,0,0,1.9-1.3Zm0,10.4v1.1a14.035,14.035,0,0,0-1.8,1.2v-2.1l1.1-.7c.2-.1.5-.1.6.1a.6.6,0,0,1,.1.4Zm0,1.3a5.583,5.583,0,0,1-.8.5.43.43,0,1,0,.5.7l.3-.2v-1Zm0,1.4v1.1a.365.365,0,0,1-.5-.2c-.1-.2-.1-.5.1-.6a1.379,1.379,0,0,0,.4-.3Zm0,1.7v1.1l-1.8,1.2v-1.1c.4-.3.9-.6,1.5-1l.3-.2Zm0,1.3h0a14.645,14.645,0,0,1-1.3.9.377.377,0,0,0-.1.6c.2.2.4.3.6.1a3.507,3.507,0,0,1,.8-.5v-1.1Zm0,3.3v1.1a.365.365,0,0,1-.5-.2c-.1-.2-.1-.5.1-.6l.4-.3Zm0,1.5v1.1l-.5.3c-.5.3-.9.6-1.3.8v-1.1l.8-.5a3.741,3.741,0,0,0,1-.6Zm0,1.7-1.6,1c-.1.1-.2.1-.2.2v.4a.377.377,0,0,0,.6.1l1.2-.7v-1Zm0,5.3v.8l-1.8,1.2v-1.1c.5-.3.9-.6,1.4-.9a.3.3,0,0,1,.4,0Zm0,1c-.4.3-.9.6-1.3.9l-.5.4V578a8.647,8.647,0,0,0,1-.7,3.507,3.507,0,0,1,.8-.5v-1.2Zm0,1.6q-1.2.75-1.8,1.2v1.2h0a17.767,17.767,0,0,1,1.8-1.2v-1.2Zm0,3.1h0c-.4.3-.9.6-1.5,1a.43.43,0,1,0,.5.7c.4-.2.7-.5,1-.6v-1.1ZM743,568.4h0c.3-.2.3-.4.2-.7,0-.1-.1-.1-.2-.2v.9Zm0-1.6v0Zm0-1.7v0Zm0-2.7h0a.483.483,0,0,0,0-.7h0v.7Zm0-1.8v0Zm0-38.4c.5-.3,1-.6,1.6-1a.447.447,0,1,0-.4-.8l-1.1.7v1.1Zm0-1.6v-.8c.1,0,.1.1.2.2A.481.481,0,0,1,743,520.6Zm0,60.7a5.544,5.544,0,0,1-.8.6l-.1.1v-1.2a5.553,5.553,0,0,0,.8-.6l.1-.1v1.2Zm0-61.5v.8h0l-.9.5V520l.4-.3a.9.9,0,0,1,.5.1Zm0,1.3-.6.4-.3.2v1.1l.7-.5.2-.1v-1.1Zm0,1.6v1.1l-.9.6v-1.1l.9-.6Zm0,1.5-.9.6v1.1l.9-.6v-1.1Zm0,1.6v1.1l-.9.6v-1.1l.9-.6Zm0,1.4-.9.5v1.1l.9-.5v-1.1Zm0,1.7V530l-.9.6v-1.1l.9-.6Zm0,1.3-.9.6v1.1l.9-.6v-1.1Zm0,1.8v1.1l-.9.6v-1.1a4.7,4.7,0,0,1,.9-.6Zm0,1.6-.9.6v1.1l.9-.6v-1.1Zm0,1.7v1.1l-.9.6v-1.1l.9-.6Zm0,1.3-.9.5v1.1l.9-.5v-1.1Zm0,1.6v1.1l-.9.6v-1.1l.9-.6Zm0,1.2-.9.6v1.1l.9-.6v-1.1Zm0,1.7v1.1l-.9.6v-1.1a2.363,2.363,0,0,1,.9-.6Zm0,1.7v1.1l-.9.6v-1.1l.9-.6Zm0,1.9v1.1l-.9.6v-1.1l.9-.6Zm0,1.6-.9.6V548l.9-.6v-1.1Zm0,1.7v.8c-.1,0-.1-.1-.2-.1-.1-.3-.1-.6.2-.7Zm0,9.2v2.1c-.2.1-.3.2-.5.3-.1.1-.3.2-.4.3v-2.1l.9-.6Zm0,3h0a.527.527,0,0,0-.7-.2l-.2.1v1.1c.2-.2.5-.3.7-.5l.2-.2v-.3Zm0,1.5v.7a9.679,9.679,0,0,1-.9.7V562c.1-.1.2-.2.3-.2.1-.2.4-.2.6-.1Zm0,1-.5.3c-.1.1-.2.1-.4.2v1.1a3.492,3.492,0,0,0,.9-.6h0v-1Zm0,2.1v.3a.215.215,0,0,1-.2.2c-.2.2-.5.3-.7.5v-1.1l.2-.1c.2-.1.5-.1.6.1a.1.1,0,0,1,.1.1Zm0,1.7v.3a.215.215,0,0,1-.2.2l-.7.5v-1.1l.2-.1c.2-.1.5-.1.6.1a.1.1,0,0,1,.1.1Zm0,1.1v.8c-.6.4-.8.5-.9.6v-1.1l.4-.3a.454.454,0,0,1,.5,0Zm0,1.2-.9.6v1.1l.9-.6v-1.1Zm0,1.8v0Zm0,4.9v1.1l-.9.6v-1.1l.9-.6Zm0,1.3-.9.6v1.1l.9-.6v-1.1Zm0,1.6a2.093,2.093,0,0,1-.6.4l-.3.3v1.2a9.679,9.679,0,0,0,.9-.7v-1.2Zm-.9-2.6.5-.3a.43.43,0,0,0-.5-.7h0Zm0,6.2a4.235,4.235,0,0,1-.7.5v-1.1l.2-.2c.2-.1.3-.2.5-.3V582Zm0-61.9v1.1l-.7.4v-1.1l.7-.4Zm0,1.6v1.1l-.7.4v-1.1l.7-.4Zm0,1.6v1.1l-.7.4v-1.1l.7-.4Zm0,1.4c-.2.2-.5.3-.7.5v1.1c.2-.2.5-.3.7-.5v-1.1Zm0,1.7v1.1c-.2.1-.4.3-.6.4l-.1.1v-1.1c.2-.2.5-.3.7-.5Zm0,1.4-.7.4v1.1l.7-.4v-1.1Zm0,1.6v1.1l-.7.4v-1.1l.7-.4Zm0,1.4c-.2.2-.5.3-.7.5h0v.7a.638.638,0,0,0,.6,0l.1-.1v-1.1Zm0,1.7v1.1l-.2.1a.446.446,0,0,1-.5,0V533h0c.2-.2.5-.3.7-.5Zm0,1.7v1.1l-.2.1a.446.446,0,0,1-.5,0v-.7h0l.7-.5Zm0,1.7V537l-.2.1a.446.446,0,0,1-.5,0v-.7h0l.7-.5Zm0,1.3v1.1l-.2.1a.446.446,0,0,1-.5,0v-.7h0l.7-.5Zm0,1.6v1.1l-.2.1a.446.446,0,0,1-.5,0v-.7h0l.7-.5Zm0,1.1-.7.4h0v.7a.446.446,0,0,0,.5,0l.2-.1v-1Zm0,1.7v1.1l-.2.1a.446.446,0,0,1-.5,0v-.7h0l.7-.5Zm0,1.8v1.1l-.2.1a.446.446,0,0,1-.5,0v-.7h0l.7-.5Zm0,1.9v1.1l-.7.5v-1.1l.7-.5Zm0,1.6-.7.5v1.1l.7-.5v-1.1Zm0,10.9v2.1c-.2.2-.5.3-.7.5v-2.1l.5-.3.2-.2Zm0,2.4c-.2.2-.5.3-.7.5v1.1c.2-.1.4-.3.7-.5v-1.1Zm0,1.8v1.2l-.2.1a1.755,1.755,0,0,0-.5.4v-1.1a3.191,3.191,0,0,1,.7-.6Zm0,1.3a2.09,2.09,0,0,0-.6.4h-.1v1.1l.6-.3.1-.1v-1.1Zm0,1.4v1.1l-.5.3-.2.2v-1.1a3.039,3.039,0,0,1,.7-.5Zm0,1.7v1.1l-.4.3-.3.2v-1.1c.3-.2.5-.4.7-.5Zm0,1.5-.7.4h0v1.1l.5-.3.2-.1v-1.1Zm0,1.5v1.1l-.2.1a.454.454,0,0,1-.5,0v-.8l.7-.4Zm0,5.3v1.1l-.7.5v-1.1l.7-.5Zm0,1.4-.7.5v1.1l.7-.5v-1.1Zm0,1.3v1.1l-.7.5v-1.1l.7-.5Zm0,1.7v1.2a4.235,4.235,0,0,1-.7.5v-1.2a1.793,1.793,0,0,0,.7-.5Zm-.7-59.1v-.7l.1.1A.471.471,0,0,1,741.4,520Zm0,62.5-.2.1v-1.1l.2-.1v1.1Zm0-63.3v.7h0l-.1.1v-.9c0,.1,0,.1.1.1Zm0,1.3v1.1l-.2.1v-1.1l.2-.1Zm0,1.6v1.1l-.2.1v-1.1l.2-.1Zm0,1.6v1.1l-.2.1v-1.1l.2-.1Zm0,1.5v1.1l-.2.1v-1.1l.2-.1Zm0,1.7V528l-.2.1V527l.2-.1Zm0,1.3v1.1l-.2.1v-1.1l.2-.1Zm0,1.7V531l-.2.1V530l.2-.1Zm0,1.4v.7l-.1-.1a.1.1,0,0,0-.1-.1v-.3c.1-.1.1-.2.2-.2Zm0,1.7v.7l-.1-.1a.1.1,0,0,0-.1-.1v-.3c.1-.1.1-.2.2-.2Zm0,1.6v.7l-.1-.1v-.4a.309.309,0,0,1,.1-.2Zm0,1.7v.7l-.1-.1v-.4c0-.1,0-.1.1-.2Zm0,1.3v.7l-.1-.1v-.4c0-.1,0-.1.1-.2Zm0,1.7v.7l-.1-.1a.1.1,0,0,0-.1-.1v-.3c.1-.1.1-.2.2-.2Zm0,1.1v.7l-.1-.1v-.4c0-.1,0-.2.1-.2Zm0,1.7v.7l-.1-.1v-.4c0-.1,0-.2.1-.2Zm0,1.7v.7l-.1-.1V544a.309.309,0,0,1,.1-.2Zm0,2v1.1l-.2.1v-1.1l.2-.1Zm0,1.5v1.1l-.2.1v-1.1l.2-.1Zm0,11v2.1l-.2.1v-2.1l.2-.1Zm0,2.3v1.1l-.1.1-.1.1v-1.1l.2-.2Zm0,1.9v1.1l-.2.1v-1.1l.2-.1Zm0,1.2-.2.1v1.1l.2-.1v-1.1Zm0,1.5v1.1l-.2.1v-1.1l.2-.1Zm0,1.7V568l-.2.1V567l.2-.1Zm0,1.4v1.1l-.2.1v-1.1l.2-.1Zm0,1.5v.8a.1.1,0,0,1-.1-.1h0V570c0-.1,0-.1.1-.2Zm0,5.4v1.1l-.2.1v-1.1l.2-.1Zm0,1.4v1.1l-.2.1v-1.1l.2-.1Zm0,1.3V579l-.2.1V578l.2-.1Zm0,1.8v1.2l-.2.1v-1.2l.2-.1Zm-.2-34.8v-.3A.188.188,0,0,1,741.2,544.9Zm0,37.7-.1.1v-1.1l.1-.1v1.1Zm0-63.5v.9l-.1.1v-1Zm0,1.5v1.1l-.1.1v-1.1l.1-.1Zm0,1.6v1.1l-.1.1v-1.1l.1-.1Zm0,1.6v1.1l-.1.1v-1.1l.1-.1Zm0,1.5v1.1l-.1.1v-1.1l.1-.1Zm0,1.7v1.1l-.1.1v-1.1l.1-.1Zm0,1.3v1.1l-.1.1v-1.1l.1-.1Zm0,1.7v1.1l-.1.1v-1.1l.1-.1Zm0,1.5v0Zm0,1.7v0Zm0,1.6v0Zm0,1.7v0Zm0,1.3v0Zm0,1.7v0Zm0,1.1v0Zm0,1.7v0Zm0,1.8v0Zm0,.5v.3c0,.1-.1.1-.1.2v-.7l.1.1v.1Zm0,1.3V547l-.1.1V546l.1-.1Zm0,1.5v1.1l-.1.1v-1.1l.1-.1Zm0,11v2.1l-.1.1v-2.1l.1-.1Zm0,2.3v1.1l-.1.1v-1.1l.1-.1Zm0,1.9v1.1l-.1.1v-1.1l.1-.1Zm0,1.2-.1.1V565l.1-.1v-1.1Zm0,1.5v1.1l-.1.1v-1.1h0l.1-.1Zm0,1.7v1.1l-.1.1V567Zm0,1.4v1.1l-.1.1v-1.1l.1-.1Zm0,1.6v.5a.446.446,0,0,1,0-.5Zm0,5.3v1.1l-.1.1v-1.1l.1-.1Zm0,1.4v1.1l-.1.1v-1.1l.1-.1Zm0,1.3v1.1l-.1.1v-1.1l.1-.1Zm0,1.8V581l-.1.1v-1.2Zm-.1,2.9a8.647,8.647,0,0,1-1,.7H740v-1.1c.4-.3.7-.5,1.1-.8v1.2Zm0-63.6v1a6.725,6.725,0,0,0-1.1.7v-1.1l.8-.5c.1,0,.2-.1.3-.1Zm0,1.6-1.1.7v1.1l1.1-.7v-1.1Zm0,1.6v1.1a6.725,6.725,0,0,0-1.1.7V523l1.1-.7Zm0,1.6a6.725,6.725,0,0,0-1.1.7v1.1c.3-.2.7-.4,1.1-.7v-1.1Zm0,1.5v1.1c-.4.2-.7.5-1.1.7v-1.1a6.722,6.722,0,0,1,1.1-.7Zm0,1.7h0a6.73,6.73,0,0,1-1.1.7v1.1c.4-.2.7-.5,1.1-.7v-1.1Zm0,1.2v1.1c-.4.2-.7.4-1.1.6v-1l1.1-.7Zm0,1.8v1.1l-1.1.7v-1.1l1.1-.7Zm0,14.3v.7H741l-1,.6v-1.1l.5-.3c.2,0,.5,0,.6.1Zm0,1.6v1.1l-1.1.7v-1.1l1.1-.7Zm0,1.5-.6.4a.377.377,0,0,0-.1.6c.2.2.4.3.6.1h.1v-1.1Zm0,11v2.1a5.553,5.553,0,0,0-.8.6.367.367,0,0,1-.3.1v-1h0v-.9l1.1-.9Zm0,2.3c-.1.1-.2.1-.3.2-.3.2-.5.4-.7.5v1.1a.367.367,0,0,0,.3-.1,5.544,5.544,0,0,1,.8-.6v-1.1Zm0,1.9v1.1a3.507,3.507,0,0,1-.8.5l.8-.5v1.1c-.3.2-.5.3-.8.5a.349.349,0,0,0-.2.1v-1l.2-.1c-.1,0-.1.1-.2.1v-1a7.015,7.015,0,0,1,1-.8Zm0,2.6c-.4.3-.8.5-1.1.7v1c.1,0,.2,0,.2-.1l.8-.5v-1.1Zm0,1.7v1.1l-.6.4a.3.3,0,0,1-.4,0v-.9a2.839,2.839,0,0,0,1-.6Zm0,1.5-.6.4a.43.43,0,1,0,.5.7l.1-.1v-1Zm0,6.9v1.1l-1.1.7v-1.1l1.1-.7Zm0,1.4a10.542,10.542,0,0,1-1.1.7v1.1c.4-.2.7-.5,1.1-.7v-1.1Zm0,1.3v1.1a10.542,10.542,0,0,1-1.1.7v-1.1a4.128,4.128,0,0,0,1.1-.7Zm0,1.8c-.3.2-.7.5-1.1.8h0v1.2c.2-.1.4-.3.6-.4s.3-.3.5-.4v-1.2Zm-1.1-4,.5-.3a.377.377,0,0,0,.1-.6.481.481,0,0,0-.6-.2v1.1Zm0-56.3h0a.527.527,0,0,0,.2-.7c0-.1-.1-.1-.2-.2Zm0,63.9a.614.614,0,0,1-.6-.1c-.1-.2-.1-.5.1-.6s.3-.2.5-.3v1Zm0-64.7v.9c-.4.3-.8.5-1.2.8v-1.1l.8-.5a.247.247,0,0,1,.4-.1Zm0,.9a8.344,8.344,0,0,0-1.2.8v1.1c.4-.3.8-.5,1.2-.8v-1.1Zm0,1.6v1.1a7.461,7.461,0,0,1-1.2.7V522a7.461,7.461,0,0,0,1.2-.7Zm0,1.6a7.461,7.461,0,0,1-1.2.7v1.1c.4-.2.8-.5,1.2-.7v-1.1Zm0,1.7v1.1l-.3.2a4.051,4.051,0,0,1-.9.5v-1.1l.4-.2a9.241,9.241,0,0,1,.8-.5Zm0,1.5c-.4.3-.8.5-1.2.8V528l.3-.2.9-.6v-1.1Zm0,1.7v1.1c-.4.3-.8.5-1.2.8v-1.1a8.344,8.344,0,0,1,1.2-.8Zm0,1.2c-.4.2-.8.5-1.2.7v1.1c.4-.2.8-.5,1.2-.7V529Zm0,1.8v1.1l-.2.1c-.1,0-.1.1-.2.1a.1.1,0,0,1-.1.1l-.6.4v-1.1l.1-.1c.1,0,.1-.1.2-.1a.1.1,0,0,1,.1-.1l.7-.4Zm0,13.9v1.1l-1.2.8v-1.1l1.2-.8Zm0,1.9v1.1l-1.2.8v-1.1a8.333,8.333,0,0,0,1.2-.8Zm0,12.6v.9c-.1,0-.2-.1-.3-.2-.1-.2-.1-.5.1-.6l.2-.1Zm0,1v1a.758.758,0,0,1-.4-.2.377.377,0,0,1,.1-.6c.1-.1.2-.1.3-.2Zm0,1.4v1.1a.758.758,0,0,1-.4-.2.494.494,0,0,1,.1-.7c.1-.1.2-.1.3-.2Zm0,1.8v1a.52.52,0,0,1-.4-.2c-.1-.2-.1-.5.1-.6l.3-.2Zm0,1.2v1a.52.52,0,0,1-.4-.2c-.1-.2-.1-.5.1-.6l.3-.2Zm0,1.4v1a.52.52,0,0,1-.4-.2c-.1-.2-.1-.5.1-.6l.3-.2Zm0,1.7v.9a.215.215,0,0,1-.2-.2.527.527,0,0,1,.2-.7Zm0,7.1v1.1l-1.2.8v-1.1l1.2-.8Zm0,1.3-1.2.8V578l1.2-.8v-1.1Zm0,1.4v1.1c-.4.3-.8.5-1.2.8v-1.1a8.344,8.344,0,0,0,1.2-.8Zm0,1.4a8.344,8.344,0,0,1-1.2.8v1.1a8.344,8.344,0,0,1,1.2-.8v-1.1Zm0,1.8-1.2.9v1.1l1.2-.9v-1.1Zm-1.2-35.9c.2-.1.4-.3.6-.4a.377.377,0,0,0,.1-.6c-.2-.2-.4-.3-.6-.1l-.1.1v1Zm0-2.8v-1.1l.1-.1c.2-.1.5-.1.6.1s.1.5-.1.6l-.6.5Zm0-1.7v-1.1l.1-.1a.447.447,0,0,1,.4.8l-.5.4Zm0-1.3.6-.4a.43.43,0,0,0-.5-.7l-.1.1v1Zm0-1.6v-1.1l.1-.1c.2-.1.5-.1.6.1s.1.5-.1.6l-.6.5Zm0-1.6v-1.1l.1-.1c.2-.1.5-.1.6.1s.1.5-.1.6a1.024,1.024,0,0,1-.6.5Zm0-1.4v-1.1l.1-.1c.2-.1.5-.1.6.1s.1.5-.1.6A1.024,1.024,0,0,1,738.8,534.4Zm0-15.1v1.1a21.429,21.429,0,0,0-1.9,1.3v-1.1c.7-.5,1.3-.9,1.9-1.3Zm0,1.2c-.6.4-1.3.8-1.9,1.2v1.1c.7-.4,1.3-.8,1.9-1.2v-1.1Zm0,1.5v1.1c-.6.3-1.1.7-1.6,1l-.3.2v-1.1c.6-.4,1.3-.8,1.9-1.2Zm0,1.7c-.7.4-1.3.8-1.9,1.2V526c.6-.4,1.2-.7,1.9-1.2v-1.1Zm0,1.6v1.1c-.7.4-1.3.9-1.9,1.3v-1.1c.6-.4,1.2-.8,1.9-1.3Zm0,1.5-.2.1c-.6.4-1.1.7-1.7,1.1v1.1c.6-.4,1.3-.8,1.9-1.2v-1.1Zm0,1.7v1.1c-.7.4-1.3.8-1.9,1.2v-1.1c.6-.4,1.3-.8,1.9-1.2Zm0,1.2c-.7.4-1.3.8-1.9,1.2V532c.6-.4,1.3-.8,1.9-1.2v-1.1Zm0,1.8v1.1l-.4.3-1,.7a.454.454,0,0,1-.5,0v-.8l1-.7.9-.6Zm0,1.8a2.177,2.177,0,0,1-.8.5c-.3.2-.7.5-1.2.8v.8a.446.446,0,0,0,.5,0c.4-.3.8-.5,1.2-.8l.3-.2v-1.1Zm0,1.4v1.1l-.3.2c-.4.3-.8.5-1.2.8a.454.454,0,0,1-.5,0V536c.5-.3.9-.6,1.2-.8a2.178,2.178,0,0,0,.8-.5Zm0,1.6-.9.6-1,.7v.8a.446.446,0,0,0,.5,0l1-.7.4-.3v-1.1Zm0,1.6V539l-.4.3-1,.6a.454.454,0,0,1-.5,0v-.8l1-.6.9-.6Zm0,1.3-.9.6h0l-1,.6v.8a.446.446,0,0,0,.5,0l1-.6h0l.4-.3v-1.1Zm0,1.7V542l-.3.2-.9.6c-.2.1-.5.1-.6-.1a.1.1,0,0,0-.1-.1v-.2c0-.1.1-.2.2-.3l.9-.6.8-.6Zm0,2.8v1.1c-.7.5-1.4.9-1.9,1.3V545c.6-.4,1.2-.8,1.9-1.3Zm0,1.8-1.9,1.3v1.1l1.9-1.3v-1.1Zm0,1.9v1.1l-.1.1c-.2.1-.5.1-.6-.1s-.1-.5.1-.6l.6-.5Zm0,28.1v1.1c-.6.4-1.3.8-1.9,1.2v-1.1c.7-.4,1.3-.8,1.9-1.2Zm0,1.4a21.429,21.429,0,0,0-1.9,1.3v1.1c.7-.4,1.3-.9,1.9-1.3v-1.1Zm0,1.4v1.1l-.5.3c-.5.3-1,.7-1.5,1v-1.1l.9-.6,1.1-.7Zm0,1.4a23.086,23.086,0,0,0-1.9,1.4v1.1c.7-.5,1.3-.9,1.9-1.4v-1.1Zm0,1.8v1.1a23.086,23.086,0,0,0-1.9,1.4v-1.1c.7-.5,1.3-.9,1.9-1.4Zm-1.9-4.9c.7-.4,1.3-.8,1.6-1a.447.447,0,1,0-.4-.8l-1.1.7v1.1Zm0-5.7v-1.1l.4-.2c.2-.1.5-.1.6.1s.1.5-.1.6l-.4.3-.5.3Zm0-1.7v-1.1l1-.7c.2-.1.5-.1.6.1s.1.5-.1.6a11.764,11.764,0,0,1-1.5,1.1Zm0-1.6.3-.2,1.2-.8a.481.481,0,0,0,.2-.6.4.4,0,0,0-.4-.2l.3-.2a.43.43,0,0,0-.5-.7,3.592,3.592,0,0,0-1,.7v2Zm0-2.5V564c.4-.3.7-.5,1-.7.2-.1.5-.1.6.1s.1.5-.1.6c-.3.2-.7.5-1.1.8-.1.1-.3.2-.4.3Zm0-1.4a1.381,1.381,0,0,0,.4-.3,10.47,10.47,0,0,0,1.1-.8.43.43,0,0,0-.5-.7c-.3.2-.6.4-1,.7v1.1Zm0-1.3v-1.1l1-.7c.2-.1.5-.1.6.1s.1.5-.1.6l-1.3.9-.2.2Zm0-1.5.2-.1,1.3-.8a.43.43,0,0,0-.5-.7l-1,.6v1Zm0-1.9v-1a2.185,2.185,0,0,0,.5-.3h0a.447.447,0,0,1,.4.8h0c-.2.1-.5.3-.9.5Zm0-1.1a.349.349,0,0,0,.2-.1.481.481,0,0,0,.2-.6c-.1-.2-.3-.3-.4-.2v.9Zm0-37.9c.5-.3.9-.6,1.4-.9a.43.43,0,0,0-.5-.7,5.553,5.553,0,0,0-.8.6v1Zm0-1.1V520l-.2.1V519l.2-.1Zm0,1.7v1.1l-.2.1v-1.1l.2-.1Zm0,1.1-.2.1v1.1l.2-.1v-1.1Zm0,1.5v1.1l-.2.1v-1.1h0l.2-.1Zm0,1.7V526l-.2.1V525l.2-.1Zm0,1.7v1.1l-.2.1v-1.1l.2-.1Zm0,1.5v1.1l-.2.1v-1.1l.2-.1Zm0,1.6v1.1l-.2.1v-1.1l.2-.1Zm0,1.2-.2.1v1.1h.1l.1-.1v-1.1Zm0,1.9v.8c-.1,0-.1-.1-.2-.1V533a.215.215,0,0,1,.2-.2Zm0,1.8v.8a.1.1,0,0,1-.1-.1v-.4c-.1-.1,0-.2.1-.3Zm0,1.4v.8c-.1,0-.1-.1-.2-.1v-.4c0-.2.1-.2.2-.3Zm0,1.5v.8c-.1,0-.1-.1-.2-.1v-.4c0-.2.1-.2.2-.3Zm0,1.6v.8c-.1,0-.1-.1-.2-.2v-.4c0-.1.1-.1.2-.2Zm0,1.3v.8c-.1,0-.1-.1-.2-.2v-.4a.215.215,0,0,1,.2-.2Zm0,1.9v0Zm0,2.7v1.1l-.2.1v-1.1l.2-.1Zm0,1.7v1.1l-.2.1v-1.1l.2-.1Zm0,10.2v1l-.2.1v-1.1h.2Zm0,1.1c-.1,0-.1.1-.2.1v1.1l.2-.1V558Zm0,1.8v1.1l-.2.1v-1.1l.2-.1Zm0,1.5v1.1l-.2.1v-1.1l.2-.1Zm0,1.2v1.1l-.2.1v-1.1l.2-.1Zm0,1.4V565l-.2.1V564l.2-.1Zm0,1.6v2.1l-.2.1v-2.1h0l.2-.1Zm0,2.6v1.1l-.2.1v-1.1l.2-.1Zm0,1.7v1.1c-.1,0-.1.1-.2.1v-1l.2-.2Zm0,5.7v1.1l-.2.1v-1.1l.2-.1Zm0,1.3-.2.1V578l.2-.1v-1.1Zm0,1.3v1.1l-.2.1v-1.1l.2-.1Zm0,1.6v1.1l-.2.1v-1.1l.2-.1Zm0,1.4v1.1l-.2.1v-1.1l.2-.1Zm0,1.8V584l-.2.1V583l.2-.1Zm-.2-64.4v0Zm0-.3v.3a.215.215,0,0,1-.2.2l-.3.2v-1.1c.2.1.4.1.5.4Zm0,.8v1.1l-.5.3v-1.1l.5-.3Zm0,1.7v1.1l-.5.3V521l.5-.3Zm0,1.1-.5.3v1.1l.5-.3v-1.1Zm0,1.6v1.1l-.5.3v-1.1l.5-.3Zm0,1.6v1.1c-.2.1-.3.2-.5.3v-1.1c.2-.1.3-.2.5-.3Zm0,1.7v1.1c-.2.1-.3.2-.5.3V527c.2-.1.3-.2.5-.3Zm0,1.5v1.1l-.5.3v-1.1l.5-.3Zm0,1.7V531l-.5.3v-1.1l.5-.3Zm0,1.1-.4.2-.1.1v.6c.1.2.3.2.5.2V531Zm0,2v0Zm0,1.8v0Zm0,1.4v0Zm0,1.5v0Zm0,1.6v0Zm0,1.3v0Zm0,4.5v1.1l-.1.1c-.1.1-.3.2-.4.3v-1.1a1.754,1.754,0,0,0,.5-.4Zm0,1.8V548l-.3.2-.2.1v-1.1l.5-.3Zm0,10V558c-.2.1-.3.2-.5.3v-1.1c.2-.1.3-.2.5-.3Zm0,1.2c-.1,0-.1.1-.2.1-.1.1-.2.1-.3.2v1.1a2.185,2.185,0,0,0,.5-.3v-1.1Zm0,1.8V561l-.5.3v-1.1l.4-.3Zm0,1.5v1.1l-.5.3v-1.1l.4-.3Zm0,1.3c-.2.1-.3.2-.5.3v1.1a2.185,2.185,0,0,0,.5-.3v-1.1Zm0,1.4v1.1c-.2.1-.3.2-.5.3v-1.1c.2-.1.3-.2.5-.3Zm0,1.5v2.1l-.5.3v-2.1l.5-.3Zm0,2.6v1.1h-.1l-.4.3v-1.1l.5-.3Zm0,1.7v1a.52.52,0,0,1-.4-.2c-.1-.2-.1-.5.1-.6l.3-.2Zm0,5.8v1.1l-.5.3V576l.5-.3Zm0,1.2-.5.3v1.1l.5-.3v-1.1Zm0,1.3v1.1l-.5.3v-1.1l.5-.3Zm0,1.6v1.1l-.5.4v-1.1l.5-.4Zm0,1.4-.5.4v1.1l.5-.4v-1.1Zm0,1.9v1.1l-.1.1a.6.6,0,0,1-.4.1v-.9l.5-.4Zm-.5-7.4.1-.1a.481.481,0,0,0,.2-.6c-.1-.1-.2-.2-.3-.2Zm0-57.8V519l-1,.6v-1.1l.8-.5c.1-.1.1-.1.2-.1Zm0,1.4a8.782,8.782,0,0,1-1,.6V521c.3-.2.7-.4,1-.6v-1.1Zm0,1.7v1.1l-.6.4.6-.4v1.1l-1,.6v-2.2c.3-.2.7-.4,1-.6Zm0,2.7-1,.6v1.1l1-.6v-1.1Zm0,1.6v1.1a8.8,8.8,0,0,0-1,.6v-1.1a8.8,8.8,0,0,1,1-.6Zm0,1.7v1.1a3.507,3.507,0,0,1-.8.5l-.2.1v-1.1a3.744,3.744,0,0,0,1-.6Zm0,1.5c-.3.2-.7.4-1,.6v1.1a8.782,8.782,0,0,1,1-.6v-1.1Zm0,1.7v1.1c-.3.2-.7.4-1,.6v-1.1c.3-.2.7-.4,1-.6Zm0,1.1a.454.454,0,0,0,0,.5h0v-.5Zm0,14.2v1.1c-.4.3-.7.5-1,.7v-1.2a7.009,7.009,0,0,1,.9-.6Zm0,1.7-.3.2-.6.4h0v.7a.446.446,0,0,0,.5,0l.4-.3v-1Zm0,10v1.1a8.782,8.782,0,0,1-1,.6v-1.1c.4-.3.7-.4,1-.6Zm0,1.1c-.3.2-.6.3-1,.6v.9a.367.367,0,0,0,.3-.1c.2-.1.5-.3.7-.4v-1Zm0,2v1.1l-.3.2c-.2.1-.5.1-.6-.1l-.1-.1v-.2c0-.1.1-.2.2-.3l.8-.6Zm0,1.4v1.1l-.3.2c-.2.1-.5.1-.6-.1l-.1-.1v-.2c0-.1.1-.2.2-.3.2-.2.3-.2.8-.6Zm0,1.3c-.3.2-.5.3-.8.5-.1.1-.2.2-.2.3v.2a.1.1,0,0,0,.1.1.377.377,0,0,0,.6.1l.3-.2v-1Zm0,1.4v1.1l-.3.2c-.2.1-.5.1-.6-.1a.1.1,0,0,0-.1-.1v-.2c0-.1.1-.2.2-.3.3-.2.5-.4.8-.6Zm0,1.5V568l-.3.2a.4.4,0,0,1-.6-.2h0v-.5c0-.1.1-.1.2-.2l.3-.2a.52.52,0,0,1-.4-.2.1.1,0,0,0-.1-.1v-.2c0-.1.1-.2.2-.3a2.508,2.508,0,0,0,.7-.4Zm0,2.6v1.1l-1,.6v-1.1a8.787,8.787,0,0,0,1-.6Zm0,6.3v.9l-1,.6v-1.1l.6-.4Zm0,1.2-1,.6v1.1l1-.6V576Zm0,1.2v1.1l-1,.6v-1.1l1-.6Zm0,1.4-1,.6v1.1h.1l.9-.6v-1.1Zm0,1.5v1.1l-1,.7v-1.1l1-.7Zm0,1.5-1,.7v1.1l1-.7v-1.1Zm0,1.8v.9a.215.215,0,0,1-.2-.2c-.1-.2-.1-.5.1-.6l.1-.1Zm-1-37.8c.2-.1.4-.3.6-.4a.43.43,0,0,0-.5-.7l-.1.1v1Zm0-1.2v-.7l.1.1A.471.471,0,0,1,735.2,544.4Zm0-25.9v1.1l-.1.1v-1.1l.1-.1Zm0,1.5v1.1l-.1.1V520Zm0,1.6v2.2l-.1.1v-2.2l.1-.1Zm0,2.7v1.1l-.1.1v-1.1l.1-.1Zm0,1.6V527l-.1.1V526l.1-.1Zm0,1.8v1.1l-.1.1v-1.1l.1-.1Zm0,1.4v1.1l-.1.1v-1.1l.1-.1Zm0,1.7v1.1l-.1.1v-1.1l.1-.1Zm0,12.9v.7h-.1v-.9c0,.1.1.1.1.2Zm0,.8v1.1l-.1.1v-1.1l.1-.1Zm0,1.7v1.2l-.1.1v-1.2l.1-.1Zm0,1.6v.7l-.1-.1h0V548c0-.1.1-.1.1-.2Zm0,9.9v1.1l-.1.1v-1.1l.1-.1Zm0,1.2v.9h-.1V559l.1-.1Zm0,2.2v0Zm0,1.4v0Zm0,1.3v0Zm0,1.4v0Zm0,1.5v0Zm0,.9v.5a.446.446,0,0,1,0-.5Zm0,1.5v1.1l-.1.1v-1.1l.1-.1Zm0,6.1v1.1l-.1.1v-1.1l.1-.1Zm0,1.4v1.1l-.1.1v-1.1l.1-.1Zm0,1.2v1.1l-.1.1v-1.1l.1-.1Zm0,1.4v1.1l-.1.1v-1.1l.1-.1Zm0,1.6v1.1l-.1.1v-1.1l.1-.1Zm0,1.4v1.1l-.1.1v-1.1l.1-.1Zm-.1-24.6v-.5h0a.446.446,0,0,1,0,.5Zm0-15.1V542a.446.446,0,0,1,0,.5Zm0-1.3v-.4a.3.3,0,0,1,0,.4Zm0-1.5v-.4c.1.1.1.2,0,.4Zm0-1.5v-.4c.1.1.1.2,0,.4Zm0-1.4v-.4a.3.3,0,0,1,0,.4Zm0-1.9v-.4a.3.3,0,0,1,0,.4Zm0-1.9v-.4A.3.3,0,0,1,735.1,533Zm0-14.4v1.1l-.1.1.1-1.2Zm0,1.4v1.1l-.1.1.1-1.2Zm0,1.7v2.2l-.1.1.1-2.3Zm0,2.6v1.1l-.1.1.1-1.2Zm0,1.6V527H735l.1-1.1Zm0,1.8v1.1l-.1.1.1-1.2Zm0,1.5v1.1l-.1.1.1-1.2Zm0,1.6v1.1l-.1.1.1-1.2Zm0,1.7v.4l-.1.1v-.7a.349.349,0,0,0,.1.2Zm0,2v.4l-.1.1v-.7c0,.1.1.1.1.2Zm0,1.9v.4l-.1.1v-.7c0,.1.1.1.1.2Zm0,1.3v.4l-.1.1v-.7a.349.349,0,0,0,.1.2Zm0,1.5v.4l-.1.1V539a.349.349,0,0,0,.1.2Zm0,1.6v.4l-.1.1v-.7c0,.1.1.1.1.2Zm0,1.2v.4l-.1.1v-.7c0,.2.1.2.1.2Zm0,1.6v.9l-.1.1.1-1Zm0,.9v1.1H735l.1-1.1Zm0,1.8v1.2l-.1.1.1-1.3Zm0,1.7v.4a.3.3,0,0,1,0-.4Zm0,9.1v.5l-.1.1V557l.1.1Zm0,.7v1.1l-.1.1.1-1.2Zm0,1.2v.8a.1.1,0,0,1-.1-.1l.1-.7Zm0,10.2v1.1l-.1.1.1-1.2Zm0,6.1v1.1l-.1.1.1-1.2Zm0,1.4v1.1l-.1.1.1-1.2Zm0,1.2V579l-.1.1.1-1.2Zm0,1.4v1.1l-.1.1.1-1.2Zm0,1.6V582l-.1.1.1-1.2Zm0,1.4v1.1l-.1.1.1-1.2Zm-.1-13.6v-.4A.3.3,0,0,1,735,568.7Zm0-50.1v1.1l-1,.6v-1.1l1-.6Zm0,1.5-1,.6v1.1l1-.6v-1.1Zm0,1.7V524l-1,.6v-2.2a8.782,8.782,0,0,0,1-.6Zm0,2.6-1,.6v1.1a8.782,8.782,0,0,1,1-.6v-1.1Zm0,1.6v1.1a5.9,5.9,0,0,1-.8.4.1.1,0,0,0-.1.1v-1a3.49,3.49,0,0,1,.9-.6Zm0,1.8v1.1a8.782,8.782,0,0,1-1,.6v-1.1c.4-.3.7-.5.8-.6Zm0,1.4a8.782,8.782,0,0,1-1,.6v1.1a8.782,8.782,0,0,1,1-.6v-1.1Zm0,1.7V532h0l-.9.5v-1.1l.4-.2h0l.5-.3Zm0,1.5c-.2-.1-.4-.2-.6,0l-.4.2v1.1l.9-.6h.1v-.7Zm0,2v.7h-.1l-.9.6v-1.1l.4-.3c.2-.1.5-.1.6.1Zm0,1.9v.7h-.1l-.9.6v-1.1l.4-.3c.2-.1.5-.1.6.1Zm0,1.3c-.2-.1-.4-.2-.6,0l-.4.3V539l.9-.6h.1v-.8Zm0,1.5v.7h-.1l-.9.6v-1.1l.4-.2a.452.452,0,0,1,.6,0Zm0,1.6v.7h-.1l-.9.6v-1.1l.4-.2c.2-.2.5-.2.6,0Zm0,1.2c-.2-.1-.4-.2-.6,0l-.4.2v1.1l.9-.6h.1v-.7Zm0,1.7v1c-.3.2-.7.4-1,.6V544l.6-.4c.2,0,.3-.1.4,0Zm0,1a2.179,2.179,0,0,0-.5.4c-.2.1-.3.2-.5.3v1.2a2.179,2.179,0,0,0,.5-.4c.1-.1.3-.2.5-.4v-1.1Zm0,1.7v1.2h0a5.925,5.925,0,0,1-.6.4,1.38,1.38,0,0,1-.4.3v-1.1c.1-.1.3-.2.3-.3a1.794,1.794,0,0,0,.7-.5Zm0,10.7v.7h-.1l-.1.1a.447.447,0,1,1-.4-.8l.1-.1c.1,0,.4,0,.5.1Zm0,.9a5.73,5.73,0,0,0-.7.4l-.3.2v1.1a3,3,0,0,1,.8-.4l.2-.1v-1.2Zm0,1.1v.7l-.1-.1a.471.471,0,0,1,.1-.6Zm0,9.3v.4c0,.1-.1.1-.2.2l-.8.5v-1.7l.1.1a.446.446,0,0,1,0,.5l.2-.2a.43.43,0,0,1,.7.2Zm0,1-.8.5-.2.2v.5a.377.377,0,0,0,.6.1l.3-.2v-1.1Zm0,6.1v1.1l-1,.6V576l1-.6Zm0,1.3-1,.6v1.1l.1-.1.9-.5v-1.1Zm0,1.3v1.1l-1,.6v-1.1l1-.6Zm0,1.4-.2.1-.7.5v1.1l1-.6v-1.1Zm0,1.5V582l-1,.7v-1.1l1-.7Zm0,1.5-1,.7v1.1l1-.7v-1.1Zm-.9-6.7h0a.527.527,0,0,0,.2-.7l-.2-.2v.9Zm0-8.9v0Zm0-1.4v0Zm0-1.2v0Zm0-1.5v0Zm0-2.1v0Zm0-2.4c0-.1.1-.2,0-.4v.4Zm0-1.7v0Zm0-1.6v0Zm0-1.7v0Zm0-34.3.6-.4a.43.43,0,0,0-.5-.7l-.1.1Zm0-1.2v1.1l-.2.2v-1.1l.2-.2Zm0,1.5v1.1l-.2.1v-1.1l.2-.1Zm0,1.5v1.1l-.2.1v-1.1l.2-.1Zm0,1.7v2.2l-.2.1v-2.2l.2-.1Zm0,2.6v1.1l-.2.1v-1.1l.2-.1Zm0,1.5v1c-.1,0-.1.1-.2.1v-1.1c0,.1.1,0,.2,0Zm0,2v1.1l-.2.2v-1.1l.2-.2Zm0,1.3v1.1l-.2.1v-1.1l.2-.1Zm0,1.7v1.1l-.2.1v-1.1l.2-.1Zm0,1.1-.2.1v1.1l.2-.1v-1.1Zm0,2v1.1l-.2.1h-.1v-1.1l.3-.1Zm0,1.9v1.1l-.1.1-.1.1v-1.1l.2-.2Zm0,1.3v1.1l-.1.1-.1.1V538l.2-.2Zm0,1.5v1.1l-.2.1v-1.1l.2-.1Zm0,1.6V542l-.2.1V541l.2-.1Zm0,1.2v1.1l-.2.1v-1.1l.2-.1Zm0,1.9v1.1l-.2.1v-1.1l.2-.1Zm0,1.3v1.2l-.2.2v-1.2l.1-.1.1-.1Zm0,1.8v1.1c-.1,0-.1.1-.2.2v-1.1h.1c-.1-.2,0-.2.1-.2Zm0,5.8v.4a.215.215,0,0,1-.2.2h-.1v-.8c.1,0,.2,0,.3.2-.1-.1-.1,0,0,0Zm0,1.7v.4a.215.215,0,0,1-.2.2h-.1v-.8c.1,0,.2,0,.3.2-.1-.1-.1,0,0,0Zm0,1.5v.4a.215.215,0,0,1-.2.2h0v-.8l.2.2Zm0,1.7v.4a.215.215,0,0,1-.2.2h0v-.8l.2.2Zm0,.6v1.1l-.2.1v-1.1l.2-.1Zm0,1.8v.4a.215.215,0,0,1-.2.2h0V560l.2.2Zm0,2.1v.4a.215.215,0,0,1-.2.2h-.1v-.8c.1,0,.2.1.3.2Zm0,1.5v.4a.215.215,0,0,1-.2.2h-.1v-.8c.1,0,.2.1.3.2Zm0,1.2v.4a.215.215,0,0,1-.2.2h0v-.8l.2.2Zm0,1.5v.4a.215.215,0,0,1-.2.2h0v-.8s.1,0,.2.2Zm0,1.2v1.7l-.2.1v-2l.2.2Zm0,2.3v.4c-.1-.2-.1-.3,0-.4Zm0,4.9v.9l-.2.1v-1c0-.1.1-.1.2,0Zm0,1V577l-.2.1V576l.2-.1Zm0,1.4v1.1l-.2.1v-1.1l.2-.1Zm0,1.3v1.1l-.2.1v-1.1l.2-.1Zm0,1.4v1.1l-.2.1v-1.1l.2-.1Zm0,1.6v1.1l-.2.2v-1.1l.2-.2Zm0,1.5v1.1l-.2.2v-1.1Zm-.3-65.2V519c-.4.3-.9.6-1.3.9v-1.1c.4-.3.9-.6,1.3-.9Zm0,1.5c-.4.3-.9.6-1.3.9v1.1l1.3-.9v-1.1Zm0,1.4v1.1c-.4.3-.9.6-1.3.9v-1.1c.4-.3.9-.6,1.3-.9Zm0,1.7c-.4.3-.9.6-1.3.9v2.2c.4-.3.9-.6,1.3-.9v-2.2Zm0,2.6v1.1c-.5.3-.9.6-1.3.8v-1a14.645,14.645,0,0,1,1.3-.9Zm0,1.5h0a7.6,7.6,0,0,0-1.3.8v1.1a7.6,7.6,0,0,1,1.3-.8v-1.1Zm0,2v1.1l-.3.2-1,.7v-1.1l.5-.3.8-.6Zm0,1.3c-.4.3-.9.5-1.3.8v1.1c.4-.3.9-.5,1.3-.8v-1.1Zm0,1.7v1.1l-.1.1c-.4.2-.8.5-1.2.7h0v-1.1l.7-.5.6-.3Zm0,1.2c-.2.1-.3.2-.5.3a9.211,9.211,0,0,1-.8.5v1a.367.367,0,0,0,.3-.1,8.782,8.782,0,0,1,1-.6h0v-1.1Zm0,1.9v1.1l-1,.6a.6.6,0,0,1-.4.1v-.9l.9-.6h0l.5-.3Zm0,1.9v1.1l-1,.6a.6.6,0,0,1-.4.1v-.9l.9-.6.5-.3Zm0,1.4-.4.2-1,.6v.9a.6.6,0,0,0,.4-.1l1-.6v-1Zm0,1.4v1.1l-1,.6a.6.6,0,0,1-.4.1v-.9l1.4-.9Zm0,1.6-1.3.8v1a.367.367,0,0,0,.3-.1l1-.6V541Zm0,1.3v1.1l-.7.4a2.507,2.507,0,0,1-.7.4v-1.1l.2-.1a7.459,7.459,0,0,1,1.2-.7Zm0,1.9c-.4.3-.8.5-1.1.7l-.2.1v1.1c.2-.1.5-.3.7-.4a2.09,2.09,0,0,0,.6-.4v-1.1Zm0,1.3v1.2a1.755,1.755,0,0,0-.5.4,5.583,5.583,0,0,1-.8.5v-1.1l.3-.2c.4-.4.8-.6,1-.8Zm0,1.7a5.583,5.583,0,0,1-.8.5.43.43,0,1,0,.5.7l.3-.2v-1Zm0,5.4v.8c-.3.2-.7.5-1.2.8l-.1.1v-1.1a3.488,3.488,0,0,1,.9-.6Zm0,1.7a.446.446,0,0,0-.5,0l-.9.6V556l.1-.1c.4-.3.8-.5,1.2-.8v-.8Zm0,1.6v.8l-1.3.8v-1.1l.9-.5a.3.3,0,0,1,.4,0Zm0,1.7a.3.3,0,0,0-.4,0l-.9.5v1.1l1.3-.8v-.8Zm0,1v1.1a9.128,9.128,0,0,0-1.3.8v-1.1c.5-.3.9-.6,1.3-.8Zm0,1.4a.3.3,0,0,0-.4,0,9,9,0,0,1-.9.5v1.1l.2-.1a7.169,7.169,0,0,0,1.1-.7V560Zm0,2.1v.8c-.4.3-.8.5-1.1.7l-.2.1v-1.1c.2-.2.5-.3.9-.6a.6.6,0,0,1,.4.1Zm0,1.5a.446.446,0,0,0-.5,0,3.492,3.492,0,0,0-.9.6h0v1.1a2.185,2.185,0,0,1,.5-.3c.3-.2.5-.3.8-.5v-.9Zm0,1.2v.8c-.4.3-.8.5-1.1.7l-.2.1v-1.1l.9-.6a.6.6,0,0,1,.4.1Zm0,1.4a.446.446,0,0,0-.5,0c-.2.2-.5.3-.9.6v1.1l.2-.1c.3-.2.7-.4,1.1-.7v-.9Zm0,1.3v2l-1.3.8v-2.1a8.8,8.8,0,0,0,1-.6.367.367,0,0,1,.3-.1Zm0,7.3v1c-.4.3-.9.5-1.3.8v-1.1a10.536,10.536,0,0,0,1.1-.7.138.138,0,0,0,.2,0Zm0,1.3-1.3.8V578l1.3-.8v-1.1Zm0,1.4v1.1l-1.3.8v-1.1l1.2-.7.1-.1Zm0,1.2c-.4.3-.9.6-1.3.9v1.1l.5-.3.9-.6v-1.1Zm0,1.4v1.1c-.4.3-.9.6-1.3.9V581c.4-.3.9-.6,1.3-.9Zm0,1.7-1.3.9v1.1l1.3-.9v-1.1Zm0,1.4v1.1l-.5.4c-.2.1-.5.1-.6-.1s-.1-.5.1-.6l1-.8Zm-1.3-64.6.5-.3a.377.377,0,0,0,.1-.6.481.481,0,0,0-.6-.2Zm0-1.1v1.1l-.9.6v-1.1l.9-.6Zm0,1.3-.9.6v1.1l.9-.6v-1.1Zm0,1.5v1.1l-.9.6v-1.1l.9-.6Zm0,1.4-.9.6v1.1l.3-.2.6-.4v-1.1Zm0,1.7v2.2l-.7.4-.3.2V524l.8-.5.2-.1Zm0,2.6a4.235,4.235,0,0,0-.7.5l-.2.1v1.1a5.738,5.738,0,0,1,.7-.4l.2-.2V526Zm0,1.4v1.1l-.9.6V528l.9-.6Zm0,2.1v1.1l-.9.6v-1.1l.9-.6Zm0,1.3-.9.6v1.1h0l.9-.5v-1.2Zm0,1.6v1.1a.481.481,0,0,1-.6-.2.4.4,0,0,1,.2-.6l.4-.3Zm0,1.2-.2.1a.377.377,0,0,0-.1.6c.1.1.2.2.3.2v-.9Zm0,2v.9c-.1,0-.2-.1-.3-.2-.1-.2-.1-.5.1-.6l.2-.1Zm0,1.9v.9c-.1,0-.2-.1-.3-.2-.1-.2-.1-.5.1-.6l.2-.1Zm0,1.3v.9c-.1,0-.2-.1-.3-.2-.1-.2-.1-.5.1-.6l.2-.1Zm0,1.5v.9c-.1,0-.2-.1-.3-.2-.1-.2-.1-.5.1-.6l.2-.1Zm0,1.5v1c-.1,0-.3-.1-.3-.2-.1-.2-.1-.5.1-.6l.2-.2Zm0,1.3v1.1a5.915,5.915,0,0,0-.6.4.367.367,0,0,1-.3.1v-1a7.021,7.021,0,0,1,.9-.6Zm0,1.9v1.1l-.6.3c-.1.1-.2.1-.4.2v-1.1a9.247,9.247,0,0,0,1-.5Zm0,1.5-.9.6v1.1l.9-.6v-1.1Zm0,6.8v1.1l-.9.6v-1.1c.2-.1.4-.3.6-.4l.3-.2Zm0,1.6-.4.2-.6.4v1.1a3.492,3.492,0,0,0,.9-.6v-1.1Zm0,1.5v1.1l-.9.5v-1l.9-.6Zm0,1.7v1.1l-.9.5v-1.1l.9-.5Zm0,1.2-.9.6V561l.9-.6v-1.1Zm0,1.2v1.1c-.4.3-.7.4-.9.6v-1.1c.3-.2.6-.3.7-.4l.2-.2Zm0,2.2v1.1a2.185,2.185,0,0,0-.5.3l-.3.2-.2.1v-1.1a5.925,5.925,0,0,1,.6-.4l.4-.2Zm0,1.5c-.2.1-.4.3-.5.3h0l-.4.3v1.1l.5-.3.4-.3h0v-1.1Zm0,1.2v1.1c-.2.2-.6.3-.9.6V566l.6-.4.3-.2Zm0,1.4-.3.2-.6.4v1.1l.9-.6v-1.1Zm0,1.4v2.1l-.8.5c-.1,0-.1.1-.2.1v-2.1l.7-.4h0l.3-.2Zm0,7.4v1.1l-.9.6v-1.1l.9-.6Zm0,1.3-.9.6v1.1l.9-.6v-1.1Zm0,1.4v1.1l-.9.6v-1.1l.9-.6Zm0,1.3h0l-.9.6v1.1l.9-.6v-1.1Zm0,1.4v1.1l-.9.6v-1.1l.9-.6Zm0,1.7-.9.6v1.1l.9-.6v-1.1Zm-.9-29.5v-1.1c.2,0,.4,0,.5.2a.4.4,0,0,1-.2.6l-.3.3Zm0-35.1v1.1l-.4.3v-1.1l.4-.3Zm0,1.3-.4.3v1.1l.4-.3v-1.1Zm0,1.5V522l-.4.3v-1.1l.4-.3Zm0,1.4v1.1l-.4.3v-1.1l.2-.1.2-.2Zm0,1.7v2.2l-.4.3v-2.2l.4-.3Zm0,2.6v1.1l-.4.3v-1.1c.1-.2.2-.3.4-.3Zm0,1.4v1.1l-.4.3v-1.1l.4-.3Zm0,2.1v1.1l-.4.3v-1.1l.4-.3Zm0,1.2-.4.2v.8a.3.3,0,0,0,.4,0v-1Zm0,12.4v1a.758.758,0,0,1-.4-.2.1.1,0,0,0-.1-.1v-.3c0-.1.1-.2.2-.3l.3-.1Zm0,1.9v1.1a.758.758,0,0,1-.4.2v-1.1c.1-.1.2-.1.4-.2Zm0,1.5v1.1l-.4.3v-1.1l.4-.3Zm0,5v1.1l-.2.1a.349.349,0,0,0-.2.1v-1h0l.3-.2c0-.1,0-.1.1-.1Zm0,1.8V555l-.2.1c-.1,0-.2.1-.3.1v-1l.5-.3Zm0,1.6v1.1l-.2.1a.349.349,0,0,0-.2.1v-1l.4-.3Zm0,1.5v1.1l-.2.1a.349.349,0,0,0-.2.1v-1l.4-.3Zm0,1.6v1.1l-.2.1a.349.349,0,0,0-.2.1v-1l.4-.3Zm0,1.3V561l-.2.1a.349.349,0,0,0-.2.1v-1l.4-.3Zm0,1.2-.4.2v1c.1,0,.2,0,.2-.1l.2-.1v-1Zm0,2.2v1.1l-.2.1a.349.349,0,0,0-.2.1v-1l.1-.1.3-.2Zm0,1.4v1.1l-.2.1a.349.349,0,0,0-.2.1v-1l.4-.3Zm0,1.3-.4.3v1c.1,0,.2,0,.2-.1l.2-.1V566Zm0,1.4v1.1l-.2.1a.349.349,0,0,0-.2.1v-1l.4-.3Zm0,1.3v2.1a.6.6,0,0,1-.4-.1V570a.1.1,0,0,0,.1-.1h-.1v-1l.4-.2Zm0,7.5v1.1l-.4.3v-1.1l.4-.3Zm0,1.2-.4.2v1.1l.4-.2v-1.1Zm0,1.5V580l-.4.3v-1.1l.4-.3Zm0,1.3-.4.3v1.1l.4-.3v-1.1Zm0,1.4v1.1l-.4.3v-1.1l.4-.3Zm0,1.7v1.1l-.4.3v-1.1l.4-.3Zm-.4-7.7V575h0a.638.638,0,0,1,0,.6Zm0-30.7v0Zm0-26.7h0a.483.483,0,0,0,.1-.7.1.1,0,0,0-.1-.1Zm0-.8v.8l-.4.3v-1.1c.1-.1.2,0,.4,0Zm0,1-.4.3v1.1l.4-.3v-1.1Zm0,1.3v1.1l-.4.3V520l.4-.3Zm0,1.4v1.1l-.4.3v-1.1l.4-.3Zm0,1.5v1.1l-.4.3v-1.1l.4-.3Zm0,1.6v2.2l-.4.3v-2.2l.4-.3Zm0,2.6v1.1l-.4.3v-1.1l.4-.3Zm0,1.5v1.1l-.4.3v-1.1l.4-.3Zm0,2.1v1.1l-.4.3v-1.1l.4-.3Zm0,1.2h0c-.3.2-.3.4-.2.7,0,.1.1.1.2.2v-.9Zm0,12.5v.3a.187.187,0,0,1,0-.3Zm0,.6a.1.1,0,0,0-.1-.1c-.1-.1-.2-.2-.3-.2v1a.31.31,0,0,1,.2-.1c.1-.1.2-.1.2-.2v-.4Zm0,1.1v1.1l-.4.2V546c.1-.1.2-.1.4-.2Zm0,1.5v1.1l-.1.1a.367.367,0,0,1-.3.1v-1l.4-.3Zm0,5v1a.52.52,0,0,1-.4-.2v-.5a.1.1,0,0,1,.1-.1l.3-.2Zm0,1.8v1a.52.52,0,0,1-.4-.2h0v-.5a.1.1,0,0,1,.1-.1l.3-.2Zm0,1.7v1a.52.52,0,0,1-.4-.2h0v-.5a.1.1,0,0,1,.1-.1l.3-.2Zm0,1.4v1a.52.52,0,0,1-.4-.2v-.5c0-.1.1-.1.2-.2l.2-.1Zm0,1.7v1a.52.52,0,0,1-.4-.2v-.5c0-.1.1-.1.2-.2l.2-.1Zm0,1.2v1a.52.52,0,0,1-.4-.2v-.5c0-.1.1-.1.2-.2l.2-.1Zm0,1.2v1a.52.52,0,0,1-.4-.2v-.5c0-.1.1-.1.2-.2l.2-.1Zm0,2.2v1a.52.52,0,0,1-.4-.2v-.5c0-.1.1-.1.2-.2l.2-.1Zm0,1.5v1a.52.52,0,0,1-.4-.2v-.5c0-.1.1-.1.2-.2l.2-.1Zm0,1.2v1a.52.52,0,0,1-.4-.2v-.5a.1.1,0,0,1,.1-.1l.3-.2Zm0,1.5v1a.52.52,0,0,1-.4-.2h0V568a.1.1,0,0,1,.1-.1l.3-.2Zm0,1.3v1a.52.52,0,0,1-.4-.2v-.5c0-.1.1-.1.2-.2l.2-.1Zm0,1.1v.7a.1.1,0,0,0-.1-.1c-.1-.3-.1-.5.1-.6Zm0,4.9v.5a.1.1,0,0,1-.1.1l-.3.2v-1a.758.758,0,0,1,.4.2Zm0,1.4v1.1l-.4.2v-1.1l.4-.2Zm0,1.3-.4.2V579l.4-.2v-1.1Zm0,1.4v1.1l-.4.2v-1.1l.4-.2Zm0,1.3-.4.3v1.1l.4-.3v-1.1Zm0,1.5V583l-.4.3v-1.1l.4-.3Zm0,1.7v1.1l-.1.1a.31.31,0,0,1-.2.1v-1Zm-.4-66.2v1.1a8.344,8.344,0,0,1-1.2.8v-1.1l1.1-.8Zm0,1.2-1.2.8v1.1l1.2-.8v-1.1Zm0,1.4v1.1a8.344,8.344,0,0,1-1.2.8v-1.1a3.6,3.6,0,0,1,1.2-.8Zm0,1.4c-.4.3-.8.5-1.2.8v1.1h0c.4-.3.8-.5,1.2-.8v-1.1Zm0,1.4v1.1l-1.2.8v-1.1l1.2-.8Zm0,1.7-1.2.8v1.1l.8-.5-.8.5v1.1c.4-.3.8-.5,1.2-.8v-2.2Zm0,2.6v1.1c-.3.2-.7.5-1.2.8h0v-1.1a8.347,8.347,0,0,1,1.2-.8Zm0,1.4-.6.4-.6.4v1.1c.4-.3.8-.5,1.2-.8h.1v-1.1Zm0,2.2v1.1l-.1.1c-.2.1-.5.1-.6-.1s-.1-.5.1-.6l.6-.5Zm0,13.6v1c-.3.2-.7.5-1.2.8V545c.4-.3.8-.5.9-.6,0-.1.2-.1.3-.1Zm0,1.7a2.09,2.09,0,0,0-.6.4l-.6.4v1.1c.4-.3.8-.5,1.1-.7l.1-.1V546Zm0,1.6v1a.758.758,0,0,1-.4-.2c-.1-.2-.1-.5.1-.6l.3-.2Zm0,5v.5h0a.446.446,0,0,1,0-.5Zm0,1.8v.5a.446.446,0,0,1,0-.5Zm0,1.7v.5a.454.454,0,0,1,0-.5Zm0,1.4v.5h0a.454.454,0,0,1,0-.5Zm0,1.7v.5h0a.446.446,0,0,1,0-.5Zm0,1.2v.5h0a.446.446,0,0,1,0-.5Zm0,1.2v.5h0a.454.454,0,0,1,0-.5Zm0,2.2v.5h0a.454.454,0,0,1,0-.5Zm0,1.5v.5h0a.446.446,0,0,1,0-.5Zm0,1.2v.5h0a.454.454,0,0,1,0-.5Zm0,1.5v.5a.446.446,0,0,1,0-.5Zm0,1.3v.5h0a.446.446,0,0,1,0-.5Zm0,5.5v1l-1.2.7v-1.1l1-.6c0,.1.1,0,.2,0Zm0,1.9v1.1a8.344,8.344,0,0,0-1.2.8v-1.1a5.027,5.027,0,0,1,1.2-.8Zm0,1.2-1.2.7v1.1l1.2-.7v-1.1Zm0,1.5v1.1l-1.2.8v-1.1l1.2-.8Zm0,1.3c-.4.3-.8.5-1.2.8v1.1c.4-.3.8-.5,1.2-.8v-1.1Zm0,1.5v1.1c-.4.3-.8.5-1.2.8V583a5.027,5.027,0,0,1,1.2-.8Zm0,1.6-.3.2a.377.377,0,0,0-.1.6.52.52,0,0,0,.4.2v-1Zm-1.3-40.6v-1.1h.1c.2-.1.5-.1.6.1s.1.5-.1.6l-.4.2c-.1.2-.1.2-.2.2Zm0-1.4v-1.1l.3-.2c.2-.1.5-.1.6.1s.1.5-.1.6l-.8.6Zm0-1.4.8-.5a.43.43,0,0,0-.5-.7l-.3.2v1Zm0-1.9v-1.1l.3-.2c.2-.1.5-.1.6.1s.1.5-.1.6l-.8.6Zm0-1.5v-1.1c.1-.1.2-.2.3-.2a.43.43,0,0,1,.5.7,5.548,5.548,0,0,1-.8.6Zm0-1.7v-1.1h0l.3-.2a.447.447,0,0,1,.4.8l-.2.2Zm0-17.1v1.1c-.4.3-.9.6-1.3.9v-1.1c.4-.3.9-.6,1.3-.9Zm0,1.2-1.3.9v1.1l1.3-.9v-1.1Zm0,1.4v1.1c-.4.3-.9.6-1.3.9v-1.1c.4-.3.9-.6,1.3-.9Zm0,1.4-.5.3-.8.5v1.1c.4-.3.9-.6,1.3-.9v-1Zm0,1.4v1.1l-1.3.8v-1.1l1.3-.8Zm0,1.7-1.3.8v1.1l1.3-.8v-1.1Zm0,1.1v1.1a14.61,14.61,0,0,0-1.3.9v-1.1c.4-.3.9-.6,1.3-.9Zm0,1.5-.5.3-.9.6v1.1a14.61,14.61,0,0,0,1.3-.9v-1.1Zm0,1.5v1.1c-.4.3-.9.6-1.3.9v-1.1a7.7,7.7,0,0,1,1.3-.9Zm0,4.8v1.1l-1.3.8h-.1V535l1.4-.8Zm0,1.6c-.2.1-.4.3-.6.4a3.507,3.507,0,0,1-.8.5v1.1a.1.1,0,0,0,.1-.1,12.249,12.249,0,0,1,1.2-.8h0v-1.1Zm0,1.6v1.1l-.2.1-1,.6h-.1v-1.1l.6-.4.7-.3Zm0,1.9-.7.4-.6.4v1.1h.1l1.1-.7.2-.1v-1.1Zm0,1.4v1.1l-1.2.8a.1.1,0,0,0-.1.1v-1.1l1.3-.9Zm0,1.5-.3.2a.377.377,0,0,0-.1.6c.1.2.3.2.5.2v-1Zm0,2.8v1.1l-.4.2-.9.6v-1.1l.4-.3a1.933,1.933,0,0,0,.9-.5Zm0,1.8a9.128,9.128,0,0,0-1.3.8v1c.1,0,.1,0,.2-.1a7.461,7.461,0,0,1,1.2-.7v-1Zm0,28.7v1.1l-1.3.8v-2.2l.5-.3c.2-.1.5-.1.6.1s.1.5-.1.6l.3-.1Zm0,1.9v1.1c-.4.3-.9.5-1.3.8v-1.1a9.135,9.135,0,0,0,1.3-.8Zm0,1.3-.9.5-.4.3v1.1l.9-.6.4-.2v-1.1Zm0,1.4v1.1l-1.3.8v-1l1.3-.9Zm0,1.4c-.4.3-.9.6-1.3.9v1.1c.4-.3.9-.6,1.3-.9v-1.1Zm0,1.5v1.1a6.072,6.072,0,0,0-1,.7.367.367,0,0,1-.3.1v-1c.4-.3.9-.6,1.3-.9Zm-1.3-12.4v-1.1l.3-.2a.447.447,0,0,1,.4.8l-.6.3-.1.2Zm0-1.5V568l.3-.2a.447.447,0,0,1,.4.8l-.7.5Zm0-1.3.8-.5a.447.447,0,1,0-.4-.8l-.3.2v1.1Zm0-1.5v-1.1l.3-.2a.447.447,0,0,1,.4.8l-.7.5Zm0-2.1v-1.1l.3-.2a.447.447,0,0,1,.4.8l-.7.5Zm0-1.2.8-.5a.447.447,0,1,0-.4-.8l-.3.2V563Zm0-1.3v-1.1l.3-.2a.447.447,0,0,1,.4.8l-.7.5Zm0-1.7v-1.1l.3-.2a.447.447,0,0,1,.4.8l-.7.5Zm0-1.3c.1-.1.2-.1.3-.2a5.188,5.188,0,0,1,.5-.3.447.447,0,1,0-.4-.8l-.3.2v1.1Zm0-13.1.3-.2a.377.377,0,0,0,.1-.6.4.4,0,0,0-.4-.2v1Zm0-11.4a.3.3,0,0,0,.4,0l.1-.1a.447.447,0,0,0-.4-.8l-.1.1v.8Zm0-15.5.7-.5a.43.43,0,0,0-.5-.7l-.1.1v1.1Zm0-1.1v1.1c-.7.5-1.3.9-1.9,1.3v-1.1c.6-.4,1.2-.9,1.9-1.3Zm0,1.5c-.7.4-1.3.9-1.9,1.3v1.1c.6-.4,1.3-.9,1.9-1.3v-1.1Zm0,1.2v1.1c-.7.4-1.3.9-1.9,1.3v-1.1c.6-.4,1.2-.8,1.9-1.3Zm0,1.4c-.7.4-1.3.9-1.9,1.3v1.1a21.429,21.429,0,0,0,1.9-1.3v-1.1Zm0,1.4v1.1c-.7.4-1.3.8-1.9,1.2v-1.1c.6-.4,1.2-.8,1.9-1.2Zm0,1.3c-.6.4-1.3.8-1.9,1.2v1.1c.6-.4,1.3-.8,1.9-1.2v-1.1Zm0,1.7v1.1c-.7.4-1.3.8-1.9,1.2v-1.1c.6-.4,1.3-.8,1.9-1.2Zm0,1.2c-.7.4-1.3.9-1.9,1.3v1.1a21.429,21.429,0,0,0,1.9-1.3v-1.1Zm0,1.5v1.1a21.429,21.429,0,0,0-1.9,1.3v-1.1c.7-.5,1.3-.9,1.9-1.3Zm0,1.4a21.429,21.429,0,0,0-1.9,1.3v1.1c.7-.5,1.3-.9,1.9-1.3v-1.1Zm0,3.1v.8c-.1,0-.1-.1-.2-.2s-.1-.4.2-.6Zm0,1.7v1.1c-.2.1-.4,0-.6-.2a.4.4,0,0,1,.2-.6l.4-.3Zm0,1.8v1.1a.365.365,0,0,1-.5-.2c-.1-.2-.1-.5.1-.6.1-.1.3-.2.4-.3Zm0,1.5v1.1c-.2.1-.4,0-.6-.2-.1-.2-.1-.5.1-.6l.5-.3Zm0,1.9v1.1c-.2.1-.4,0-.6-.2-.1-.2-.1-.5.1-.6l.5-.3Zm0,1.3v1.1c-.2,0-.4,0-.5-.2s-.1-.5.1-.6l.4-.3Zm0,3.1v1c-.7.5-1.4.9-1.9,1.2h0v-1.1c.5-.3,1.1-.7,1.7-1.1Zm0,1.3c-.6.4-1.2.8-1.9,1.2v1.1c.7-.5,1.4-.9,1.9-1.2v-1.1Zm0,1.7v1a.764.764,0,0,1-.5-.2.4.4,0,0,1,.2-.6l.3-.2Zm0,10.1v1.1l-.6.3a10.9,10.9,0,0,1-1.1.6.367.367,0,0,1-.3.1v-1a4.051,4.051,0,0,1,.9-.5,9.211,9.211,0,0,1,.8-.5l.3-.1Zm0,1.2-.9.5-1.1.6v1a.367.367,0,0,0,.3-.1l1.2-.7.4-.2v-1.1Zm0,1.7v1.1l-.4.2-1.2.7a.367.367,0,0,1-.3.1v-1l1.1-.6.8-.5Zm0,1.3-.9.5-1.1.6v1a.367.367,0,0,0,.3-.1c.4-.3.8-.5,1.2-.8l.4-.2v-1Zm0,1.2v1.1l-.4.2h0l-1.2.8a.367.367,0,0,1-.3.1v-1l1-.6h0l.9-.6Zm0,2.1-.8.5-1.1.6v1a.367.367,0,0,0,.3-.1l1.3-.7.4-.2v-1.1Zm0,1.5v1.1l-1.9,1.1v-1.1l1.9-1.1Zm0,1.3-.9.5-1.1.6v1a.367.367,0,0,0,.3-.1,12.649,12.649,0,0,1,1.2-.7l.4-.2V568Zm0,1.5v1.1l-.3.2a.447.447,0,1,1-.4-.8l.6-.4.1-.1Zm0,5.7v2.2l-1.9,1.2v-2.1a21.4,21.4,0,0,1,1.9-1.3Zm0,3-.9.6c-.3.2-.7.4-1,.6v1.1l1.5-.9.5-.3v-1.1Zm0,1.3v1.1l-1.9,1.2v-1.1l1.9-1.2Zm0,1.5c-.6.4-1.3.8-1.9,1.2v1.1c.7-.4,1.3-.8,1.9-1.2V581Zm0,1.3v1.1c-.6.4-1.1.7-1.7,1.1a.349.349,0,0,0-.2.1v-1c.6-.4,1.2-.8,1.9-1.3Zm0,1.6-.2.1a.377.377,0,0,0-.1.6c.1.1.2.2.3.2v-.9Zm-1.9-8.1.3-.2a.481.481,0,0,0,.2-.6.758.758,0,0,0-.4-.2v1Zm0-17.7a.367.367,0,0,0,.3-.1l.3-.2h0l.4-.2a.447.447,0,0,0-.4-.8l-.4.2h0l-.2.1v1Zm0-12.8.8-.5a.43.43,0,0,0-.5-.7l-.3.2v1Zm0-1.4v-.8a.1.1,0,0,1,.1.1.592.592,0,0,1-.1.7Zm0-25.1.5-.4a.43.43,0,0,0-.5-.7h0Zm0-1.1v1.1a4.235,4.235,0,0,0-.7.5v-1.1a1.794,1.794,0,0,1,.7-.5Zm0,1.2-.7.5v1.1c.2-.2.5-.3.7-.5v-1.1Zm0,1.5v1.1l-.7.5v-1.1l.7-.5Zm0,1.2-.7.5v1.1l.7-.5v-1.1Zm0,1.4v1.1l-.2.1-.6.4v-1.1h0l.8-.5Zm0,1.3-.7.5v1.1c.2-.2.5-.3.7-.5v-1.1Zm0,1.4v1.1l-.7.5v-1.1l.7-.5Zm0,1.6v1.1l-.7.5v-1.1l.7-.5Zm0,1.2a4.235,4.235,0,0,0-.7.5v1.1c.2-.2.5-.3.7-.5v-1.1Zm0,1.6v1.1l-.7.5v-1.1l.7-.5Zm0,1.4-.7.5v1.1l.7-.5v-1.1Zm0,11.6v.8h0l-.7.5v-1.1l.2-.1c.1-.2.3-.2.5-.1Zm0,1.1-.7.5v1.1c.2-.1.4-.3.7-.5v-1.1Zm0,1.5v1.1a4.235,4.235,0,0,0-.7.5v-1.1l.3-.2a3.977,3.977,0,0,0,.4-.3Zm0,1.4-.7.5v1.1c.1,0,.1,0,.2-.1l.6-.4v-1.1Zm0,10v1c-.1,0-.3-.1-.3-.2a.4.4,0,0,1,.2-.6l.1-.2Zm0,1.7v1c-.1,0-.3-.1-.3-.2a.4.4,0,0,1,.2-.6l.1-.2Zm0,1.3v1c-.1,0-.3-.1-.3-.2a.4.4,0,0,1,.2-.6l.1-.2Zm0,1.6v1c-.1,0-.3-.1-.3-.2a.4.4,0,0,1,.2-.6l.1-.2Zm0,1.4v1c-.1,0-.3-.1-.3-.2a.4.4,0,0,1,.2-.6l.1-.2Zm0,1.2v1c-.1,0-.3-.1-.3-.2a.4.4,0,0,1,.2-.6l.1-.2Zm0,2.1v1c-.1,0-.3-.1-.3-.2a.4.4,0,0,1,.2-.6l.1-.2Zm0,1.5V569h0l-.7.4v-1.1l.2-.1.5-.3Zm0,1.3-.2.1a.481.481,0,0,0-.2.6c.1.1.2.2.3.2v-.9Zm0,5.6v1l-.7.5v-1.1l.5-.3c0-.1.1-.1.2-.1Zm0,1.6v2.1l-.7.4v-2.1l.7-.4Zm0,3v1.1l-.7.4v-1.1l.7-.4Zm0,1.2-.7.4v1.1l.7-.4v-1.1Zm0,1.6v1.1l-.7.5v-1.1l.7-.5Zm0,1.4-.3.2a.377.377,0,0,0-.1.6.758.758,0,0,0,.4.2v-1Zm-.8-40.6v-1.1c.2,0,.4,0,.5.2s.1.5-.1.6l-.4.3Zm0-1.9v-1a.52.52,0,0,1,.4.2c.1.2.1.5-.1.6l-.3.2Zm0-1.3v-1a.758.758,0,0,1,.4.2c.1.2.1.5-.1.6l-.3.2Zm0-2.1v-1a.52.52,0,0,1,.4.2.4.4,0,0,1-.2.6l-.2.2Zm0-1.7v-1.7a.758.758,0,0,1,.4.2c.1.2.1.5-.1.6l.1.1a.4.4,0,0,1-.2.6Zm0-17.8v1.1c-.5.3-1,.7-1.5,1v-1.1a13.024,13.024,0,0,1,1.5-1Zm0,1.2a13.024,13.024,0,0,1-1.5,1v1.1c.5-.3,1-.7,1.5-1v-1.1Zm0,1.5V522c-.5.3-1,.7-1.5,1v-1.1a13.024,13.024,0,0,1,1.5-1Zm0,1.2c-.5.3-1,.7-1.5,1v1.1l.2-.1c.4-.3.9-.6,1.4-.9v-1.1Zm0,1.4v1.1c-.5.3-1,.7-1.5,1v-1.1a13.024,13.024,0,0,1,1.5-1Zm0,1.3c-.5.3-1,.7-1.5,1v1.1a13.024,13.024,0,0,0,1.5-1v-1.1Zm0,1.3v1.1l-.2.1c-.2.1-.5.1-.6-.1s-.1-.5.1-.6l.7-.5Zm0,1.7v1.1l-.2.1c-.2.1-.5.1-.6-.1s-.1-.5.1-.6l.7-.5Zm0,1.2a10.47,10.47,0,0,0-1.1.8.43.43,0,1,0,.5.7c.2-.1.4-.3.6-.4V529Zm0,1.6v1.1l-1.2.8a.367.367,0,0,1-.3.1v-1l1.5-1Zm0,1.4c-.5.3-1,.7-1.5,1v1.1l1.5-1V532Zm0,2.3V536a10.543,10.543,0,0,1-1.3.8l-.2.2v-1.8l1.3-.8c0-.1.1-.1.2-.1Zm0,2.4a.367.367,0,0,0-.3.1c-.4.2-.8.5-1.3.8v1.1l.2-.1c.4-.2.8-.5,1.3-.8v-1.1Zm0,2v1c-.4.3-.9.6-1.2.8l-.3.2v-1.1a14.61,14.61,0,0,0,1.3-.9c0,.1.1,0,.2,0Zm0,1.4a.367.367,0,0,0-.3.1,14.806,14.806,0,0,1-1.3.8v1.1c.4-.2.9-.6,1.5-1v-1Zm0,1.8V543l-1.2.8-.3.2v-1.1l1.4-.9a.1.1,0,0,1,.1-.1Zm0,1.3-1.5,1v1.1l1.5-1v-1.1Zm0,1.5v1.1h0c-.4.3-.8.5-1,.7l-.5.3v-1.1a4.369,4.369,0,0,1,1-.6l.5-.4Zm0,1.5a6.415,6.415,0,0,1-1,.6c-.1.1-.3.2-.5.4h0v1.1a2.093,2.093,0,0,1,.6-.4,2.093,2.093,0,0,1,.6-.4,1.38,1.38,0,0,1,.4-.3v-1Zm0,1.4v1.1c-.2,0-.4,0-.5-.2s-.1-.5.1-.6l.4-.3Zm0,20.7v1.1l-1.5.9v-1.1l1.5-.9Zm0,6.9v1.1l-1.5.9v-1.1l1.5-.9Zm0,1.7-1.5.9v2.1l.6-.4.9-.5v-2.1Zm0,3V581l-1.5.9v-1.1l1.5-.9Zm0,1.2-1.5.9v1.1l1.5-.9v-1.1Zm0,1.5v1.1l-.9.5a.4.4,0,0,1-.6-.2h0v-.5c0-.1.1-.1.2-.2l1.3-.7Zm-1.5-7.1a.446.446,0,0,0,0-.5v.5Zm0-6.7.6-.4a.447.447,0,1,0-.4-.8l-.2.1v1.1Zm0-2v-1.1a.4.4,0,0,1,.6.2c.1.2.1.5-.1.6l-.5.3Zm0-1.2.5-.3a.447.447,0,0,0-.4-.8v1.1Zm0-1.5V563a.447.447,0,1,1,.4.8l-.4.3Zm0-1.6v-1.1a.447.447,0,1,1,.4.8l-.4.3Zm0-1.3v-1.1h0a.447.447,0,1,1,.4.8l-.4.3Zm0-1.7v-1.1h0a.447.447,0,1,1,.4.8Zm0-40.4v1.1l-.9.6v-1.1l.9-.6Zm0,1.3a5.553,5.553,0,0,0-.8.6h-.1v1.1a2.09,2.09,0,0,0,.6-.4l.3-.2v-1.1Zm0,1.5V523l-.1.1-.8.5v-1.1l.3-.2.6-.4Zm0,1.2-.4.2-.5.4v1.1l.9-.6v-1.1Zm0,1.4v1.1l-.9.6V525a4.051,4.051,0,0,0,.9-.5Zm0,1.3-.9.6v1.1h.1a5.583,5.583,0,0,1,.8-.5v-1.2Zm0,5.8v1c-.1,0-.3-.1-.3-.2-.1-.2-.1-.5.1-.6l.2-.2Zm0,1.5v1.1l-.3.2c-.2.1-.5.1-.6-.1v-.6l.1-.1.8-.5Zm0,2.1V537l-.9.6v-1.7l.7-.5.2-.2Zm0,2.4v1.1l-.9.6v-1.1c.2-.1.4-.3.6-.4l.3-.2Zm0,2.1v1.1l-.9.6v-1.1l.7-.5.2-.1Zm0,1.2-.6.3-.3.2v1.1c.3-.2.5-.3.8-.5h.1v-1.1Zm0,1.9v1.1l-.9.6v-1.1l.7-.4.2-.2Zm0,1.4-.9.6v1.1l.9-.6v-1.1Zm0,1.5v1.1a5.583,5.583,0,0,1-.8.5l-.1.1v-1.1a6.777,6.777,0,0,1,.9-.6Zm0,1.6c-.3.2-.5.4-.8.6l-.1.1v.7a.471.471,0,0,0,.6.1l.3-.2v-1.3Zm0,11.2v1.1l-.7.4-.2.1V559l.9-.5Zm0,1.6v1.1l-.7.4h0l-.2.1v-1.1l.9-.5Zm0,1.3h0l-.9.5V563l.1-.1.8-.4v-1.1Zm0,1.6v1.1l-.8.4-.1.1v-1.1l.9-.5Zm0,1.5h0l-.9.5v1.1l.1-.1h0l.8-.5v-1Zm0,1.2v1.1l-.7.5-.2.1v-1.1l.9-.6Zm0,2v1.1l-.6.3-.3.2v-1.1l.9-.5Zm0,1.5-.9.5v1.1l.9-.5v-1.1Zm0,5.8v.5c0,.1-.1.1-.2.2l-.7.5V575l.3-.2a.481.481,0,0,1,.6.2Zm0,1.1v1.1l-.9.5v-1.1l.9-.5Zm0,1.7v2.1l-.9.5v-2.1a4.051,4.051,0,0,0,.9-.5Zm0,3v1.1l-.9.5v-1.1l.9-.5Zm0,1.2-.9.5v1.1l.9-.5V582Zm0,1.6v.5a.446.446,0,0,1,0-.5Zm-.9-25.7v-1.1c.2-.1.4,0,.6.2a.481.481,0,0,1-.2.6l-.4.3Zm0-38.9v-.6h0A.637.637,0,0,1,723.1,519Zm0-.6v.6l-.1.1-.5.3v-1.1c.2-.1.5-.1.6.1Zm0,1.3v1.1a2.09,2.09,0,0,0-.6.4v-1.1c.2-.1.4-.3.6-.4Zm0,1.3c-.2.1-.4.3-.6.4v1.1a2.09,2.09,0,0,0,.6-.4V521Zm0,1.5v1.1l-.6.4v-1.1l.6-.4Zm0,1.2-.6.4v1.1l.6-.4v-1.1Zm0,1.3v1.1c-.2.1-.4.3-.6.4v-1.1a2.092,2.092,0,0,0,.6-.4Zm0,1.3-.4.2a.1.1,0,0,0-.1.1h-.1v1.1a2.185,2.185,0,0,0,.5-.3h0v-1.1Zm0,7.4v.6h0a.638.638,0,0,1,0-.6Zm0,2.1v1.7l-.4.3a.349.349,0,0,1-.2.1v-1.6l.6-.5Zm0,2.3v1.1l-.4.3c-.1,0-.1.1-.2.1v-1.1c.2-.1.4-.3.6-.4Zm0,2.2v1.1l-.4.3c-.1,0-.1.1-.2.1v-1.1l.6-.4Zm0,1.2c-.2.1-.4.3-.6.4V543c.1,0,.1,0,.2-.1s.3-.2.4-.3v-1.1Zm0,1.9v1.1l-.4.3c-.1,0-.1.1-.2.1v-1.1l.6-.4Zm0,1.4-.6.4v1.1l.6-.4v-1.1Zm0,1.5v1.1l-.6.4v-1.1l.2-.1.4-.3Zm0,1.6v.7l-.1-.1a.614.614,0,0,1,.1-.6Zm0,8.9v1.1l-.3.2-.2.1v-1.1l.5-.3Zm0,2.2v1.1l-.6.3v-1.1l.3-.2.3-.1Zm0,1.6v1.1l-.6.3v-1l.3-.2h0l.3-.2Zm0,1.3-.3.2-.3.2v1.1l.6-.3v-1.2Zm0,1.7v1.1l-.6.3v-1.1l.3-.1.3-.2Zm0,1.5v1.1l-.6.4v-1.1l.2-.1h0l.4-.3Zm0,1.2-.3.2-.2.2v1.1l.6-.4v-1.1Zm0,1.9v1.1l-.6.3v-1.1l.4-.3Zm0,1.5v1.1H723a.446.446,0,0,1-.5,0V570h0l.6-.3Zm0,5.3v1.1l-.6.4v-1.1l.6-.4Zm0,1.7v1.1l-.6.4V577l.6-.3Zm0,1.7v2.1l-.6.4v-2.1l.2-.1h0l.4-.3Zm0,2.9v1.1l-.6.3v-1.1l.6-.3Zm0,1.2-.6.4v1c.1,0,.1,0,.2-.1l.4-.2v-1.1Zm-.6-53.4v-1c.1,0,.2.1.3.2.1.2.1.5-.1.6Zm0-10.8v1.1c-.6.4-1.2.8-1.7,1.1v-1.1c.5-.3,1.1-.7,1.7-1.1Zm0,1.8-.6.3a7.461,7.461,0,0,1-1.2.7v1.1c.5-.3,1-.6,1.7-1h.1v-1.1Zm0,1.3v1.1c-.7.5-1.3.8-1.7,1.1v-1.1a15.028,15.028,0,0,0,1.7-1.1Zm0,1.4c-.6.4-1.2.8-1.7,1.1V525c.6-.4,1.2-.8,1.7-1.1v-1.1Zm0,1.3v1.1a17.1,17.1,0,0,0-1.7,1.1v-1.1c.5-.3,1.1-.7,1.7-1.1Zm0,1.3c-.6.4-1.2.8-1.7,1.1v1.1c.5-.3,1.1-.7,1.7-1.1v-1.1Zm0,1.3v1.1a7.461,7.461,0,0,1-1.2.7,2.185,2.185,0,0,0-.5.3v-1.1h.1c.5-.3,1-.6,1.6-1Zm0,1.5a.367.367,0,0,0-.3.1l-1.4.9v1.1l1.7-1.1v-1Zm0,8v1.6c-.2,0-.4,0-.5-.2s-.1-.5.1-.6h.1c-.1-.2-.1-.5.1-.6l.2-.2Zm0,2.3v1.1c-.2,0-.4,0-.5-.2s-.1-.5.1-.6l.4-.3Zm0,2.2v1.1c-.2,0-.4,0-.5-.2s-.1-.5.1-.6l.4-.3Zm0,1.1v1.1c-.2,0-.4,0-.5-.2a.4.4,0,0,1,.2-.6l.3-.3Zm0,2v1.1h-.3a.758.758,0,0,1-.2.4l-.5.3-.7.5V545l.2-.1.5-.3a.3.3,0,0,1,.4,0,.758.758,0,0,1,.2-.4l.4-.4Zm0,1.4-.5.3-1.2.8v1.1l1.7-1.1h0v-1.1Zm0,1.5v1.1l-1.4.9a.6.6,0,0,1-.4.1v-.9a14.04,14.04,0,0,1,1.8-1.2Zm0,10.4v1.1l-.5.3a.447.447,0,1,1-.4-.8l.8-.4.1-.2Zm0,2.2v1.1l-.5.3a.447.447,0,1,1-.4-.8l.9-.6Zm0,1.7v1.1l-.5.3a.447.447,0,1,1-.4-.8l.9-.6Zm0,1.2-1,.6a.447.447,0,0,0,.4.8l.5-.3v-1.1Zm0,1.7V565l-.5.3a.447.447,0,1,1-.4-.8l.9-.6Zm0,1.5v1.1l-.5.3a.447.447,0,1,1-.4-.8l.9-.6Zm0,1.2-1,.6a.43.43,0,1,0,.5.7l.5-.3v-1Zm0,1.9v1.1l-.4.2a.447.447,0,0,1-.4-.8l.8-.5Zm0,1.6v.8l-.1-.1c-.1-.3-.1-.6.1-.7Zm0,5.3v1.1l-1.7,1.1v-1.1l1.7-1.1Zm0,1.6c-.6.4-1.2.7-1.7,1.1v1.1l.3-.2,1.5-.9V577Zm0,1.7v2.1c-.6.4-1.2.7-1.7,1.1v-2.1c.5-.4,1.1-.7,1.7-1.1Zm0,3c-.6.3-1.1.7-1.7,1h-.1v.7a.454.454,0,0,0,.5,0c.4-.2.8-.5,1.2-.7v-1Zm0,1.2v1a.52.52,0,0,1-.4-.2.4.4,0,0,1,.2-.6l.2-.2Zm-1.7-6.7,1-.6a.447.447,0,0,0-.4-.8l-.5.3v1.1Zm0-21.1V554l.8-.5c.2-.1.5-.1.6.1s.1.5-.1.6l-1,.6-.3.3Zm0-1.9v-1.1a.481.481,0,0,1,.6.2.4.4,0,0,1-.2.6l-.4.3Zm0-19.6v-1.1l.1-.1.3-.3a.5.5,0,0,1,.6.8,1.38,1.38,0,0,1-.4.3,2.185,2.185,0,0,1-.5.3l-.1.1Zm0-1.7v-1.1l.9-.6c.2-.1.5-.1.6.1s.1.5-.1.6Zm0-12.5v1.1l-1.1.7v-1.1l1.1-.7Zm0,1.7a10.916,10.916,0,0,0-1.1.6v1a.349.349,0,0,0,.2-.1,9.211,9.211,0,0,0,.8-.5v-1Zm0,1.4v1.1c-.1.1-.3.1-.4.2a5.73,5.73,0,0,0-.7.4v-1.1a.367.367,0,0,1,.3-.1,9.219,9.219,0,0,0,.8-.5Zm0,1.5c-.4.2-.7.5-1.1.7v1.1a10.542,10.542,0,0,1,1.1-.7V524Zm0,1.2v1.1a3.744,3.744,0,0,1-1,.6h-.1v-1.1a4.072,4.072,0,0,0,1.1-.6Zm0,1.3a5.972,5.972,0,0,1-1.1.6v1.1a10.9,10.9,0,0,1,1.1-.6v-1.1Zm0,1.3v1.1a4.051,4.051,0,0,1-.9.5c-.1,0-.1.1-.2.1v-1a4.133,4.133,0,0,1,1.1-.7Zm0,1.3-1,.7h0v.8a.454.454,0,0,0,.5,0l.5-.3v-1.2Zm0,1.7v1.1l-.2.1c-.2.1-.5.1-.6-.1s-.1-.5.1-.6l.7-.5Zm0,1.7v1.1c-.2,0-.3,0-.4-.2a.377.377,0,0,1,.1-.6q.15-.3.3-.3Zm0,12.4V546l-1.1.7v-1.1l1.1-.7Zm0,1.4-1.1.7v1.1l1.1-.7v-1.1Zm0,1.5v.9c-.1,0-.2-.1-.3-.2-.1-.2-.1-.5.1-.6l.2-.1Zm0,4.3v1.1l-1.1.7v-1.1l1.1-.7Zm0,1.9v1.1l-.8.5a.367.367,0,0,1-.3.1v-1l.8-.5.3-.2Zm0,21.1v1.1l-1.1.6v-2.1a.764.764,0,0,1,.5.2.471.471,0,0,1-.1.6l.7-.4Zm0,1.3-1.1.7v1.1l1.1-.7v-1.1Zm0,1.7v1.1c-.4.2-.7.4-1.1.6v-1.1a5.583,5.583,0,0,0,.8-.5l.3-.1Zm0,1.7c-.4.2-.7.4-1.1.6v2.1l1.1-.6v-2.1Zm0,2.9v.7l-.1-.1a.471.471,0,0,1,.1-.6Zm-1.1-38v-1c.1,0,.3.1.3.2.1.2.1.5-.1.6l-.2.2Zm0-1v-1c.1,0,.3.1.3.2.1.2.1.5-.1.6l-.2.2Zm0-2.3v-1c.1,0,.3.1.3.2.1.2.1.5-.1.6l-.2.2Zm0-1.7v-1.5c.1,0,.3.1.3.2a.446.446,0,0,1,0,.5c.1.2.1.5-.1.6l-.2.2Zm0-2.6v-.7l.1.1A.471.471,0,0,1,719.7,537.1Zm0-17v1.1l-.4.2v-1.1l.4-.2Zm0,1.6v1c-.1.1-.2.1-.4.2v-1.1c.1,0,.1-.1.2-.1.1.1.2.1.2,0Zm0,1.4v1.1c-.1.1-.2.1-.4.2v-1.1c.2-.1.3-.1.4-.2Zm0,1.6v1.1l-.4.2v-1.1l.4-.2Zm0,1.2a.758.758,0,0,1-.4.2v1.1l.2-.1.2-.1v-1.1Zm0,1.3v1.1h-.1a.367.367,0,0,1-.3.1v-1c.2-.1.3-.2.4-.2Zm0,1.2v1a.6.6,0,0,1-.4-.1v-.7a.1.1,0,0,0,.1-.1c.1,0,.2-.1.3-.1Zm0,1.4v.8l-.1-.1c-.1-.3-.1-.6.1-.7Zm0,6.6v.7l-.1.1-.3.2v-1c.2-.1.3-.1.4,0Zm0,1.8v1.5l-.4.2v-1.6h.1a.367.367,0,0,1,.3-.1Zm0,2.2v1l-.4.2v-1.1h.1a.367.367,0,0,1,.3-.1Zm0,2.3v1l-.1.1h.1v1l-.4.2v-2.2h.1a.368.368,0,0,1,.3-.1Zm0,2.8v1.1l-.4.2v-1.1l.4-.2Zm0,1.4V548l-.4.2v-1.1l.4-.2Zm0,5.9v1.1l-.4.2V553l.4-.2Zm0,1.8v1a.758.758,0,0,1-.4-.2h0v-.5c0-.1.1-.1.2-.2l.2-.1Zm0,20.1v2.1l-.4.2v-2.1l.2-.1a.31.31,0,0,1,.2-.1Zm0,2.4v1.1l-.4.2v-1.1l.4-.2Zm0,1.6v1.1l-.4.2v-1l.4-.3Zm0,1.7v2.1l-.4.2v-2.1l.4-.2Zm-.3-10.8v-.5a.446.446,0,0,1,0,.5Zm0-1.2v-.5a.446.446,0,0,1,0,.5Zm0-1.6v-.5h0a.454.454,0,0,1,0,.5Zm0-1.7v-.5h0a.446.446,0,0,1,0,.5Zm0-1.3v-.5h0c.1.2,0,.3,0,.5Zm0-1.7v-.5h0c.1.2,0,.4,0,.5Zm0-2.1v-.5h0c.1.1,0,.3,0,.5Zm0-1.4v-.5h0a.446.446,0,0,1,0,.5Zm0-1.3v-.5h0a.446.446,0,0,1,0,.5Zm0-1.4a.446.446,0,0,0,0-.5v.5Zm0-20.1v-.6h0A.629.629,0,0,1,719.4,535.8Zm0-15.5v1.1c-.5.3-1,.6-1.4.9v-1.1c.4-.3.9-.6,1.4-.9Zm0,1.6c-.3.2-.8.4-1.4.8v1.1c.6-.3,1-.6,1.4-.8v-1.1Zm0,1.4v1.1a8.048,8.048,0,0,0-1.4.9v-1.1a8.048,8.048,0,0,1,1.4-.9Zm0,1.6c-.5.3-1,.6-1.4.9v1.1c.5-.3.9-.6,1.4-.9v-1.1Zm0,1.2v1.1l-.2.1c-.2.1-.5.1-.6-.1s-.1-.5.1-.6.3-.2.4-.2c0-.2.1-.2.3-.3Zm0,1.3-.2.1a.481.481,0,0,0-.2.6.52.52,0,0,0,.4.2v-.9Zm0,1.2v.7l-.1-.1c-.1-.2-.1-.5.1-.6Zm0,6.6v.6l-.1.1-1.3.9v-1.1l.8-.5c.1-.2.4-.2.6,0Zm0,1.1c-.1,0-.2,0-.2.1l-.3.2-.9.6v1.1l1.4-.9h0v-1.1Zm0,2v1.6c-.2.1-.4.3-.6.4a5.553,5.553,0,0,0-.8.6v-1.6l1.4-1Zm0,2.2a7.009,7.009,0,0,1-.9.6,6.117,6.117,0,0,0-.6.4v1.1l.2-.1a3.488,3.488,0,0,1,.9-.6l.3-.2v-1.2Zm0,2.3V545c-.4.3-.9.6-1.4,1v-2.2a7.1,7.1,0,0,1,1.4-1Zm0,2.9-1.4.9v1.1l1.4-.9v-1.1Zm0,1.5v1.1l-.7.5c-.2.1-.5.1-.6-.1a.1.1,0,0,0-.1-.1v-.3c0-.1.1-.2.2-.3l1.2-.8Zm0,5.8v1.1l-.5.3-.9.6v-1.1l.5-.3.9-.6Zm0,1.9a.446.446,0,0,0,0,.5v-.5Zm0,.5v.5c0,.1-.1.1-.2.2a14.806,14.806,0,0,1-1.3.8v-1.1l.8-.5a.494.494,0,0,1,.7.1Zm0,1.5a.481.481,0,0,0-.6-.2l-.8.5v1.1l1.3-.8c.1,0,.1-.1.2-.2v-.4Zm0,1.2v.5c0,.1-.1.1-.2.2l-1.3.7v-1.1l.8-.5a.952.952,0,0,1,.7.2Zm0,1.4a.481.481,0,0,0-.6-.2l-.8.5v1.1c.6-.3,1-.6,1.3-.7.1,0,.1-.1.2-.2v-.5Zm0,2.1v.5c0,.1-.1.1-.2.2l-1.2.7v-1.1l.8-.5a.735.735,0,0,1,.6.2Zm0,1.7v.5c0,.1-.1.1-.2.2l-1.3.7v-1.1l.8-.5a.618.618,0,0,1,.7.2Zm0,1.3a.481.481,0,0,0-.6-.2l-.8.5V566l1.3-.7c.1,0,.1-.1.2-.2v-.5Zm0,1.7v.5c0,.1-.1.1-.2.2a8.793,8.793,0,0,1-1.3.7v-1.1l.8-.5a.663.663,0,0,1,.7.2Zm0,1.6h0a.481.481,0,0,0-.6-.2l-.8.5v1.1l1.3-.8c.1,0,.1-.1.2-.2v-.4Zm0,1.3v.5c0,.1-.1.1-.2.2l-1.3.8v-1.1l.8-.5a.428.428,0,0,1,.7.1Zm0,5.7V577l-.1.1-1.3.8v-2.1a4.194,4.194,0,0,1,1.4-.9Zm0,2.4-.7.4-.8.5v1.1l1.2-.8.2-.1v-1.1Zm0,1.7v1.1c-.5.3-1,.6-1.4.8v-1.1a6.377,6.377,0,0,1,1.4-.8Zm0,1.6c-.5.3-1,.6-1.4.8v1c.1,0,.2,0,.2-.1l.4-.2a.446.446,0,0,0,0,.5.481.481,0,0,0,.6.2l.1-.1v-2.1Zm-1.5-27.1.8-.5a.43.43,0,0,0-.5-.7l-.3.2v1Zm0-17.9a8.647,8.647,0,0,0,1-.7.43.43,0,0,0-.5-.7c-.2.1-.3.2-.5.3v1.1Zm0-1.9v-1.1h0c.2-.1.5-.1.6.1s.1.5-.1.6l-.5.4Zm0-1.7v-.9a.215.215,0,0,1,.2.2c.1.2.1.5-.1.6Zm0-10.8v1.1l-.3.2v-1.1l.3-.2Zm0,1.5v1.1l-.3.2v-1.1l.3-.2Zm0,1.5v1.1l-.3.2v-1.1l.3-.2Zm0,1.6v1.1l-.3.2V526l.3-.2Zm0,5.3v.9l-.3.2v-1.1Zm0,1.5v1.1l-.3.2v-1.1l.3-.2Zm0,1.9v1.1l-.3.2v-1.1l.3-.2Zm0,1.2-.3.2V537l.3-.2v-1.1Zm0,1.5v1.1l-.3.2v-1.1l.3-.2Zm0,2.1v1.6l-.3.2h0v-1.6l.3-.2Zm0,2.1v1.1l-.3.2v-1.1l.3-.2Zm0,2.3v2.2l-.3.2V544l.3-.3Zm0,2.9v1.1l-.3.2v-1.1l.3-.2Zm0,1.6v0Zm0,4.2v1.1l-.3.2v-1.1l.3-.2Zm0,1.5V555l-.3.2v-1.1l.3-.2Zm0,1.8v1.1l-.1.1-.2.1v-1.1l.3-.2Zm0,1.5v1.1l-.1.1-.2.1v-1.1l.3-.2Zm0,1.3-.3.2v1.1l.2-.1.1-.1v-1.1Zm0,1.3v1.1l-.1.1-.2.1V560l.3-.2Zm0,2.1V563l-.3.2v-1.1l.3-.2Zm0,1.7v1.1l-.3.2v-1.1l.3-.2Zm0,1.3V566l-.1.1h0l-.2.1v-1.1l.3-.2Zm0,1.7v1.1l-.1.1-.2.1v-1.1l.3-.2Zm0,1.6v1.1l-.1.1-.2.1v-1.1l.3-.2Zm0,1.3-.3.2v1.1h0l.3-.2v-1.1Zm0,6.2v2.1l-.3.2v-2.1l.3-.2Zm0,2.5v1.1l-.3.2v-1.1l.3-.2Zm0,1.6v1.1l-.3.2V580l.3-.2Zm0,1.7v1c-.1,0-.3-.1-.3-.2v-.6l.1-.1.2-.1Zm-.3-6.1v-.5a.446.446,0,0,1,0,.5Zm0-44.9v-.8c.1,0,.1.1.2.2a.481.481,0,0,1-.2.6Zm0-9.6V520c.1,0,.1.1.2.2a.527.527,0,0,1-.2.7Zm0-.9v.8l-1.1.7v-1.1l.6-.4Zm0,1.5-1.1.7v1.1l1.1-.7v-1.1Zm0,1.4V524c-.3.2-.7.4-1.1.7v-1.1a10.546,10.546,0,0,0,1.1-.7Zm0,1.5c-.3.2-.7.4-1.1.7v1.1c.4-.2.7-.5,1.1-.7v-1.1Zm0,1.6v1.1l-.3.2a.367.367,0,0,1-.3.1c0,.1-.1.2-.2.3l-.2.2v-1h.1c0-.1.1-.2.2-.3a4.354,4.354,0,0,1,.7-.6Zm0,3.7v.8c-.3.2-.7.4-1.1.7v-1.1c.2-.1.4-.3.6-.4a.446.446,0,0,1,.5,0Zm0,1.4h0l-1.1.7v1.1l1.1-.7v-1.1Zm0,1.7v1.1a10.536,10.536,0,0,0-1.1.7v-1.1l1.1-.7Zm0,1.9v1.1a10.542,10.542,0,0,1-1.1.7v-1.1a4.129,4.129,0,0,0,1.1-.7Zm0,1.2-1.1.7v1.1l1.1-.7v-1.1Zm0,1.5v1.1l-1.1.7v-1.1l1.1-.7Zm0,2.1v1.6l-1.1.7v-1.6l1.1-.7Zm0,2.2h0l-1.1.7v1.1l1.1-.7v-1.1Zm0,2.3v2.2l-1.1.7v-1.1l.5-.3-.5.3v-1.1l1.1-.7Zm0,2.9-1.1.7v1.1l1.1-.7v-1.1Zm0,5.7v1.1l-.9.6-.2.1v-2.2l.1-.1c.2-.1.5-.1.6.1a.446.446,0,0,1,0,.5l.4-.1Zm0,1.5-1.1.7v1.1l1.1-.7v-1.1Zm0,1.8V557c-.5.3-.8.5-1.1.7v-1.1l.8-.5.3-.2Zm0,1.5-.3.2-.8.5v1.1c.4-.2.7-.4,1.1-.6v-1.2Zm0,1.3v1.1l-1.1.6v-1.1l.9-.5.2-.1Zm0,1.3-.2.1a9.211,9.211,0,0,0-.8.5v1.1a10.9,10.9,0,0,1,1.1-.6V560Zm0,2.1v1.1l-1.1.6v-1.1l1.1-.6Zm0,1.7-1.1.6v1.1l.3-.2.8-.4v-1.1Zm0,1.4v1.1c-.4.2-.7.4-1.1.6v-1.1l.8-.5h0l.3-.1Zm0,1.6-.3.2-.8.5v1.1c.4-.2.7-.4,1.1-.6v-1.2Zm0,1.7v1.1l-1.1.7v-1.1l.8-.5.3-.2Zm0,1.2-.5.3a.377.377,0,0,0-.1.6.481.481,0,0,0,.6.2v-1.1Zm0,5.1v.6l-.1.1a8.782,8.782,0,0,1-1,.6V575l.5-.3a.377.377,0,0,1,.6.1Zm0,1.1c-.4.2-.7.4-1.1.6v2.1l1.1-.6v-2.1Zm0,2.5v1.1l-1.1.7v-1.1l1.1-.7Zm0,1.6c-.4.2-.7.4-1.1.6v1.1h0c.3-.2.7-.4,1-.6V580Zm0,1.7v.5c-.2-.1-.1-.4,0-.5ZM716.5,530c.3-.2.5-.3.8-.5a.481.481,0,0,0,.2-.6.52.52,0,0,0-.4-.2c.2-.1.2-.4.1-.6a.377.377,0,0,0-.6-.1h0v2Zm0-9.5v1.1l-1.5.9v-1.1l1.5-.9Zm0,1.7-1.5.9v1.1l1.5-.9v-1.1Zm0,1.4v1.1c-.5.3-.9.6-1.5.9v-1.1a9.876,9.876,0,0,0,1.5-.9Zm0,1.5c-.5.3-.9.6-1.5.9v1.1l1.5-.9v-1.1Zm0,1.7v1l-1.5.9v-1.1a8.344,8.344,0,0,0,1.2-.8Zm0,1.1c-.4.3-.9.6-1.5,1v2a11.909,11.909,0,0,1,1.5-.9v-2.1Zm0,2.2v1.1c-.4.3-.9.6-1.5,1V531a9.876,9.876,0,0,0,1.5-.9Zm0,1.7-1.5.9v1.1a9.886,9.886,0,0,1,1.5-.9v-1.1Zm0,1.7v1.1c-.5.3-.8.5-1.2.7l-.3.2v-1.1l1.5-.9Zm0,2a13.024,13.024,0,0,0-1.5,1v1.1c.5-.3,1-.7,1.5-1v-1.1Zm0,1.1v1.1l-1.5,1v-1.1l1.5-1Zm0,1.5-1.5,1v1.1l1.5-1v-1.1Zm0,2.1v1.6c-.5.3-1,.7-1.5,1v-1.6l1.5-1Zm0,2.2-1.5,1v1.1l1.5-1v-1.1Zm0,2.3v1.1a13.024,13.024,0,0,0-1.5,1v-1.1a13.024,13.024,0,0,1,1.5-1Zm0,1.1c-.5.3-1,.7-1.5,1v1.1l1.5-1v-1.1Zm0,1.7v1.1l-.3.2c-.2.1-.5.1-.6-.1s-.1-.5.1-.6l.8-.6Zm0,4.7v2.2l-1.5.9v-2.1l1.5-1Zm0,2.6-.5.3a.447.447,0,0,0,.4.8h.1v-1.1Zm0,1.8v1.1h-.1a.447.447,0,0,1-.4-.8l.5-.3Zm0,1.4v1.1h-.1a.447.447,0,0,1-.4-.8l.5-.3Zm0,1.3v1.1h-.1a.447.447,0,0,1-.4-.8l.5-.3Zm0,1.3v1.1h-.1a.447.447,0,0,1-.4-.8l.5-.3Zm0,2.2v1.1h-.1a.447.447,0,0,1-.4-.8l.5-.3Zm0,1.6v1.1h-.1a.447.447,0,0,1-.4-.8l.4-.2.1-.1Zm0,1.4v1.1h-.1a.447.447,0,0,1-.4-.8l.5-.3Zm0,1.7v1.1h-.1a.447.447,0,0,1-.4-.8l.5-.3Zm0,1.6v1.1h-.1a.447.447,0,0,1-.4-.8l.5-.3Zm0,5.9v1.1a10.932,10.932,0,0,1-1.5.8v-1.1c.5-.3,1-.5,1.5-.8Zm0,1.6-.7.4-.8.4v2.1c.5-.3.9-.6,1.5-.9v-2Zm0,2.5v1.1l-1.3.8a.1.1,0,0,0-.1.1V580l1.4-.9Zm0,1.5-.4.2a.447.447,0,1,0,.4.8v-1Zm-1.4-5.1.4-.2a.481.481,0,0,0,.2-.6.365.365,0,0,0-.5-.2v1Zm0-54.1v1.1l-1.2.8v-1.1l1.2-.8Zm0,1.7c-.4.2-.7.5-1.1.7l-.1.1V525l.6-.4.6-.4v-1.1Zm0,1.4v1.1a8.344,8.344,0,0,0-1.2.8v-1.1c.4-.3.8-.5,1.2-.8Zm0,1.5a8.344,8.344,0,0,0-1.2.8v1.1c.4-.3.8-.5,1.2-.8V526Zm0,1.7v1.1c-.4.3-.8.5-1.2.8v-1.1a3.6,3.6,0,0,1,1.2-.8Zm0,1.2c-.4.3-.8.5-1.2.8v2c.4-.3.8-.5,1.2-.8v-2Zm0,2.1v1.1c-.4.3-.8.5-1.2.8v-1.1a8.34,8.34,0,0,0,1.2-.8Zm0,1.7-.7.4-.6.4v1.1c.3-.2.6-.4,1.1-.7l.2-.1v-1.1Zm0,1.7v1.1a11.853,11.853,0,0,0-1.2.8v-1.1a8.782,8.782,0,0,1,1-.6l.2-.2Zm0,2v1.1c-.4.3-.8.5-1.2.8v-1.1a8.34,8.34,0,0,0,1.2-.8Zm0,1.2-1.2.8v1.1l1.2-.8v-1.1Zm0,1.5v1.1l-1.2.8v-1l1.2-.9Zm0,2.1v1.6l-.6.4-.6.4V542l1.2-.8Zm0,2.2-.7.5-.5.4v1.1l1.1-.7.2-.1v-1.2Zm0,2.2v1.1l-1.2.8v-1.1l1.2-.8Zm0,1.2-1.2.8v1.1l1.2-.8v-1.1Zm0,6.4v2.1l-.4.2c-.2.1-.5.1-.6-.1a.3.3,0,0,1,0-.4l-.1.1V554l1.1-.7h0v-.1Zm0,21.3v1.1c-.4.2-.8.5-1.2.7v-1.1l1.1-.6c0-.1,0-.1.1-.1Zm0,1.3a10.536,10.536,0,0,0-1.1.7l-.1.1v1.1l.6-.3.7-.4v-1.2Zm0,1.6v2.1a7.461,7.461,0,0,1-1.2.7v-2.1c.3-.2.7-.4,1.2-.7Zm0,2.6-.4.2a.481.481,0,0,0-.2.6.365.365,0,0,0,.5.2v-1Zm-1.3-5.4a.446.446,0,0,0,0-.5v.5Zm0-21.2.7-.5a.43.43,0,0,0-.5-.7l-.2.1Zm0-31.2v1.1l-.9.6-.4.3V523a9.125,9.125,0,0,0,1.3-.8Zm0,1.7c-.5.3-.9.6-1.3.8v1.1c.4-.2.8-.5,1.3-.8v-1.1Zm0,1.4v1.1h0c-.4.3-.8.5-1.2.8v-1.1l.7-.5.5-.3Zm0,1.5c-.3.2-.5.3-.8.5l-.5.3v1.1c.3-.2.7-.4,1-.6l.3-.2v-1.1Zm0,1.6v1.1c-.2.1-.4.3-.6.4s-.4.3-.6.4v-1.1l.2-.1c.3-.2.6-.4,1-.7Zm0,1.3a5.671,5.671,0,0,1-1.3.8v2c.4-.3.9-.6,1.3-.9v-1.9Zm0,2.2V533a14.645,14.645,0,0,1-1.3.9v-1.1a7.7,7.7,0,0,1,1.3-.9Zm0,1.6c-.5.3-.9.6-1.1.7h0l-.2.1v1.1a6.83,6.83,0,0,0,.7-.5h0c.1-.1.3-.2.5-.4v-1Zm0,1.7v1.1l-.1.1h0a4.823,4.823,0,0,1-1.2.8v-1.1c.3-.2.5-.3.6-.5h0a5.728,5.728,0,0,0,.7-.4Zm0,2.1v1.1a14.645,14.645,0,0,1-1.3.9v-1.1a7.705,7.705,0,0,1,1.3-.9Zm0,1.1-1.3.9v1.1l1.3-.9v-1.1Zm0,1.6v1.1l-1.3.9v-1.1l1.3-.9Zm0,2v1.6l-1.3.9v-1.7l1.3-.8Zm0,2.2-1.3.9v1.1l1.3-.9v-1.1Zm0,2.2v1.1a9.135,9.135,0,0,1-1.3.8v-1.1l1.3-.8Zm0,1.2-.8.5-.5.3v1.1l1-.7.3-.2v-1Zm0,4.7v1.1l-.2.1c-.2.1-.5.1-.6-.1s-.1-.5.1-.6l.7-.5Zm0,1.7v1.1l-.2.1c-.2.1-.5.1-.6-.1s-.1-.5.1-.6l.7-.5Zm0,20v.6l-.1.1c-.3.2-.7.4-1.1.7v-1.1l.7-.4a.348.348,0,0,1,.5.1Zm0,1.2a8.27,8.27,0,0,1-1.3.7V577l.3-.2,1-.6v-1Zm0,1.3v1.1a8.27,8.27,0,0,1-1.3.7v-1.1a5.388,5.388,0,0,0,1.3-.7Zm0,1.6c-.4.3-.9.5-1.3.8v.9h.4l.2-.1a.446.446,0,0,0,0,.5.481.481,0,0,0,.6.2h0v-2.3Zm-1.2-4.1h0c.3-.2.4-.5.2-.7-.1-.1-.1-.2-.2-.2Zm0-51v1.1c-.6.4-1.1.7-1.4.9v-1.1c.4-.2.8-.5,1.3-.8l.1-.1Zm0,1.7c-.5.3-1,.6-1.4.9v1.1a15.141,15.141,0,0,0,1.4-.9v-1.1Zm0,1.4v1.1c-.5.3-.9.6-1.4.9V527c.4-.3.9-.6,1.4-.9Zm0,1.5c-.5.3-.9.6-1.4.9v1.1c.5-.3.9-.6,1.4-.9v-1.1Zm0,1.6v1.1c-.6.3-1,.6-1.3.7a.1.1,0,0,0-.1.1v-1a6.8,6.8,0,0,1,1.4-.9Zm0,1.3c-.5.3-.9.6-1.4.9v2c.5-.3.9-.6,1.4-.9v-2Zm0,2.2v1.1a12.128,12.128,0,0,0-1.4,1v-1.1a16.97,16.97,0,0,1,1.4-1Zm0,1.7c-.3.2-.8.6-1.4,1v1.1c.5-.4,1-.7,1.4-1v-1.1Zm0,1.7v1.1c-.4.3-.9.6-1.4,1v-1.1a9.389,9.389,0,0,1,1.4-1Zm0,2c-.5.3-.9.6-1.4.9v1.1c.5-.3.9-.6,1.4-.9v-1.1Zm0,1.2v1.1l-1.4.9v-1.1l1.4-.9Zm0,1.5-1.4.9v1.1l1.4-.9v-1.1Zm0,2v1.7l-1.4.9v-1.7l1.4-.9Zm0,2.3-1.4.9v1.1l1.4-.9v-1.1Zm0,2.2v1.1c-.5.3-.9.6-1.4.9v-1.1c.4-.3.9-.6,1.4-.9Zm0,1.2-1.4,1v1.1l1.4-1v-1.1Zm0,24.6v.9l-1.4.9v-1.1l1-.6c.1-.2.2-.2.4-.1Zm0,1.2c-.6.3-1,.6-1.4.8v1.1l.2-.1,1.2-.7v-1.1Zm0,1.6V577c-.5.3-1,.6-1.4.8v-1.1c.4-.2.9-.5,1.3-.7l.1-.1Zm0,1.4c-.5.3-1,.6-1.4.8v.8a.446.446,0,0,0,.5,0,4.051,4.051,0,0,1,.9-.5v-1.1Zm0,1.6v.9a.215.215,0,0,1-.2-.2c-.2-.3-.1-.5.2-.7Zm-1.4-5.4.7-.5a.43.43,0,0,0-.5-.7l-.2.2v1Zm0-1.7V571c.1,0,.1.1.2.2a.481.481,0,0,1-.2.6Zm0-19.8v-1a.764.764,0,0,1,.5.2c.1.2.1.5-.1.6Zm0-28.1V525c-.2.1-.4.3-.5.3h0v-1.1c.1,0,.3-.2.5-.3Zm0,1.6v1.1a2.185,2.185,0,0,0-.5.3v-1.1a.914.914,0,0,0,.5-.3Zm0,1.5v1.1l-.5.3v-1.1l.5-.3Zm0,1.5v1.1l-.5.3v-1.1l.5-.3Zm0,1.5v1a2.185,2.185,0,0,1-.5.3v-1.1a.367.367,0,0,1,.3-.1.349.349,0,0,1,.2-.1Zm0,1.5v2l-.5.4v-2l.5-.4Zm0,2.2-.5.4v1.1l.5-.4v-1.1Zm0,1.6v1.1l-.5.4v-1.1l.5-.4Zm0,1.8v1.1l-.5.4v-1.1l.5-.4Zm0,1.9v1.1l-.5.3v-1.1l.5-.3Zm0,1.2-.5.3v1.1l.5-.3v-1.1Zm0,1.6v1.1l-.5.3v-1.1l.5-.3Zm0,2v1.7l-.5.3v-1.7l.5-.3Zm0,2.2v1.1l-.5.3v-1.1l.5-.3Zm0,2.2v1.1l-.5.3v-1.1l.5-.3Zm0,1.3-.5.4V551l.5-.4v-1.1Zm0,1.5v1l-.5.3v-1.1l.3-.2Zm0,20v.8c-.2.1-.3.2-.5.3V571h0a.446.446,0,0,1,.5,0Zm0,1.5v1.1l-.5.3v-1.1l.5-.3Zm0,1.2-.5.3v1.1l.5-.3v-1.1Zm0,1.4v1.1l-.5.3v-1.1l.3-.1.2-.2Zm0,1.6v1.1l-.5.3V577l.5-.3Zm0,1.4h0a.481.481,0,0,0-.2.6c0,.1.1.1.2.2v-.8Zm-.6-7.6v-1c.1,0,.2.1.3.2.1.2.1.5-.1.6l-.2.2Zm0-1.7V568a.215.215,0,0,1,.2.2c.2.2.1.5-.2.6Zm0-1.6v-.7l.1.1c.2.2.1.4-.1.6Zm0-2v-.5c.2.2.2.4,0,.5Zm0-1.4v-.5h0a.446.446,0,0,1,0,.5Zm0-1.3V562h0a.446.446,0,0,1,0,.5Zm0-1.3v-.5h0a.454.454,0,0,1,0,.5Zm0-1.8v-.6h0a.438.438,0,0,1,0,.6Zm0-1.4v-.7a.1.1,0,0,0,.1.1c.1.2.1.5-.1.6Zm0-.8v-.7l.1.1c.2.1.1.4-.1.6Zm0-1.7v-.9c.1,0,.1.1.2.2.2.2.1.5-.2.7Zm0-1.6v-1c.1,0,.2.1.3.2.1.2.1.5-.1.6Zm0-29.7v1.1a9.818,9.818,0,0,0-1,.7c-.4.3-1,.7-1.7,1.2-.2.1-.5.1-.6-.1s-.1-.5.1-.6c.6-.4,1.2-.8,1.7-1.2.5-.3.9-.6,1.1-.7l.4-.4Zm0,1.6a2.185,2.185,0,0,0-.5.3c-.4.2-1.1.7-2.1,1.3-1.1.7-2.5,1.7-4.1,2.8a.43.43,0,1,0,.5.7c1.6-1.1,3-2,4.1-2.8,1-.6,1.7-1.1,2-1.3h.1v-1Zm0,1.5c-2.7,1.8-5.7,3.7-8.7,5.7a.43.43,0,1,0,.5.7c2.8-1.9,5.7-3.8,8.2-5.4v-1Zm0,1.6V530c-3,2-6.4,4.3-9.7,6.5-.2.1-.5.1-.6-.1s-.1-.5.1-.6c3.5-2.5,7.1-4.9,10.2-6.9Zm0,1.4v1.1c-1.6,1-5.1,3.5-9.1,6.3l-1.6,1.1c-.2.1-.5.1-.6-.1s-.1-.5.1-.6L701,537a103.106,103.106,0,0,1,9.6-6.7Zm0,1.5v2l-.2.1c-3.6,2.5-7.9,5.5-11.8,8.2-.2.1-.5.1-.6-.1s-.1-.5.1-.6c.9-.7,1.9-1.3,2.8-2l-1.8,1.2c-.2.1-.5.1-.6-.1s-.1-.5.1-.6c2.9-2,6-4.1,8.9-6,1.1-.8,2.2-1.5,3.1-2.1Zm0,2.3a23.086,23.086,0,0,0-1.9,1.4c-3.5,2.5-7.5,5.4-11.1,8-.2.2-.3.4-.1.6s.4.3.6.1c3.5-2.6,7.5-5.5,11.1-8,.5-.3.9-.7,1.4-1v-1.1Zm0,1.6c-1.4,1-3.2,2.3-5.4,3.8-2.7,1.9-5.5,3.9-8,5.7a.43.43,0,1,0,.5.7c2.8-2,5.6-4,8-5.7,1.8-1.3,3.5-2.5,4.8-3.4v-1.1Zm0,1.7c-1.4,1-3.3,2.4-5.4,3.8-2.6,1.8-5.5,3.9-8.3,5.9a.43.43,0,1,0,.5.7c2.6-1.9,5.6-4,8.3-5.9,1.8-1.3,3.5-2.5,4.8-3.4v-1.1Zm0,2c-3.7,2.5-7.8,5.1-11.3,7.4l-2.4,1.6a.43.43,0,1,0,.5.7l2.4-1.6c3.3-2.2,7.2-4.7,10.8-7.1v-1Zm0,1.2c-1.3.9-2.7,1.8-4,2.7-3.8,2.6-7.3,4.9-9.8,6.7a.43.43,0,1,0,.5.7c2.8-1.9,6.2-4.2,9.8-6.7,1.1-.8,2.3-1.5,3.5-2.3v-1.1Zm0,1.5c-5.2,3.5-10.3,6.9-13.8,9.1a.43.43,0,1,0,.5.7c3.4-2.2,8.2-5.4,13.3-8.8v-1Zm0,2v1.7c-4.2,2.8-9.3,6.3-13.1,8.9-.2.1-.5.1-.6-.1s-.1-.5.1-.6l.2-.2a.52.52,0,0,1-.4-.2.4.4,0,0,1,.2-.6c2.4-1.5,5.5-3.5,9-5.8,1.5-1,3-2.1,4.6-3.1Zm0,2.3v1.1c-4.2,2.8-9.2,6.2-12.9,8.8-.2.1-.5.1-.6-.1s-.1-.5.1-.6c3.9-2.8,9.2-6.4,13.4-9.2Zm0,2.1v1.1c-.9.6-1.8,1.2-2.7,1.7-3.9,2.6-7.5,4.9-10,6.4-.2.1-.5.1-.6-.1s-.1-.5.1-.6c2.5-1.6,6.1-3.9,10-6.4,1.1-.7,2.2-1.4,3.2-2.1Zm0,1.3v1.1c-2.6,1.8-5.2,3.6-7.7,5.2l.4-.2c2.2-1.4,4.7-3,7.3-4.7v1.1c-2.5,1.6-4.8,3.1-6.8,4.4-2.2,1.4-4.1,2.7-5.3,3.6-.2.1-.5.1-.6-.1s-.1-.5.1-.6c.5-.4,1.1-.8,1.8-1.3-.6.4-1.1.7-1.6,1-.2.1-.5.1-.6-.1s-.1-.5.1-.6c3.5-2.3,8.4-5.7,12.9-8.8Zm0,3.1a.367.367,0,0,0-.3.1c-2.6,1.7-5,3.2-7,4.6s-3.7,2.5-4.9,3.4c-.2.2-.3.4-.1.6s.4.3.6.1c1.2-.8,2.8-2,4.9-3.3,2-1.3,4.3-2.9,6.8-4.5v-1Zm0,1.7a.3.3,0,0,0-.4,0c-2.3,1.5-4.6,3-6.6,4.3-1.8,1.2-3.5,2.3-4.8,3.1a.43.43,0,1,0,.5.7c1-.6,2.7-1.7,4.8-3.1,2-1.3,4.2-2.7,6.5-4.2v-.8Zm0,1.8a.446.446,0,0,0-.5,0c-2,1.3-3.9,2.6-5.7,3.7-2,1.3-3.8,2.4-5.1,3.3a.377.377,0,0,0-.1.6.1.1,0,0,0,.1.1c0,.1,0,.2.1.2a.481.481,0,0,0,.6.2c.9-.5,2.3-1.3,4-2.4,2-1.2,4.2-2.6,6.6-4.1a.1.1,0,0,0,.1-.1v-.7a.349.349,0,0,0-.2-.1l.1-.1h0v-.6Zm0,2.5c-.1-.2-.4-.2-.6-.1-2.4,1.5-4.5,2.8-6,3.7-1.7,1.1-3.1,1.9-3.9,2.5a.43.43,0,1,0,.5.7c.9-.6,2.3-1.5,3.9-2.5,1.9-1.2,4-2.5,6-3.7a.1.1,0,0,0,.1-.1v-.5Zm0,1.8v.5c0,.1-.1.1-.2.2-2.2,1.3-4.2,2.5-5.9,3.4-1.5.9-2.8,1.6-3.6,2a.447.447,0,1,1-.4-.8c.8-.4,2.1-1.1,3.6-1.9,1.7-.9,3.7-2.1,5.9-3.4a.332.332,0,0,1,.6,0Zm0,1.3v.5c0,.1-.1.1-.2.2-2,1.2-3.9,2.2-5.5,3.1-1.5.8-2.7,1.5-3.5,1.9a.447.447,0,1,1-.4-.8c.8-.4,2-1,3.5-1.8,1.5-.9,3.4-1.9,5.5-3.1a.332.332,0,0,1,.6,0Zm0,1.3v.5a.1.1,0,0,1-.1.1c-1.7,1-3.2,1.9-4.6,2.7s-2.6,1.6-3.6,2.3c-.2.1-.5.1-.6-.1s-.1-.5.1-.6c1-.6,2.2-1.4,3.7-2.3,1.4-.9,3-1.8,4.6-2.7.1-.2.4-.1.5.1Zm0,1.4v.6l-.1.1c-1.5.9-3,1.8-4.3,2.7-1.2.8-2.3,1.5-3.2,2.1-.2.1-.5.1-.6-.1s-.1-.5.1-.6c.9-.6,2-1.3,3.2-2.1,1.3-.8,2.8-1.7,4.3-2.7a.332.332,0,0,1,.6,0Zm0,1.7a.446.446,0,0,0-.5,0c-1,.6-2.2,1.3-3.7,2.1-1.2.7-2.2,1.3-3.1,1.8a.447.447,0,1,0,.4.8c.9-.5,2-1.1,3.1-1.8.8-.5,2.1-1.2,3.7-2.1h.1v-.8Zm0,1.6a.3.3,0,0,0-.4,0c-.8.5-1.9,1.1-3.3,1.9-1.1.6-2.1,1.2-2.8,1.6a.447.447,0,1,0,.4.8c.9-.5,1.9-1.1,2.8-1.6.6-.4,1.8-1,3.2-1.9V568Zm0,1.5a.367.367,0,0,0-.3.1c-1.1.7-2.1,1.3-3,1.9s-1.6,1.1-2.1,1.5a.5.5,0,1,0,.6.8,21.868,21.868,0,0,1,2-1.4c.8-.5,1.7-1.1,2.8-1.8v-1.1Zm0,1.6v1.1c-.7.4-1.3.9-2,1.3a20.162,20.162,0,0,0-1.9,1.3c-.2.1-.5.1-.6-.1s-.1-.5.1-.6c.5-.4,1.2-.8,1.9-1.3a27.085,27.085,0,0,1,2.5-1.7Zm0,1.7v1.1l-1.1.7c-.8.5-1.4.9-1.8,1.1a.447.447,0,1,1-.4-.8,17.4,17.4,0,0,0,1.8-1.1l1.5-1Zm0,1.3-.7.5c-.7.4-1.3.8-1.8,1.1a.43.43,0,1,0,.5.7c.5-.3,1.1-.7,1.8-1.1l.2-.2v-1Zm0,1.3c-.6.3-1.2.7-1.7,1a.447.447,0,0,0,.4.8c.4-.2.8-.5,1.3-.7v-1.1Zm0,1.6v1.1h-.1a.447.447,0,0,1-.4-.8Z" transform="translate(-1561 -754.396)"/>
</svg>